<?xml version="1.0" encoding="UTF-8"?>
<svg version="1.1" xmlns="http://www.w3.org/2000/svg" width="256" height="256">
<path d="M0 0 C23.66234029 18.59998072 39.34054315 44.63448351 43.28955078 74.69042969 C43.60743422 79.547814 43.67135421 84.38600194 43.66455078 89.25292969 C43.66400696 89.9120636 43.66346313 90.57119751 43.66290283 91.25030518 C43.62136172 102.23144782 42.67449866 112.24706689 39.28955078 122.69042969 C39.07524414 123.37202148 38.8609375 124.05361328 38.64013672 124.75585938 C34.05753137 138.98394847 27.10241502 151.37655371 17.28955078 162.69042969 C16.62568359 163.49867188 15.96181641 164.30691406 15.27783203 165.13964844 C1.12033168 181.80938545 -17.92303446 192.56747983 -38.71044922 198.69042969 C-39.81646484 199.03074219 -40.92248047 199.37105469 -42.06201172 199.72167969 C-60.85696274 204.47543779 -83.27986116 203.66423154 -101.71044922 197.69042969 C-102.39204102 197.47612305 -103.07363281 197.26181641 -103.77587891 197.04101562 C-118.003968 192.45841028 -130.39657324 185.50329393 -141.71044922 175.69042969 C-142.51869141 175.0265625 -143.32693359 174.36269531 -144.15966797 173.67871094 C-160.82940498 159.52121059 -171.58749936 140.47784444 -177.71044922 119.69042969 C-178.05076172 118.58441406 -178.39107422 117.47839844 -178.74169922 116.33886719 C-185.78551602 88.48970262 -180.69576603 57.57861595 -166.57763672 32.84277344 C-150.76554247 6.58926916 -127.15115849 -10.6193679 -98.06591797 -19.48535156 C-63.85293083 -27.88924014 -28.03931841 -21.46772822 0 0 Z M-60.71044922 -5.30957031 C-60.71044922 -0.35957031 -60.71044922 4.59042969 -60.71044922 9.69042969 C-59.46392578 9.66980469 -58.21740234 9.64917969 -56.93310547 9.62792969 C-46.97912864 9.66830095 -39.21150139 10.62538623 -30.38989258 15.32202148 C-23.30429114 19.07547073 -15.90492977 21.5268612 -8.28735352 23.98754883 C-7.34674072 24.29813232 -6.40612793 24.60871582 -5.43701172 24.92871094 C-4.59734863 25.19723877 -3.75768555 25.4657666 -2.89257812 25.74243164 C0.19278757 27.08282938 1.75304691 28.5461526 3.1809082 31.59155273 C3.53439331 32.63629761 3.53439331 32.63629761 3.89501953 33.70214844 C4.15605469 34.45947266 4.41708984 35.21679688 4.68603516 35.99707031 C4.94707031 36.78275391 5.20810547 37.5684375 5.47705078 38.37792969 C5.7496875 39.17521484 6.02232422 39.9725 6.30322266 40.79394531 C6.9731727 42.75678141 7.63241224 44.72326738 8.28955078 46.69042969 C10.59955078 46.03042969 12.90955078 45.37042969 15.28955078 44.69042969 C4.25067089 22.71881298 -15.55478501 6.53390901 -38.71044922 -1.30957031 C-45.95479486 -3.47092681 -53.12281031 -5.30957031 -60.71044922 -5.30957031 Z M-135.71044922 21.69042969 C-133.68655107 23.86581721 -132.32773899 24.8817848 -129.58544922 26.25292969 C-126.71044922 27.69042969 -126.71044922 27.69042969 -125.71044922 29.69042969 C-125.47525345 34.24004248 -125.48205748 38.79341622 -125.47021484 43.34838867 C-125.46050131 45.61576918 -125.42947529 47.88224607 -125.39794922 50.14941406 C-125.39141979 51.5888618 -125.38616908 53.02831602 -125.38232422 54.46777344 C-125.37297852 55.7799585 -125.36363281 57.09214355 -125.35400391 58.4440918 C-125.71044922 61.69042969 -125.71044922 61.69042969 -127.01147461 63.51416016 C-130.00980895 65.59002951 -133.14928172 67.22823903 -136.39794922 68.87792969 C-137.08050781 69.24595703 -137.76306641 69.61398438 -138.46630859 69.99316406 C-144.28367637 72.95403397 -149.05024602 73.8550398 -155.46044922 71.81542969 C-156.57419922 71.25855469 -156.57419922 71.25855469 -157.71044922 70.69042969 C-158.85513672 70.13355469 -158.85513672 70.13355469 -160.02294922 69.56542969 C-160.57982422 69.27667969 -161.13669922 68.98792969 -161.71044922 68.69042969 C-163.64676093 75.15496642 -163.95601363 80.96664546 -163.83544922 87.69042969 C-163.82642578 88.6559375 -163.81740234 89.62144531 -163.80810547 90.61621094 C-163.78475557 92.97455068 -163.75200969 95.33235255 -163.71044922 97.69042969 C-161.79232422 97.67689453 -161.79232422 97.67689453 -159.83544922 97.66308594 C-158.12708548 97.69124578 -156.41875214 97.72129445 -154.71044922 97.75292969 C-153.87126953 97.74197266 -153.03208984 97.73101562 -152.16748047 97.71972656 C-146.08503769 97.88475408 -142.93611842 99.3879683 -138.60546875 103.63793945 C-136.07729545 106.37619673 -133.59972652 109.15583555 -131.12890625 111.94580078 C-121.74595531 122.28161733 -112.31017137 126.509613 -98.89257812 129.88525391 C-96.31984567 130.83455706 -95.23103299 131.39143746 -93.71044922 133.69042969 C-93.32226562 136.92089844 -93.32226562 136.92089844 -93.31201172 140.87792969 C-93.30914154 141.57684326 -93.30627136 142.27575684 -93.30331421 142.99584961 C-93.30127496 144.4718507 -93.30679519 145.9478789 -93.31933594 147.42382812 C-93.33539342 149.68258107 -93.31948451 151.93954487 -93.30029297 154.19824219 C-93.30227543 155.63314197 -93.30611916 157.06804064 -93.31201172 158.50292969 C-93.31539551 159.80875 -93.3187793 161.11457031 -93.32226562 162.45996094 C-93.71044922 165.69042969 -93.71044922 165.69042969 -95.02563477 167.55297852 C-97.75372292 169.39476415 -100.7988504 170.34904131 -103.89794922 171.37792969 C-104.87924805 171.7153418 -104.87924805 171.7153418 -105.88037109 172.05957031 C-107.48773806 172.61100278 -109.09875405 173.15177859 -110.71044922 173.69042969 C-110.71044922 174.35042969 -110.71044922 175.01042969 -110.71044922 175.69042969 C-99.7096821 180.45126588 -88.88955735 184.69042969 -76.71044922 184.69042969 C-76.71044922 150.37042969 -76.71044922 116.05042969 -76.71044922 80.69042969 C-90.57044922 77.72042969 -90.57044922 77.72042969 -104.71044922 74.69042969 C-108.01044922 73.70042969 -111.31044922 72.71042969 -114.71044922 71.69042969 C-116.54585573 68.01961667 -116.24068952 63.6608546 -115.19082642 59.75946045 C-114.44593439 57.78462445 -113.61799685 55.87862642 -112.72998047 53.96386719 C-112.40934128 53.25730484 -112.08870209 52.55074249 -111.75834656 51.82276917 C-110.7075714 49.55590439 -109.62199334 47.30926151 -108.52294922 45.06542969 C-108.15395508 44.30263702 -107.78496094 43.53984436 -107.40478516 42.75393677 C-100.72441825 29.20555019 -93.38610088 21.16982691 -79.48193359 14.54956055 C-77.73039976 13.81960478 -77.73039976 13.81960478 -76.71044922 12.69042969 C-76.62413048 11.34775556 -76.60338449 10.00068647 -76.61279297 8.65527344 C-76.61601563 7.84638672 -76.61923828 7.0375 -76.62255859 6.20410156 C-76.6309375 5.35396484 -76.63931641 4.50382812 -76.64794922 3.62792969 C-76.65246094 2.77392578 -76.65697266 1.91992188 -76.66162109 1.04003906 C-76.67344548 -1.07652695 -76.69138153 -3.19305716 -76.71044922 -5.30957031 C-98.39719928 -6.36232517 -120.77909076 7.40685251 -135.71044922 21.69042969 Z M-60.71044922 25.69042969 C-64.20829192 56.29909198 -64.20829192 56.29909198 -53.14794922 83.37792969 C-51.08353853 85.55658309 -48.96610875 87.63486769 -46.77246094 89.68286133 C-37.97668242 98.24640463 -35.69791978 107.90867266 -33.27197266 119.46704102 C-31.48747837 127.80808108 -29.98406222 134.49699849 -22.71044922 139.69042969 C-14.28326381 131.98557445 -11.70521962 124.11692142 -9.58544922 113.00292969 C-9.10468145 110.60298895 -8.62291472 108.2032481 -8.14013672 105.80371094 C-7.78749756 104.04099854 -7.78749756 104.04099854 -7.42773438 102.24267578 C-6.70810058 98.6787984 -5.98826195 95.1165741 -5.22607422 91.56152344 C-5.00983398 90.53341553 -4.79359375 89.50530762 -4.57080078 88.44604492 C-3.11822601 83.79360127 -0.21408123 80.94666784 3.28955078 77.69042969 C4.92131242 76.13499238 6.54620104 74.57231662 8.16455078 73.00292969 C9.30537109 71.94525391 9.30537109 71.94525391 10.46923828 70.86621094 C12.50693082 68.43059989 12.95076473 66.81053996 13.28955078 63.69042969 C12.33048828 63.93792969 12.33048828 63.93792969 11.35205078 64.19042969 C8.73935817 64.61699175 6.30385809 64.85431852 3.66455078 64.94042969 C2.90916016 64.96621094 2.15376953 64.99199219 1.37548828 65.01855469 C-1.32051407 64.59446443 -1.97621394 63.76852196 -3.71044922 61.69042969 C-4.61425781 59.56152344 -4.61425781 59.56152344 -5.35888672 57.12792969 C-5.78427734 55.80921875 -5.78427734 55.80921875 -6.21826172 54.46386719 C-6.79569523 52.61712037 -7.3660332 50.76813975 -7.92919922 48.91699219 C-9.53495405 43.76425677 -9.53495405 43.76425677 -12.94091797 39.73730469 C-16.48839998 38.39636649 -20.04362865 37.11816348 -23.64794922 35.94042969 C-30.57589172 33.62888286 -36.61433645 30.80367228 -42.87841797 27.01074219 C-48.30892172 24.4889166 -54.88154533 25.46358486 -60.71044922 25.69042969 Z M-86.71044922 39.69042969 C-92.92723306 49.11370831 -92.92723306 49.11370831 -95.71044922 59.69042969 C-89.44044922 61.01042969 -83.17044922 62.33042969 -76.71044922 63.69042969 C-76.71044922 53.79042969 -76.71044922 43.89042969 -76.71044922 33.69042969 C-80.57739025 33.69042969 -84.17041572 37.19292338 -86.71044922 39.69042969 Z M-147.71044922 35.69042969 C-149.02626984 37.95939601 -150.33820158 40.23046155 -151.64794922 42.50292969 C-152.02113281 43.14552734 -152.39431641 43.788125 -152.77880859 44.45019531 C-154.34511557 47.17359393 -155.71414296 49.70151091 -156.71044922 52.69042969 C-153.43738985 54.63867931 -151.43890307 55.73413692 -147.58544922 55.50292969 C-144.43855194 54.7104078 -144.43855194 54.7104078 -140.71044922 52.69042969 C-140.71044922 48.07042969 -140.71044922 43.45042969 -140.71044922 38.69042969 C-143.02044922 37.70042969 -145.33044922 36.71042969 -147.71044922 35.69042969 Z M18.41455078 85.94042969 C17.77646484 86.50761719 17.13837891 87.07480469 16.48095703 87.65917969 C9.38157464 94.47695818 8.73514879 102.71344903 7.28173828 112.07324219 C4.28509131 130.92459786 -2.61260505 144.99395743 -14.71044922 159.69042969 C-18.02115513 161.34578264 -21.15845813 161.43357676 -24.71044922 160.69042969 C-27.79860583 158.77577259 -30.16514335 156.26350253 -32.71044922 153.69042969 C-33.56380859 152.95308594 -34.41716797 152.21574219 -35.29638672 151.45605469 C-43.00810709 144.53585987 -45.08085181 138.26280342 -47.21777344 128.33300781 C-50.5770525 112.66084405 -50.5770525 112.66084405 -59.71044922 99.69042969 C-60.04044922 99.69042969 -60.37044922 99.69042969 -60.71044922 99.69042969 C-60.71044922 127.74042969 -60.71044922 155.79042969 -60.71044922 184.69042969 C-34.9862696 182.3518679 -11.50524585 170.68921352 5.28955078 150.69042969 C18.97005537 133.05536568 26.53106187 113.17804565 26.35205078 90.81542969 C26.34753906 89.74550781 26.34302734 88.67558594 26.33837891 87.57324219 C26.32664827 84.94557983 26.31023307 82.3180343 26.28955078 79.69042969 C23.5332378 79.69042969 20.30434646 84.14493519 18.41455078 85.94042969 Z M-160.71044922 113.69042969 C-158.25704233 130.86427788 -146.62819968 146.68845484 -134.71044922 158.69042969 C-134.01822266 159.51285156 -133.32599609 160.33527344 -132.61279297 161.18261719 C-129.09713989 163.00905338 -128.32578912 162.63324205 -124.62841797 161.54980469 C-122.70900251 160.87236394 -120.79888251 160.16812074 -118.89794922 159.44042969 C-117.91890625 159.08851563 -116.93986328 158.73660156 -115.93115234 158.37402344 C-113.51593711 157.50218965 -111.11199592 156.59923781 -108.71044922 155.69042969 C-108.71044922 151.73042969 -108.71044922 147.77042969 -108.71044922 143.69042969 C-110.06138672 143.26632813 -111.41232422 142.84222656 -112.80419922 142.40527344 C-114.60662035 141.813854 -116.40868513 141.22134778 -118.21044922 140.62792969 C-119.09732422 140.35271484 -119.98419922 140.0775 -120.89794922 139.79394531 C-132.07827318 136.05346928 -138.99263147 127.59054995 -146.71044922 119.03613281 C-150.26781369 115.16369142 -150.26781369 115.16369142 -154.99169922 113.22119141 C-157.43261139 113.16737745 -157.43261139 113.16737745 -160.71044922 113.69042969 Z " fill="#66295B" transform="translate(196.71044921875,38.3095703125)"/>
</svg>
