<?xml version="1.0" encoding="UTF-8"?>
<svg version="1.1" xmlns="http://www.w3.org/2000/svg" width="512" height="512">
<path d="M0 0 C6.71901437 3.85395146 6.71901437 3.85395146 14.0234375 3.890625 C16.35803184 2.33432089 16.35803184 2.33432089 18.38671875 0.4375 C22.65266186 -3.33060669 28.66200977 -3.71457971 34.19921875 -3.51953125 C43.68571907 -2.44033305 51.06173705 1.55183059 57.15234375 8.93359375 C62.72403406 16.83918823 63.93267492 24.19045057 63.328125 33.72265625 C63.09867187 34.58890625 62.86921875 35.45515625 62.6328125 36.34765625 C62.0658311 38.73764354 62.0658311 38.73764354 63.48046875 40.49609375 C64.36412109 41.28886719 64.36412109 41.28886719 65.265625 42.09765625 C65.9153125 42.68160156 66.565 43.26554687 67.234375 43.8671875 C67.9253125 44.47949219 68.61625 45.09179688 69.328125 45.72265625 C69.9778125 46.40714844 70.6275 47.09164062 71.296875 47.796875 C73.22711232 49.7462615 74.95666325 51.34006658 77.328125 52.72265625 C80.8879141 52.32917995 80.8879141 52.32917995 83.13671875 51.4296875 C90.13444802 49.1719531 97.41707122 50.43104859 103.9765625 53.3984375 C112.0934807 57.96926021 117.24227994 64.45838062 120.640625 73.03515625 C122.56498396 83.35671793 120.84250465 90.83201043 116.12915039 100.07348633 C115.07184479 102.66788294 115.07184479 102.66788294 116.05981445 105.02075195 C116.74370239 106.1977063 116.74370239 106.1977063 117.44140625 107.3984375 C117.94333496 108.2963501 118.44526367 109.1942627 118.96240234 110.11938477 C119.51621582 111.08158936 120.0700293 112.04379395 120.640625 113.03515625 C137.38754174 143.63226526 147.25347835 179.61776701 147.56640625 214.59375 C147.5762001 215.50555023 147.58599396 216.41735046 147.59608459 217.35678101 C147.76776136 237.48473307 147.60448494 256.96157743 143.328125 276.72265625 C143.11381836 277.73972656 142.89951172 278.75679688 142.67871094 279.8046875 C133.36151556 322.93231676 112.79125712 362.76378933 82.328125 394.72265625 C81.11167072 396.13235582 79.90241604 397.54832662 78.703125 398.97265625 C74.95811307 403.30994501 70.68171784 407.01074943 66.328125 410.72265625 C66.4725 411.26792969 66.616875 411.81320312 66.765625 412.375 C69.22335115 422.35951249 69.09320455 430.38094663 64.328125 439.72265625 C59.27869858 447.23862277 52.65372761 452.21656039 43.78515625 454.328125 C35.5592426 455.64897918 28.86780799 454.3175771 21.328125 450.72265625 C20.4 449.93890625 19.471875 449.15515625 18.515625 448.34765625 C17.79375 447.81140625 17.071875 447.27515625 16.328125 446.72265625 C11.91154678 447.81507241 7.90469844 449.80643069 3.80908203 451.74316406 C-53.61524734 478.75441129 -121.97763643 479.75738595 -181.44116211 458.91772461 C-188.75779385 456.23652234 -195.77611976 453.01457752 -202.64819336 449.34057617 C-206.84708935 447.06426255 -206.84708935 447.06426255 -211.45703125 447.34765625 C-212.18792969 447.80140625 -212.91882813 448.25515625 -213.671875 448.72265625 C-221.78798289 453.30783885 -229.55862787 453.79318829 -238.671875 452.72265625 C-242.39683911 451.52669696 -245.45094243 449.92511212 -248.671875 447.72265625 C-249.6 447.10390625 -250.528125 446.48515625 -251.484375 445.84765625 C-258.03885193 439.48045009 -261.75796062 431.86792504 -261.921875 422.59765625 C-261.671875 418.72265625 -261.671875 418.72265625 -261.15625 416.6953125 C-260.51992925 414.37040633 -260.51992925 414.37040633 -260.671875 410.72265625 C-262.31634665 408.66353272 -264.13920189 407.22843415 -266.2265625 405.62109375 C-274.52478577 399.17870316 -281.21387616 390.93687508 -287.671875 382.72265625 C-288.45175781 381.75972656 -289.23164063 380.79679687 -290.03515625 379.8046875 C-324.45705966 336.48908655 -344.20440866 280.14929045 -342.671875 224.72265625 C-344.033125 224.55443359 -344.033125 224.55443359 -345.421875 224.3828125 C-352.5729549 222.9302494 -357.22773351 217.50251076 -361.4453125 211.84765625 C-366.01264143 203.9348316 -366.022892 193.43344162 -363.94921875 184.66796875 C-360.77745558 176.2184944 -355.72327551 170.79445231 -347.671875 166.72265625 C-343.131772 165.07882585 -339.46114722 164.64887194 -334.671875 164.72265625 C-334.41277344 163.42521484 -334.41277344 163.42521484 -334.1484375 162.1015625 C-329.17248158 139.80106282 -319.29167277 109.34245402 -302.671875 92.72265625 C-300.82722656 92.90441406 -300.82722656 92.90441406 -298.9453125 93.08984375 C-296.36139311 93.12097531 -295.13291905 93.09950714 -293.11035156 91.44628906 C-291.70374327 89.64102188 -290.48660736 87.8024898 -289.296875 85.84765625 C-288.4566702 84.55798019 -287.61556175 83.26889228 -286.7734375 81.98046875 C-285.73316406 80.36785156 -285.73316406 80.36785156 -284.671875 78.72265625 C-284.011875 78.06265625 -283.351875 77.40265625 -282.671875 76.72265625 C-282.96215286 74.60732825 -282.96215286 74.60732825 -283.546875 72.22265625 C-284.07237131 67.63113227 -283.39775242 65.53908563 -280.546875 61.91015625 C-278.96119664 60.14486123 -277.33023008 58.41986006 -275.671875 56.72265625 C-275.14029785 56.1704541 -274.6087207 55.61825195 -274.06103516 55.04931641 C-263.96429087 44.58426683 -263.96429087 44.58426683 -259.671875 41.72265625 C-259.81625 41.09359375 -259.960625 40.46453125 -260.109375 39.81640625 C-262.31600547 29.64138797 -262.66049572 20.93285524 -257.453125 11.51953125 C-252.04644719 3.64981133 -243.95765141 -1.28040259 -234.671875 -3.27734375 C-227.62511515 -3.94846374 -220.31643765 -2.93322185 -214.46875 1.328125 C-213.16397125 2.41627064 -211.88854872 3.54134425 -210.65625 4.7109375 C-208.61872347 6.01436926 -208.61872347 6.01436926 -205.9375 5.12109375 C-202.88734915 3.81492867 -199.86773669 2.46730117 -196.86425781 1.05786133 C-138.4468606 -26.19274858 -58.41246238 -29.3443518 0 0 Z " fill="#020202" transform="translate(364.671875,29.27734375)"/>
<path d="M0 0 C17.10010735 0.73548849 34.18538114 4.53782221 50.79736328 8.48339844 C53.0053755 9.00126076 55.21856142 9.4897103 57.43359375 9.9765625 C88.87929994 17.11711577 119.09790836 29.95149028 148 44 C148.03867187 45.45019531 148.03867187 45.45019531 148.078125 46.9296875 C148.39914305 54.29851099 148.89564516 60.23647775 152.2578125 66.94921875 C153.19055505 69.52653368 153.05964673 70.48093074 152 73 C146.93853926 80.15667006 140.74080583 86.57405981 134.7734375 92.98046875 C132.71259271 95.19825911 130.72775772 97.47018938 128.75390625 99.765625 C124.56390372 104.57284363 120.08081101 109.06572185 115.5625 113.5625 C114.75490234 114.37396484 113.94730469 115.18542969 113.11523438 116.02148438 C108.23852367 120.89033575 103.22685536 125.51229591 98 130 C96.87812787 130.99766543 95.758271 131.99760247 94.640625 133 C56.82722071 166.60326353 11.90362368 192.75093524 -34.8125 211.8125 C-35.8744458 212.25158691 -36.9363916 212.69067383 -38.03051758 213.14306641 C-39.51007935 213.731604 -39.51007935 213.731604 -41.01953125 214.33203125 C-42.32047729 214.85373901 -42.32047729 214.85373901 -43.64770508 215.38598633 C-46.27421661 216.07157808 -47.51460914 216.0575075 -50 215 C-51.21066656 213.5275677 -52.41867125 212.05260765 -53.59765625 210.5546875 C-58.06800252 205.59870473 -64.83015395 203.88315619 -71 202 C-71.87036013 191.01220941 -72.24044502 180.08290462 -72.25 169.0625 C-72.25151062 167.83700943 -72.25151062 167.83700943 -72.25305176 166.58676147 C-72.23471231 144.31970735 -70.94601541 121.91687018 -65.54589844 100.23828125 C-64.96184538 97.84355924 -64.43470965 95.44051917 -63.9140625 93.03125 C-59.24537464 71.81812457 -51.8911383 51.78070535 -43 32 C-42.24407968 30.30109787 -41.4888451 28.60189041 -40.734375 26.90234375 C-40.15625 25.6015625 -39.578125 24.30078125 -39 23 C-37.88882813 23.05800781 -36.77765625 23.11601562 -35.6328125 23.17578125 C-26.57175949 23.50594108 -19.7101857 23.35214098 -12 18 C-10.6078125 17.1028125 -10.6078125 17.1028125 -9.1875 16.1875 C-4.60330984 11.60330984 -1.71737306 6.24499296 0 0 Z " fill="#C8EFFE" transform="translate(208,219)"/>
<path d="M0 0 C2.29520165 0.87965039 4.01208783 1.96865764 6.00024414 3.4140625 C6.74314697 3.95111816 7.4860498 4.48817383 8.25146484 5.04150391 C9.03352295 5.61819824 9.81558105 6.19489258 10.62133789 6.7890625 C11.42982178 7.37993652 12.23830566 7.97081055 13.07128906 8.57958984 C19.24461751 13.12081795 25.2148426 17.82947006 31.05883789 22.7890625 C32.10251158 23.6595706 33.14681342 24.52932599 34.19165039 25.3984375 C41.13719872 31.19637961 47.93578295 37.13098435 54.51782227 43.34033203 C55.59435605 44.35239659 56.6768959 45.35809357 57.76391602 46.35888672 C59.48192727 47.94492784 61.17833079 49.5514015 62.87133789 51.1640625 C63.40573486 51.65189209 63.94013184 52.13972168 64.49072266 52.64233398 C68.02459196 56.07356712 68.02459196 56.07356712 68.16821289 59.07421875 C66.5100714 63.13199459 64.56470644 66.9885017 62.49633789 70.8515625 C62.04307129 71.70210205 61.58980469 72.5526416 61.12280273 73.42895508 C57.48206774 80.17193437 53.55215303 86.57558737 49.05883789 92.7890625 C48.61813965 93.40346191 48.17744141 94.01786133 47.72338867 94.65087891 C41.73792246 102.95918435 35.48912157 110.79338966 28.45727539 118.23828125 C26.49089837 120.32955844 24.63230801 122.44984878 22.80883789 124.6640625 C16.71650217 131.75428079 16.71650217 131.75428079 13.05883789 133.7890625 C9.24162051 133.20179829 7.26345806 131.92547595 4.05883789 129.7890625 C3.99987767 126.85656721 4.12011264 124.13703078 4.37133789 121.2265625 C4.49089783 119.4248025 4.60522358 117.62268968 4.71508789 115.8203125 C4.8040332 114.37011719 4.8040332 114.37011719 4.89477539 112.890625 C5.18853927 107.33708884 5.30478297 101.78692327 5.37133789 96.2265625 C5.40074463 95.13851318 5.43015137 94.05046387 5.46044922 92.92944336 C5.46842529 91.91245361 5.47640137 90.89546387 5.48461914 89.84765625 C5.49920166 88.94329834 5.51378418 88.03894043 5.52880859 87.10717773 C5.2558736 84.64547071 5.2558736 84.64547071 3.22363281 82.99633789 C0.30364138 81.36790013 -1.64888936 81.36877236 -4.94116211 81.7890625 C-6.71027172 82.89223769 -6.71027172 82.89223769 -7.94116211 84.7890625 C-8.41557765 87.52541018 -8.41557765 87.52541018 -8.38256836 90.64453125 C-8.40778564 91.81790039 -8.43300293 92.99126953 -8.45898438 94.20019531 C-8.48109985 96.06949707 -8.48109985 96.06949707 -8.50366211 97.9765625 C-8.73723569 108.38689039 -9.29617246 118.50388452 -10.94116211 128.7890625 C-11.72620117 129.06878906 -12.51124023 129.34851563 -13.32006836 129.63671875 C-23.21499172 133.41257294 -29.41513138 137.98286974 -34.00756836 147.6796875 C-35.95991838 154.18207501 -35.85507701 161.04312076 -35.94116211 167.7890625 C-78.4332723 188.97876201 -126.69649629 198.43856042 -173.94116211 190.7890625 C-174.85929687 190.6437207 -175.77743164 190.49837891 -176.72338867 190.34863281 C-200.69314981 186.40742824 -223.35481131 178.91089732 -244.94116211 167.7890625 C-244.61116211 163.4990625 -244.28116211 159.2090625 -243.94116211 154.7890625 C-242.65725586 154.31597656 -241.37334961 153.84289062 -240.05053711 153.35546875 C-228.27439155 148.97059028 -216.75746694 144.21275401 -205.36450195 138.91259766 C-203.00689872 137.81954002 -200.6410992 136.74630006 -198.27319336 135.67578125 C-159.67768653 118.04407941 -122.92174585 93.14748667 -91.74194336 64.34375 C-90.26595639 62.99745226 -88.78507119 61.65561489 -87.26660156 60.35742188 C-81.286274 55.24451749 -75.71037385 49.74440465 -70.15087891 44.18408203 C-68.51540329 42.55078802 -66.87208503 40.9256778 -65.22827148 39.30078125 C-59.41932178 33.52225807 -53.97512373 27.65241721 -48.88330078 21.22314453 C-44.25935864 15.42795872 -39.26513004 9.94665644 -33.94116211 4.7890625 C-33.11616211 5.0984375 -32.29116211 5.4078125 -31.44116211 5.7265625 C-28.73133977 6.54918714 -26.49494955 7.03754349 -23.72241211 7.35546875 C-22.47459961 7.49855469 -21.22678711 7.64164062 -19.94116211 7.7890625 C-15.99194036 21.65989461 -13.20591153 35.54937848 -10.94116211 49.7890625 C-5.59707462 50.90318291 -5.59707462 50.90318291 -0.44897461 49.79296875 C2.85340894 45.40404968 1.14988022 38.82887278 0.51000977 33.62744141 C-0.57230432 26.8184676 -2.25674434 20.11776413 -3.94458008 13.43725586 C-4.21415527 12.35968018 -4.48373047 11.28210449 -4.76147461 10.171875 C-5.1368335 8.72385498 -5.1368335 8.72385498 -5.51977539 7.24658203 C-5.94116211 4.7890625 -5.94116211 4.7890625 -4.94116211 1.7890625 C-1.94116211 -0.2109375 -1.94116211 -0.2109375 0 0 Z " fill="#C8EFFD" transform="translate(407.941162109375,294.2109375)"/>
<path d="M0 0 C18.61904954 4.28469238 36.3086035 11.43936252 53.5 19.6875 C54.58998291 20.20940918 55.67996582 20.73131836 56.80297852 21.26904297 C59.90156391 22.79121379 62.95709833 24.36952939 66 26 C67.58542603 26.84643066 67.58542603 26.84643066 69.20288086 27.70996094 C76.72046427 32.04501024 76.72046427 32.04501024 78.00390625 36.4296875 C77.78541016 38.13511719 77.78541016 38.13511719 77.5625 39.875 C77.08637987 44.27535231 77.0396289 47.35237241 78.3671875 51.53125 C79.3179055 55.43080518 79.3179055 55.43080518 78.00268555 57.78564453 C76.29206672 59.56982398 74.49946685 61.08946385 72.5625 62.625 C71.16289984 63.82917242 69.76583848 65.03630082 68.37109375 66.24609375 C67.64647949 66.86081543 66.92186523 67.47553711 66.17529297 68.10888672 C62.67527461 71.15166362 59.39526639 74.40132806 56.125 77.6875 C55.49360107 78.32067139 54.86220215 78.95384277 54.21166992 79.60620117 C47.90897295 85.9969548 42.1792054 92.74629764 37.1640625 100.19921875 C29.5156383 111.12811965 29.5156383 111.12811965 24.94873047 112.7109375 C21.31127625 113.25535228 17.75799737 113.11126058 14.09375 112.98046875 C7.90956417 112.80086298 2.7724553 115.17008803 -2 119 C-2.45632812 119.78648926 -2.91265625 120.57297852 -3.3828125 121.38330078 C-5.65433815 125.11480524 -7.69542802 128.28164411 -12.04727173 129.63815308 C-18.26245758 130.76284292 -24.57602136 130.83922485 -30.875 131 C-32.75800394 131.07751256 -34.64082883 131.15951074 -36.5234375 131.24609375 C-39.31962772 131.37406661 -42.11559787 131.49993674 -44.9125061 131.61123657 C-59.06581113 132.19473452 -72.93744748 134.17631866 -86.875 136.625 C-89.47589444 137.07959942 -92.07754035 137.52911038 -94.6796875 137.9765625 C-96.36167236 138.27167725 -96.36167236 138.27167725 -98.07763672 138.57275391 C-101 139 -101 139 -105 139 C-106.52734375 137.35546875 -106.52734375 137.35546875 -107.9375 135.1875 C-110.20710292 131.71671447 -112.33706506 129.96472145 -116 128 C-112.88356789 108.68461345 -104.81589902 89.88239571 -94.71875 73.18359375 C-94.3475 72.56347412 -93.97625 71.94335449 -93.59375 71.30444336 C-92.57157189 69.61807765 -91.52116051 67.94891589 -90.46875 66.28125 C-88.57798156 62.05719284 -88.58858828 59.60033103 -89 55 C-89.86265968 52.59442147 -89.86265968 52.59442147 -91 51 C-89.39642346 48.74957738 -87.79216064 46.49964941 -86.1875 44.25 C-85.73568359 43.61578125 -85.28386719 42.9815625 -84.81835938 42.328125 C-83.93974672 41.09678464 -83.05641799 39.86879315 -82.16796875 38.64453125 C-81.21378606 37.3010165 -80.32180106 35.91351505 -79.44921875 34.515625 C-78.97097656 34.01546875 -78.49273437 33.5153125 -78 33 C-75.9140625 32.96875 -75.9140625 32.96875 -73.625 33.5 C-69.85774121 34.11691707 -69.85774121 34.11691707 -66.375 32.5625 C-63.80064555 29.78490704 -61.29100151 26.96329785 -58.82421875 24.08984375 C-56.03131987 20.89027009 -53.10567776 17.89524632 -50 15 C-49.071875 14.113125 -48.14375 13.22625 -47.1875 12.3125 C-44 11 -44 11 -41.9296875 11.65234375 C-40.75792969 12.19568359 -40.75792969 12.19568359 -39.5625 12.75 C-32.16093593 16.17727024 -23.76606009 16.56599117 -15.9921875 14.01171875 C-8.9643087 10.6236518 -4.1091102 6.69632774 0 0 Z " fill="#C8EFFE" transform="translate(161,71)"/>
<path d="M0 0 C1.09828125 0.00902344 2.1965625 0.01804688 3.328125 0.02734375 C4.12734375 0.03894531 4.9265625 0.05054688 5.75 0.0625 C5.976875 1.361875 6.20375 2.66125 6.4375 4 C7.41426053 8.56779189 9.24208771 11.9619326 11.82421875 15.82421875 C13.35216981 19.5183789 12.42839749 22.38819738 10.9597168 26.01293945 C9.92244511 28.31678558 8.8399506 30.59561919 7.75 32.875 C4.12009185 40.70776664 0.92114905 48.62648887 -2 56.75 C-2.35191406 57.72106689 -2.70382813 58.69213379 -3.06640625 59.69262695 C-7.85359551 73.20590301 -11.69069787 86.86057428 -14.453125 100.92529297 C-14.87009047 103.03762846 -15.30531135 105.14561068 -15.7421875 107.25390625 C-19.43598717 125.46322405 -21.54664841 143.55014019 -21.33203125 162.14453125 C-21.32428932 162.82844814 -21.31654739 163.51236504 -21.30857086 164.21700668 C-21.22979813 170.55126892 -21.10971423 176.88451696 -20.9621582 183.2175293 C-20.88188429 186.7346152 -20.83077414 190.25115856 -20.79755211 193.76898766 C-20.77011044 195.7281802 -20.70900042 197.68680895 -20.64717102 199.6452179 C-20.57414483 208.14872365 -20.57414483 208.14872365 -22.52642822 210.78826904 C-24.11547852 211.92602539 -24.11547852 211.92602539 -27.25 213.0625 C-31.17172679 212.28280951 -33.40368359 210.2717341 -36.125 207.4375 C-36.74117188 206.80585938 -37.35734375 206.17421875 -37.9921875 205.5234375 C-72.20447582 168.23322705 -95.58522347 121.22814912 -103.25 71.0625 C-103.36569336 70.33740234 -103.48138672 69.61230469 -103.60058594 68.86523438 C-105.1624119 58.90106279 -105.49079335 49.12231112 -105.25 39.0625 C-104.58613281 38.74796875 -103.92226562 38.4334375 -103.23828125 38.109375 C-93.59237101 33.4342769 -88.50135418 29.13577232 -84.25 19.0625 C-83.5646464 15.96505777 -83.35453322 13.25076333 -83.25 10.0625 C-76.92022475 8.31377815 -70.70801981 7.40613273 -64.1875 6.6875 C-61.97379068 6.43375004 -59.76025672 6.17846679 -57.546875 5.921875 C-56.37318359 5.78587891 -55.19949219 5.64988281 -53.99023438 5.50976562 C-50.03676179 5.0370005 -46.08844477 4.53306661 -42.140625 4.015625 C-41.45791031 3.92626678 -40.77519562 3.83690857 -40.0717926 3.74484253 C-36.73413061 3.30700714 -33.39701908 2.86541773 -30.06030273 2.42041016 C-20.06519095 1.10758426 -10.09438926 -0.10972162 0 0 Z " fill="#C8EEFD" transform="translate(143.25,214.9375)"/>
<path d="M0 0 C1.7734375 1.70703125 1.7734375 1.70703125 3.375 3.8125 C7.38816848 8.69125384 11.66440154 11.80793618 18 13 C25.89558076 13.56068734 33.06477182 13.8815161 40.16796875 9.97265625 C43.74826044 8.07181909 43.74826044 8.07181909 46 8 C48.5078125 10.0546875 48.5078125 10.0546875 51.125 12.875 C54.21842731 16.39236087 54.21842731 16.39236087 58 19 C57.37657603 21.75396026 56.59186471 23.93054847 55.4375 26.5625 C52.25512479 35.01225487 53.65112441 43.81546353 57 52 C59.77228569 57.14853057 63.51500669 60.39889985 68 64 C66.65786774 72.42526887 64.05785681 80.29920319 61.1875 88.3125 C60.82927155 89.31836151 60.82927155 89.31836151 60.46380615 90.34454346 C50.68028805 117.6773629 38.19848007 144.25648293 23 169 C18.13920567 169.30340677 13.73137943 169.2285215 9 168 C5.66157601 164.77981029 4.1817375 160.99864829 2.4375 156.75 C1.36893219 154.44728154 0.29327522 152.14784092 -0.7890625 149.8515625 C-1.31918945 148.6955957 -1.84931641 147.53962891 -2.39550781 146.34863281 C-4.76405956 141.40538026 -7.52428351 136.76324582 -10.4375 132.125 C-10.96980225 131.27647461 -11.50210449 130.42794922 -12.05053711 129.55371094 C-20.9807185 115.56483733 -31.05833558 102.46382723 -42 90 C-42.63292969 89.2678125 -43.26585937 88.535625 -43.91796875 87.78125 C-45.59910401 85.84236631 -47.29653974 83.91928327 -49 82 C-49.67289062 81.23429687 -50.34578125 80.46859375 -51.0390625 79.6796875 C-58.11633071 71.70213075 -65.37771502 63.82103819 -73.75 57.1875 C-75.66796875 55.55078125 -75.66796875 55.55078125 -77 54 C-77.0625 50.875 -77.0625 50.875 -76 48 C-74.75542831 43.1925368 -75.28864828 38.92383618 -75.84375 34.03515625 C-74.65640745 29.76402125 -72.35509733 28.7056777 -68.65283203 26.47583008 C-67.77739746 25.98880615 -66.90196289 25.50178223 -66 25 C-65.16194824 24.53166748 -64.32389648 24.06333496 -63.46044922 23.58081055 C-60.72640784 22.10617061 -57.96716657 20.69918332 -55.1875 19.3125 C-54.16648193 18.80211182 -53.14546387 18.29172363 -52.09350586 17.76586914 C-39.72060064 11.71219302 -26.92156547 6.75317602 -14 2 C-12.69458252 1.50137451 -12.69458252 1.50137451 -11.36279297 0.99267578 C-3.96340118 -1.7078656 -3.96340118 -1.7078656 0 0 Z " fill="#C8EFFE" transform="translate(372,73)"/>
<path d="M0 0 C1.33691406 1.70800781 1.33691406 1.70800781 2.515625 3.953125 C2.95825684 4.78924316 3.40088867 5.62536133 3.85693359 6.48681641 C4.31664551 7.39866699 4.77635742 8.31051758 5.25 9.25 C5.97243896 10.66224854 5.97243896 10.66224854 6.70947266 12.10302734 C14.17416697 27.01010369 19.57771301 42.41747401 23.41918945 58.62353516 C23.83561213 60.32738482 24.28019009 62.0244479 24.74291992 63.71630859 C26.85963933 71.59976093 27.93506504 79.37947852 28.6875 87.5 C28.78180801 88.49679779 28.78180801 88.49679779 28.87802124 89.51373291 C30.71769294 109.28204988 31.34605684 129.36628053 28 149 C27.84402344 149.96083496 27.68804687 150.92166992 27.52734375 151.91162109 C25.05739621 166.87081261 21.53041569 180.87911154 16 195 C9.14446291 189.12997627 2.33382741 183.23243599 -4.3125 177.125 C-12.31669711 169.84348005 -20.74319498 163.15978522 -29.3125 156.5625 C-30.03187744 156.00038818 -30.75125488 155.43827637 -31.49243164 154.85913086 C-34.95905014 152.18159815 -38.38861146 149.70278874 -42.203125 147.54296875 C-46.0298032 145.31707901 -49.05825999 143.36067325 -52 140 C-52.9207277 136.45789563 -52.62882932 133.02075341 -52.29541016 129.40844727 C-51.71530491 122.97357609 -53.24984849 119.0162114 -56.58984375 113.41796875 C-57.94250915 111.0985785 -58.65160068 109.63697008 -59 107 C-58.20239258 104.90722656 -58.20239258 104.90722656 -56.89453125 102.640625 C-56.41169678 101.78509033 -55.9288623 100.92955566 -55.43139648 100.0480957 C-54.89716064 99.12472412 -54.3629248 98.20135254 -53.8125 97.25 C-52.69212633 95.25047986 -51.57504227 93.2491136 -50.4609375 91.24609375 C-49.8844043 90.21210449 -49.30787109 89.17811523 -48.71386719 88.11279297 C-33.24280216 60.0136364 -22.40919734 30.23519553 -12 0 C-2.81906696 -1.37713996 -2.81906696 -1.37713996 0 0 Z " fill="#C7EEFD" transform="translate(467,141)"/>
<path d="M0 0 C2.4375 0.9375 2.4375 0.9375 4.56640625 1.9765625 C8.32470876 3.23444334 11.89499025 3.26712198 15.8125 3.25 C16.90691406 3.27416992 16.90691406 3.27416992 18.0234375 3.29882812 C21.84563195 3.3022408 24.74273442 2.98590029 28.2265625 1.35546875 C31.4375 -0.0625 31.4375 -0.0625 33.671875 0.0546875 C35.79608947 1.11679474 37.07561237 2.31759252 38.6875 4.0625 C41.17315614 6.66500323 43.70397907 9.09599564 46.4375 11.4375 C52.19293213 16.41666961 57.42313687 21.7704356 62.37890625 27.54296875 C63.93331332 29.35103618 65.50704755 31.14251308 67.08984375 32.92578125 C83.71201109 51.77129581 97.54082826 72.86812101 109.39208984 94.98876953 C110.31880113 96.71623555 111.261746 98.43497121 112.20703125 100.15234375 C112.67496094 101.03019531 113.14289063 101.90804687 113.625 102.8125 C114.20314453 103.89144531 114.20314453 103.89144531 114.79296875 104.9921875 C115.57472775 107.3516783 115.25145745 108.6252387 114.4375 110.9375 C110.28061828 112.1397354 108.30565609 111.78912717 104.5 109.796875 C103.53771484 109.30864258 102.57542969 108.82041016 101.58398438 108.31738281 C100.54564453 107.77952148 99.50730469 107.24166016 98.4375 106.6875 C64.01241757 89.53574469 26.13333942 77.9961597 -11.5625 70.625 C-12.2225 70.49506653 -12.8825 70.36513306 -13.5625 70.23126221 C-21.45592108 68.69347831 -29.16822464 67.65952064 -37.1875 67.1875 C-41.16502778 66.92298902 -43.80853912 66.73180196 -46.6796875 63.70703125 C-47.99973928 61.12286209 -48.80272387 58.72786828 -49.5625 55.9375 C-50.2225 54.9475 -50.8825 53.9575 -51.5625 52.9375 C-47.25257485 47.58485103 -42.91793604 42.25318016 -38.5625 36.9375 C-38.06637207 36.32970703 -37.57024414 35.72191406 -37.05908203 35.09570312 C-8.10278303 -0.19762885 -8.10278303 -0.19762885 0 0 Z " fill="#C7EEFD" transform="translate(251.5625,138.0625)"/>
<path d="M0 0 C0.71094818 0.00149048 1.42189636 0.00298096 2.15438843 0.0045166 C14.93925587 0.05230317 27.33802888 1.13484347 39.9375 3.3125 C41.54810419 3.55907038 43.15877995 3.80517373 44.76953125 4.05078125 C55.12491153 5.75873286 64.96579675 8.7825092 74.875 12.1875 C76.07141113 12.59814697 77.26782227 13.00879395 78.50048828 13.43188477 C86.5561632 16.28198545 94.24223885 19.60361283 101.9375 23.3125 C101.6075 26.2825 101.2775 29.2525 100.9375 32.3125 C100.22021729 32.55782471 99.50293457 32.80314941 98.76391602 33.0559082 C73.77004829 41.65729407 48.53591317 51.01390064 26.04296875 65.12890625 C25.34816406 65.51949219 24.65335937 65.91007812 23.9375 66.3125 C22 65.75 22 65.75 19.9375 64.3125 C11.55675159 58.48241415 4.0825708 57.04570809 -6.0625 58.3125 C-11.50759354 60.30923846 -16.25299353 63.10616236 -21.0625 66.3125 C-21.83102295 65.90523682 -22.5995459 65.49797363 -23.39135742 65.07836914 C-45.54604673 53.37621636 -67.49856775 43.2045457 -91.37670898 35.49682617 C-93.23984741 34.89511597 -93.23984741 34.89511597 -95.140625 34.28125 C-96.25856445 33.92482422 -97.37650391 33.56839844 -98.52832031 33.20117188 C-101.0625 32.3125 -101.0625 32.3125 -102.0625 31.3125 C-102.10330783 29.31291636 -102.10504356 27.31204746 -102.0625 25.3125 C-82.77633997 15.32728705 -63.79366602 8.26464194 -42.4375 4.125 C-41.64005371 3.97015137 -40.84260742 3.81530273 -40.02099609 3.65576172 C-26.66717335 1.19493094 -13.57863094 -0.07137889 0 0 Z " fill="#C7EEFD" transform="translate(266.0625,24.6875)"/>
<path d="M0 0 C1.33691406 1.70800781 1.33691406 1.70800781 2.515625 3.953125 C2.95825684 4.78924316 3.40088867 5.62536133 3.85693359 6.48681641 C4.31664551 7.39866699 4.77635742 8.31051758 5.25 9.25 C5.73162598 10.19149902 6.21325195 11.13299805 6.70947266 12.10302734 C14.17416697 27.01010369 19.57771301 42.41747401 23.41918945 58.62353516 C23.83561213 60.32738482 24.28019009 62.0244479 24.74291992 63.71630859 C26.85963933 71.59976093 27.93506504 79.37947852 28.6875 87.5 C28.78180801 88.49679779 28.78180801 88.49679779 28.87802124 89.51373291 C30.71769294 109.28204988 31.34605684 129.36628053 28 149 C27.84402344 149.96083496 27.68804687 150.92166992 27.52734375 151.91162109 C25.05739621 166.87081261 21.53041569 180.87911154 16 195 C12.21764804 191.76314739 8.43641423 188.52560442 4.6875 185.25 C4.03136719 184.67765625 3.37523437 184.1053125 2.69921875 183.515625 C1.42973068 182.38330001 0.20286322 181.20286322 -1 180 C-0.8984375 178.13671875 -0.8984375 178.13671875 -0.375 175.6875 C-0.17648437 174.6975 0.02203125 173.7075 0.2265625 172.6875 C0.48179687 171.470625 0.73703125 170.25375 1 169 C11.63889562 118.11248241 8.0366217 66.44512048 -13.3449707 18.70141602 C-14 17 -14 17 -14 15 C-14.99 15.33 -15.98 15.66 -17 16 C-16.54548816 14.26982492 -16.08621143 12.54090123 -15.625 10.8125 C-15.36976563 9.84957031 -15.11453125 8.88664063 -14.8515625 7.89453125 C-14.05233704 5.17789793 -13.0968638 2.60862825 -12 0 C-3.44201929 -1.28369711 -3.44201929 -1.28369711 0 0 Z " fill="#B3E8FC" transform="translate(467,141)"/>
<path d="M0 0 C4.10505054 3.40631853 8.10490293 6.91732309 12 10.5625 C12.78375 11.28566406 13.5675 12.00882812 14.375 12.75390625 C16 15 16 15 16.03515625 17.2109375 C14.50081491 21.34497416 12.51703904 25.17857624 10.4375 29.0625 C9.9842334 29.91303955 9.5309668 30.7635791 9.06396484 31.63989258 C5.42322985 38.38287187 1.49331514 44.78652487 -3 51 C-3.44069824 51.61439941 -3.88139648 52.22879883 -4.33544922 52.86181641 C-10.32091543 61.17012185 -16.56971632 69.00432716 -23.6015625 76.44921875 C-25.56793952 78.54049594 -27.42652988 80.66078628 -29.25 82.875 C-35.34233572 89.96521829 -35.34233572 89.96521829 -39 92 C-42.81721738 91.41273579 -44.79537983 90.13641345 -48 88 C-48.2487793 85.93701172 -48.2487793 85.93701172 -48.07421875 83.4296875 C-47.99204102 82.08583984 -47.99204102 82.08583984 -47.90820312 80.71484375 C-47.83537109 79.77769531 -47.76253906 78.84054687 -47.6875 77.875 C-47.62626953 76.93011719 -47.56503906 75.98523438 -47.50195312 75.01171875 C-47.34841324 72.67318814 -47.18053924 70.33657611 -47 68 C-46.67 68 -46.34 68 -46 68 C-45.67 70.97 -45.34 73.94 -45 77 C-25.1950185 56.64488013 -7.00472434 27.64229926 0 0 Z " fill="#B3E7FC" transform="translate(460,336)"/>
<path d="M0 0 C4.79198648 2.15863316 7.7072448 4.37743361 9.90234375 9.31640625 C10.74450431 15.25993019 10.38732203 20.26919633 6.90234375 25.31640625 C2.03204112 29.71155741 -1.03888083 30.7293021 -7.48828125 30.6640625 C-12.69128078 29.97084849 -15.67361637 26.92419321 -19.03515625 23.12890625 C-20.65695876 18.83589962 -20.75162538 14.84332587 -20.09765625 10.31640625 C-16.05577841 2.23265056 -9.17427484 -2.98975437 0 0 Z " fill="#F97E5A" transform="translate(35.09765625,209.68359375)"/>
<path d="M0 0 C5.35755096 1.92063148 8.45837216 4.91674432 11 10 C11.62536749 15.60780358 11.61926337 20.73700301 8.38671875 25.5234375 C5.13546778 28.9853329 1.44429117 30.75641085 -3.2734375 31.2265625 C-8.56257611 30.99189082 -11.86440721 29.27990336 -15.625 25.59765625 C-19.11132171 21.54678813 -19.45025436 17.39394537 -19.3125 12.2109375 C-18.63046491 7.38553921 -15.8275802 4.73134994 -12.3125 1.625 C-8.01904096 -0.48122519 -4.69600276 -0.69133254 0 0 Z " fill="#FA7E5A" transform="translate(138,42)"/>
<path d="M0 0 C3.8957689 2.18616935 5.98575793 4.1887161 7.8125 8.375 C8.67022435 13.7827478 8.76549247 18.68330273 5.6875 23.375 C2.02469126 27.65340684 -1.52761343 29.19056816 -7.125 29.8125 C-11.55383664 29.60926467 -14.81839443 28.24940146 -18.1875 25.375 C-21.92337409 20.58541783 -22.85143088 16.79735331 -22.56640625 10.73828125 C-21.87573241 6.4304702 -19.99382569 3.80575302 -16.609375 1.125 C-11.06639516 -2.47044638 -6.05763692 -2.66984738 0 0 Z " fill="#FA7E5A" transform="translate(393.1875,257.625)"/>
<path d="M0 0 C4.51092842 2.05042201 7.09846544 4.72386199 9.30078125 9.08203125 C10.88550333 13.42895048 10.84135871 17.00222059 9.08203125 21.1796875 C6.5150134 25.71558311 4.13162424 28.45083042 -1 30 C-6.06550143 30.6528134 -9.8075952 30.58536236 -14.4375 28.3125 C-17.83292707 25.24833411 -19.74881595 22.68134912 -20.43359375 18.09765625 C-20.44150672 11.94928199 -20.4465054 7.68685704 -16 3 C-11.48813465 -1.10169578 -5.75797366 -0.74514953 0 0 Z " fill="#FA7E5A" transform="translate(184,198)"/>
<path d="M0 0 C4.7955152 2.16022273 7.7387385 4.35814423 9.90234375 9.31640625 C10.65776666 14.59649765 10.56043032 18.86861579 8.33984375 23.75390625 C4.42539944 27.8690913 0.69805491 30.4794463 -5.09765625 30.81640625 C-9.46298392 30.54568825 -12.83623352 29.25581509 -16.09765625 26.31640625 C-19.88242239 21.27005139 -20.89581482 16.50213516 -20.09765625 10.31640625 C-15.92127031 2.2729963 -9.25721235 -3.01678242 0 0 Z " fill="#FB7F5A" transform="translate(139.09765625,436.68359375)"/>
<path d="M0 0 C3.30827171 2.2556398 6.01972669 4.23038175 7.75 7.875 C8.6583693 13.11194646 8.53816971 18.09614576 6.0625 22.875 C3.12849257 26.68127991 0.66059384 28.53921443 -4.1171875 29.37890625 C-13.23968406 29.55661722 -13.23968406 29.55661722 -17.375 26.125 C-20.81841284 22.73298139 -22.16616651 19.89776852 -22.5625 15.0625 C-22.39754053 10.13204484 -21.25655736 6.02837863 -17.80859375 2.328125 C-12.24682675 -2.26581711 -6.6419181 -2.2991255 0 0 Z " fill="#FB7F5A" transform="translate(404.25,43.125)"/>
<path d="M0 0 C4.7344316 1.91391916 7.72684393 5.45368786 10 10 C10.59106487 15.68331608 10.27243416 20.14777003 7 25 C2.29912755 29.34830701 -1.47486715 30.36856931 -7.71875 30.27734375 C-12.54383827 29.69073199 -15.20069827 26.8624045 -18.375 23.4375 C-20.68860114 18.54334374 -21.14733202 14.30922268 -20 9 C-14.77141382 0.47129319 -9.59048457 -0.76445891 0 0 Z " fill="#FB7F5A" transform="translate(407,438)"/>
<path d="M0 0 C3.3332049 2.2726397 6.05544029 4.17581221 7.75 7.875 C8.6409753 13.52300862 8.5227845 18.24356606 6.0625 23.4375 C2.96234806 26.70522772 0.35080825 28.61645762 -4.15234375 29.34375 C-13.35851682 29.43853685 -13.35851682 29.43853685 -16.8125 26.6875 C-21.0571174 21.78986454 -22.84731177 18.6759511 -22.59765625 12.15234375 C-21.82227482 7.0731598 -19.36266712 3.8841632 -15.5625 0.4375 C-10.16711043 -2.10749508 -5.59300528 -1.93604029 0 0 Z " fill="#FB7F5A" transform="translate(274.25,98.125)"/>
<path d="M0 0 C3.375 1.6875 3.375 1.6875 6 4 C6.78375 4.680625 7.5675 5.36125 8.375 6.0625 C10.89049937 10.60974886 10.73160041 14.92358902 10 20 C7.70203056 24.86108919 4.86108919 27.70203056 0 30 C-4.64475312 30.81388423 -8.97141887 31.11896824 -13.1953125 28.7890625 C-16.98423631 25.66597467 -19.62850041 22.61777619 -20.3359375 17.6328125 C-20.42531743 11.89462069 -20.01244424 8.43480679 -16 4 C-11.0689115 -0.46146102 -6.38623612 -1.02970257 0 0 Z " fill="#FB7F5A" transform="translate(460,96)"/>
<path d="M0 0 C4.05718804 0.3574615 5.920694 2.64193747 8.625 5.5 C11.50277024 8.66693163 11.50277024 8.66693163 15 11 C14.14496558 14.63614637 13.04324451 18.18308222 11.9375 21.75 C11.57527344 22.92046875 11.21304687 24.0909375 10.83984375 25.296875 C10.42412109 26.63492188 10.42412109 26.63492188 10 28 C5.82695612 23.87473906 1.77203447 19.64736857 -2.25 15.375 C-2.88679688 14.70726563 -3.52359375 14.03953125 -4.1796875 13.3515625 C-5.08847656 12.38476562 -5.08847656 12.38476562 -6.015625 11.3984375 C-6.56508789 10.81755371 -7.11455078 10.23666992 -7.68066406 9.63818359 C-9 8 -9 8 -10 5 C-9.36191406 4.72285156 -8.72382813 4.44570312 -8.06640625 4.16015625 C-7.24011719 3.79792969 -6.41382813 3.43570313 -5.5625 3.0625 C-4.73878906 2.70285156 -3.91507812 2.34320313 -3.06640625 1.97265625 C-1.05589883 1.16877677 -1.05589883 1.16877677 0 0 Z " fill="#B2E6FB" transform="translate(415,81)"/>
<path d="M0 0 C0.33 0 0.66 0 1 0 C1 3.96 1 7.92 1 12 C-8.31900959 16.64714536 -17.7279936 20.82671957 -27.5 24.4375 C-28.85955811 24.94990234 -28.85955811 24.94990234 -30.24658203 25.47265625 C-35.887068 27.51056269 -41.01510592 28.56816313 -47 29 C-45.41377003 25.82754006 -42.14396778 25.22664449 -39 23.9375 C-25.92379134 18.38351504 -12.09146754 12.01181738 -1 3 C-0.67 2.01 -0.34 1.02 0 0 Z " fill="#B0E4F8" transform="translate(371,450)"/>
<path d="M0 0 C7.5949422 0.43564062 14.20216005 2.48775318 21.35498047 5.01831055 C23.22851584 5.67991328 25.10839199 6.32347009 26.98828125 6.96679688 C35.25446066 9.84822535 43.12373606 13.1867437 51 17 C50.67 19.97 50.34 22.94 50 26 C49.505 25.01 49.505 25.01 49 24 C47.33977024 23.3174611 45.67129851 22.65496833 44 22 C41.5661138 20.64846412 39.15561539 19.2747007 36.75 17.875 C25.00473004 11.16478242 12.87344235 5.22627049 0 1 C0 0.67 0 0.34 0 0 Z " fill="#B0E4F8" transform="translate(317,31)"/>
</svg>
