<?xml version="1.0" encoding="UTF-8"?>
<svg version="1.1" xmlns="http://www.w3.org/2000/svg" width="200" height="200">
<path d="M0 0 C13.679034 11.67722415 22.99136723 27.93760559 24.55517578 46.02099609 C25.7171118 64.8660158 20.77035804 82.06384427 8.421875 96.640625 C7.74640625 97.39859375 7.0709375 98.1565625 6.375 98.9375 C5.78203125 99.61296875 5.1890625 100.2884375 4.578125 100.984375 C-0.7892412 106.7187406 -7.13016907 111.03353993 -13.54931641 115.48242188 C-18.24551543 118.77451152 -22.86295144 122.17867458 -27.49560547 125.55932617 C-38.76355651 133.73404049 -38.76355651 133.73404049 -45.90625 133.4609375 C-51.3112629 132.4203172 -55.28443732 129.17388446 -59.625 125.9375 C-60.24213867 125.48197754 -60.85927734 125.02645508 -61.49511719 124.55712891 C-64.93232001 122.01830501 -68.3491782 119.45452234 -71.75 116.8671875 C-75.00230452 114.39613617 -78.3004719 111.99834367 -81.625 109.625 C-83.29656937 108.40250897 -84.96371557 107.17393136 -86.625 105.9375 C-87.32882813 105.41414063 -88.03265625 104.89078125 -88.7578125 104.3515625 C-97.99171304 96.92823069 -104.56724756 85.94912623 -108.625 74.9375 C-108.94339844 74.08671875 -109.26179688 73.2359375 -109.58984375 72.359375 C-114.94101011 55.09754802 -112.3933091 36.2564791 -104.5625 20.3125 C-95.3069859 4.07579685 -79.8821729 -8.69451319 -61.875 -13.875 C-39.49743226 -19.32512395 -18.07978019 -14.20554158 0 0 Z M-81.9375 19.0625 C-91.39586521 30.49547173 -95.8704521 44.1699965 -94.625 58.9375 C-92.20576533 75.58752683 -84.25290418 86.93486808 -71.0625 96.8125 C-68.95353797 98.35797642 -66.83673838 99.89176679 -64.71484375 101.41943359 C-62.69586607 102.88602275 -60.70504139 104.38408003 -58.71875 105.89453125 C-57.5004034 106.80522743 -56.28167183 107.71540888 -55.0625 108.625 C-54.51585693 109.04700684 -53.96921387 109.46901367 -53.40600586 109.90380859 C-49.51995083 112.75108779 -46.45434254 113.96418145 -41.625 113.9375 C-38.97403935 112.71329233 -36.96482968 111.59600737 -34.625 109.9375 C-34.02719727 109.52419434 -33.42939453 109.11088867 -32.81347656 108.68505859 C-30.93732702 107.35898692 -29.09133108 105.99895301 -27.25 104.625 C-26.59660645 104.141521 -25.94321289 103.65804199 -25.27001953 103.15991211 C-20.33028187 99.49330901 -15.43938978 95.76757122 -10.625 91.9375 C-9.81546875 91.35097656 -9.0059375 90.76445312 -8.171875 90.16015625 C-5.17871523 87.54802756 -3.0990239 84.64497093 -1 81.3125 C-0.60683594 80.68859375 -0.21367187 80.0646875 0.19140625 79.421875 C7.0253538 68.23905173 8.71838923 55.71034404 6.3125 42.8125 C2.38835583 26.91971611 -5.97925118 16.62574155 -19.625 7.9375 C-41.09086227 -2.10742273 -65.36188395 1.94498881 -81.9375 19.0625 Z " fill="#159bc1" transform="translate(143.625,41.0625)"/>
<path d="M0 0 C8.27070118 5.85383594 13.54180329 12.62615497 15.74609375 22.64453125 C17.00100365 34.74544814 15.10782576 44.31598356 7.43359375 53.83203125 C1.21405925 60.51227201 -6.4898888 64.98846422 -15.6171875 66.02734375 C-26.33253778 66.37866671 -34.41191401 64.41169719 -42.62890625 57.39453125 C-50.37643624 49.86800845 -55.17737972 41.2007208 -55.62890625 30.20703125 C-55.13842536 18.63985704 -50.72066489 10.67901347 -42.44140625 2.89453125 C-30.13103677 -7.45468532 -13.68864518 -8.23216617 0 0 Z " fill="#159bc1" transform="translate(119.25390625,65.35546875)"/>
<path d="M0 0 C0.66 0.33 1.32 0.66 2 1 C0.13816411 3.19039517 -1.48608135 4.25792072 -4.0625 5.625 C-16.15587375 12.36054994 -25.76826729 23.915037 -30 37 C-29.34 37.33 -28.68 37.66 -28 38 C-28.33 38.66 -28.66 39.32 -29 40 C-29.0396713 41.66619446 -29.04384447 43.33391013 -29 45 C-29.66 45 -30.32 45 -31 45 C-31 45.66 -31 46.32 -31 47 C-30.34 47.33 -29.68 47.66 -29 48 C-29.185625 48.886875 -29.37125 49.77375 -29.5625 50.6875 C-29.98817116 53.91043878 -29.81672186 55.89645694 -29 59 C-28.814375 59.763125 -28.62875 60.52625 -28.4375 61.3125 C-28.293125 61.869375 -28.14875 62.42625 -28 63 C-26.515 62.505 -26.515 62.505 -25 62 C-24.34 62.99 -23.68 63.98 -23 65 C-22.99742188 64.3915625 -22.99484375 63.783125 -22.9921875 63.15625 C-22.32725325 48.08440689 -15.51616563 33.77801901 -4.6796875 23.375 C-2.60485091 21.67652912 -0.58363605 20.70462801 2 20 C1.319375 20.66 0.63875 21.32 -0.0625 22 C-1.04381064 22.99789618 -2.02274636 23.9981304 -3 25 C-3.81404297 25.80244141 -3.81404297 25.80244141 -4.64453125 26.62109375 C-14.6651019 37.13929996 -19.59210524 50.65131672 -19.24609375 65.08203125 C-18.08972141 78.79330328 -12.7685881 91.40713616 -2.24291992 100.52148438 C-0.35706209 101.99547667 1.55810907 103.41320673 3.5 104.8125 C4.54015259 105.57300659 4.54015259 105.57300659 5.60131836 106.34887695 C7.02973172 107.39128538 8.46064316 108.43027937 9.89404297 109.46582031 C11.91843129 110.94057758 13.91649496 112.44500356 15.91015625 113.9609375 C17.12717808 114.87036215 18.34460638 115.77924318 19.5625 116.6875 C20.1090625 117.10942627 20.655625 117.53135254 21.21875 117.96606445 C25.1048245 120.81351666 28.17053813 122.02668211 33 122 C35.65096065 120.77579233 37.66017032 119.65850737 40 118 C40.59780273 117.58669434 41.19560547 117.17338867 41.81152344 116.74755859 C43.68767987 115.42148205 45.53377596 114.06161195 47.375 112.6875 C48.02839355 112.2032959 48.68178711 111.7190918 49.35498047 111.22021484 C51.24074128 109.81884397 53.1214384 108.41100156 55 107 C55.92296875 106.30777344 56.8459375 105.61554688 57.796875 104.90234375 C63.97735372 100.18402526 69.09922686 95.02094985 74 89 C74.33 89.66 74.66 90.32 75 91 C73.6875 93.625 73.6875 93.625 72 96 C71.34 96 70.68 96 70 96 C69.34 97.65 68.68 99.3 68 101 C69.98 101 71.96 101 74 101 C74.33 101.66 74.66 102.32 75 103 C74.05125 103.391875 73.1025 103.78375 72.125 104.1875 C68.65872662 106.19793856 68.0197307 107.22699642 67 111 C69.85168354 112.27994848 69.85168354 112.27994848 72.125 111.3125 C72.74375 110.879375 73.3625 110.44625 74 110 C74.10957031 109.34902344 74.21914062 108.69804687 74.33203125 108.02734375 C75 106 75 106 77.06640625 104.953125 C77.89011719 104.72109375 78.71382813 104.4890625 79.5625 104.25 C80.38878906 104.00765625 81.21507812 103.7653125 82.06640625 103.515625 C82.70449219 103.34546875 83.34257812 103.1753125 84 103 C79.72250569 112.73348195 69.51905052 118.72386453 61.05957031 124.56103516 C56.36427947 127.84150508 51.75573014 131.24571915 47.12915039 134.62207031 C35.86108087 142.79652662 35.86108087 142.79652662 28.71875 142.5234375 C23.3137371 141.4828172 19.34056268 138.23638446 15 135 C14.38286133 134.54447754 13.76572266 134.08895508 13.12988281 133.61962891 C9.69267999 131.08080501 6.2758218 128.51702234 2.875 125.9296875 C-0.37730452 123.45863617 -3.6754719 121.06084367 -7 118.6875 C-8.67156937 117.46500897 -10.33871557 116.23643136 -12 115 C-12.70382813 114.47664063 -13.40765625 113.95328125 -14.1328125 113.4140625 C-23.36671304 105.99073069 -29.94224756 95.01162623 -34 84 C-34.31839844 83.14921875 -34.63679688 82.2984375 -34.96484375 81.421875 C-40.31601011 64.16004802 -37.7683091 45.3189791 -29.9375 29.375 C-23.11473726 17.4060081 -12.24001052 6.40656069 0 0 Z " fill="#159bc1" transform="translate(69,32)"/>
<path d="M0 0 C0.495 0.99 0.495 0.99 1 2 C-0.3125 4.625 -0.3125 4.625 -2 7 C-2.66 7 -3.32 7 -4 7 C-4.66 8.65 -5.32 10.3 -6 12 C-4.02 12 -2.04 12 0 12 C0.495 12.99 0.495 12.99 1 14 C0.05125 14.391875 -0.8975 14.78375 -1.875 15.1875 C-5.34127338 17.19793856 -5.9802693 18.22699642 -7 22 C-4.14831646 23.27994848 -4.14831646 23.27994848 -1.875 22.3125 C-1.25625 21.879375 -0.6375 21.44625 0 21 C0.16435547 20.02353516 0.16435547 20.02353516 0.33203125 19.02734375 C1 17 1 17 3.06640625 15.953125 C3.89011719 15.72109375 4.71382813 15.4890625 5.5625 15.25 C6.38878906 15.00765625 7.21507812 14.7653125 8.06640625 14.515625 C8.70449219 14.34546875 9.34257812 14.1753125 10 14 C8.48728816 17.52429674 6.42985546 19.89956877 3.75 22.625 C3.00234375 23.40101563 2.2546875 24.17703125 1.484375 24.9765625 C-1.27120739 27.22088903 -3.61416914 28.01401629 -7 29 C-8.35113205 29.97581759 -9.68946944 30.97029741 -11 32 C-11.66 32 -12.32 32 -13 32 C-13.495 32.99 -13.495 32.99 -14 34 C-15.27776482 35.08399389 -16.59612571 36.12078851 -17.9375 37.125 C-18.64777344 37.66382813 -19.35804687 38.20265625 -20.08984375 38.7578125 C-22 40 -22 40 -24 40 C-24 40.66 -24 41.32 -24 42 C-26.89459078 44.22143013 -29.12837159 45.84152211 -32.75 46.5 C-33.86375 46.7475 -33.86375 46.7475 -35 47 C-36.22527948 48.95021083 -36.22527948 48.95021083 -37 51 C-40.28910891 52.64455446 -43.45916902 52.64763917 -47 52 C-50.24900277 50.3179699 -53.08332806 48.19697367 -56 46 C-57.6396875 44.948125 -57.6396875 44.948125 -59.3125 43.875 C-62 42 -62 42 -63.9375 40 C-66.17079311 37.83438244 -68.55068953 36.54175502 -71.2734375 35.0703125 C-73.88772797 33.449689 -75.83214393 31.16785607 -78 29 C-81.16645474 27.20679176 -81.16645474 27.20679176 -84 26 C-83.34 25.67 -82.68 25.34 -82 25 C-81.01 25.33 -80.02 25.66 -79 26 C-78.319375 24.329375 -78.319375 24.329375 -77.625 22.625 C-76 19 -76 19 -74 17 C-72.125 17.0625 -72.125 17.0625 -70 18 C-66 22.33333333 -66 22.33333333 -66 25 C-66.99 25 -67.98 25 -69 25 C-69 26.32 -69 27.64 -69 29 C-68.01 28.67 -67.02 28.34 -66 28 C-65.67 27.01 -65.34 26.02 -65 25 C-51.89693593 29.18941504 -51.89693593 29.18941504 -47 32.25 C-43.77037828 33.46110815 -41.32877822 32.7335769 -38 32 C-34.84115885 30.06221001 -34.84115885 30.06221001 -31.875 27.5 C-30.74839537 26.58699631 -29.61941868 25.6769131 -28.48828125 24.76953125 C-27.9154541 24.30756348 -27.34262695 23.8455957 -26.75244141 23.36962891 C-22.96987805 20.41334854 -18.95190582 17.78680886 -14.97265625 15.10546875 C-10.25775373 11.76600429 -6.00873161 8.44083726 -2.625 3.6875 C-1.87089844 2.64142578 -1.87089844 2.64142578 -1.1015625 1.57421875 C-0.73804688 1.05472656 -0.37453125 0.53523438 0 0 Z " fill="#159bc1" transform="translate(143,121)"/>
<path d="M0 0 C0.33 0 0.66 0 1 0 C1.14695313 0.73863281 1.29390625 1.47726563 1.4453125 2.23828125 C4.70161146 16.966484 11.74576716 27.34100401 23.875 36.0625 C25.2265625 37.05338542 26.578125 38.04427083 27.9296875 39.03515625 C28.92307129 39.75662842 28.92307129 39.75662842 29.93652344 40.49267578 C33.31620111 42.96145595 36.65780792 45.48081854 40 48 C35.97353778 48 32.58987802 46.79493901 29 45 C28.67 46.32 28.34 47.64 28 49 C27.01 49 26.02 49 25 49 C25 47.68 25 46.36 25 45 C25.99 45 26.98 45 28 45 C26.35 42.69 24.7 40.38 23 38 C21.02 38.495 21.02 38.495 19 39 C17.89363605 41.39068734 17.89363605 41.39068734 17 44 C15.375 45.8125 15.375 45.8125 14 47 C14.99 47.66 15.98 48.32 17 49 C19.01214632 50.78903359 20.99008396 52.61123388 22.96484375 54.44140625 C25.03705576 56.02837859 26.45147304 56.58379761 29 57 C29 57.66 29 58.32 29 59 C29.99 59.33 30.98 59.66 32 60 C32 60.66 32 61.32 32 62 C32.721875 62.2475 33.44375 62.495 34.1875 62.75 C37.26894735 64.11953215 39.4060245 65.85997022 42 68 C46.46332856 71.37765405 49.55380086 71.60513324 55 71 C57.22931824 69.18739868 57.22931824 69.18739868 59 67 C60.65204456 66.29788106 62.31923769 65.63028587 64 65 C65.33790641 64.00612666 66.67218122 63.0073108 68 62 C68.66 62 69.32 62 70 62 C70 61.34 70 60.68 70 60 C71.64453125 58.81640625 71.64453125 58.81640625 73.8125 57.5625 C76.61389908 55.93472895 78.75630618 54.32790753 81 52 C82.14321608 51.05424851 83.3105343 50.13688232 84.5 49.25 C85.0878125 48.80140625 85.675625 48.3528125 86.28125 47.890625 C87.13203125 47.44976562 87.13203125 47.44976562 88 47 C89.485 47.495 89.485 47.495 91 48 C86.50406448 51.44171615 81.98126046 54.84333605 77.42626953 58.20654297 C75.79307841 59.41376998 74.16390502 60.62644927 72.53857422 61.84423828 C70.08499614 63.67174091 67.60876994 65.46382062 65.125 67.25 C64.36598389 67.82258545 63.60696777 68.3951709 62.82495117 68.98510742 C57.25382008 72.92139658 52.79229453 74.12483858 46 73 C43.1796875 71.890625 43.1796875 71.890625 40.875 70.25 C39.96492188 69.61449219 39.05484375 68.97898437 38.1171875 68.32421875 C37.08851562 67.55722656 36.05984375 66.79023438 35 66 C34.38286133 65.54447754 33.76572266 65.08895508 33.12988281 64.61962891 C29.69267999 62.08080501 26.2758218 59.51702234 22.875 56.9296875 C19.62269548 54.45863617 16.3245281 52.06084367 13 49.6875 C0.43441069 40.57128815 0.43441069 40.57128815 -2 35 C-1.4225 35.309375 -0.845 35.61875 -0.25 35.9375 C1.84294184 36.92583364 3.74535275 37.5168613 6 38 C6.12375 37.4225 6.2475 36.845 6.375 36.25 C7 34 7 34 8.0625 32.0625 C9.25169131 29.44627913 9.42687526 27.84583507 9 25 C8.38769531 24.39542969 7.77539062 23.79085937 7.14453125 23.16796875 C1.34828168 17.30837219 -0.7412355 9.02169954 -1 1 C-0.67 0.67 -0.34 0.34 0 0 Z " fill="#159bc1" transform="translate(49,101)"/>
<path d="M0 0 C12.06748813 11.32163704 21.05585381 27.18855162 21.92822266 43.97705078 C22.05311014 48.90655268 21.97183984 53.82226787 21.8125 58.75 C21.1525 58.75 20.4925 58.75 19.8125 58.75 C18.8225 51.82 18.8225 51.82 17.8125 44.75 C16.3275 45.245 16.3275 45.245 14.8125 45.75 C14.82410156 44.96753906 14.83570313 44.18507812 14.84765625 43.37890625 C14.85667969 42.36699219 14.86570312 41.35507813 14.875 40.3125 C14.88660156 39.30316406 14.89820313 38.29382813 14.91015625 37.25390625 C15.09862676 34.80978933 15.09862676 34.80978933 13.8125 33.75 C13.73991054 31.56360547 13.72876217 29.37499611 13.75 27.1875 C13.75902344 25.98996094 13.76804687 24.79242188 13.77734375 23.55859375 C13.78894531 22.63175781 13.80054688 21.70492187 13.8125 20.75 C13.1525 20.75 12.4925 20.75 11.8125 20.75 C11.1525 18.44 10.4925 16.13 9.8125 13.75 C9.1525 13.75 8.4925 13.75 7.8125 13.75 C7.8125 13.09 7.8125 12.43 7.8125 11.75 C6.1625 11.09 4.5125 10.43 2.8125 9.75 C2.8125 10.41 2.8125 11.07 2.8125 11.75 C1.1625 11.42 -0.4875 11.09 -2.1875 10.75 C-1.5275 8.77 -0.8675 6.79 -0.1875 4.75 C-3.51284757 3.64155081 -5.80932575 3.90545644 -9.1875 4.75 C-9.8475 2.11 -10.5075 -0.53 -11.1875 -3.25 C-13.4975 -3.25 -15.8075 -3.25 -18.1875 -3.25 C-18.1875 -4.24 -18.1875 -5.23 -18.1875 -6.25 C-17.5275 -6.25 -16.8675 -6.25 -16.1875 -6.25 C-18.61562184 -9.18297885 -20.53724743 -9.77352315 -24.25 -10.375 C-29.04180464 -11.17715232 -29.04180464 -11.17715232 -31.1875 -12.25 C-31.1875 -12.91 -31.1875 -13.57 -31.1875 -14.25 C-36.30850656 -15.08786102 -41.25080219 -15.44339598 -46.4375 -15.4375 C-47.55185425 -15.4362915 -47.55185425 -15.4362915 -48.6887207 -15.43505859 C-56.84794285 -15.34486236 -64.52472834 -14.14942712 -72.1875 -11.25 C-72.1875 -11.91 -72.1875 -12.57 -72.1875 -13.25 C-45.84577031 -21.88334129 -21.54937382 -18.39580692 0 0 Z " fill="#159bc1" transform="translate(146.1875,43.25)"/>
<path d="M0 0 C0.99 0.33 1.98 0.66 3 1 C3 5.66666667 3 10.33333333 3 15 C2.34 15 1.68 15 1 15 C1 15.99 1 16.98 1 18 C1.66 18.66 2.32 19.32 3 20 C4.44525547 28.1459854 4.44525547 28.1459854 3 32 C3.94875 31.938125 4.8975 31.87625 5.875 31.8125 C6.90625 31.874375 7.9375 31.93625 9 32 C9.66 32.99 10.32 33.98 11 35 C10.34 35 9.68 35 9 35 C10.08784968 38.24983135 10.08784968 38.24983135 12 41 C12.763125 40.9175 13.52625 40.835 14.3125 40.75 C17 41 17 41 19.3125 43.375 C21 46 21 46 21 48 C29.2786707 48.21472057 36.9582234 48.06315242 45 46 C45.75023437 45.81308594 46.50046875 45.62617187 47.2734375 45.43359375 C47.84320313 45.29050781 48.41296875 45.14742187 49 45 C49 44.34 49 43.68 49 43 C50.64556566 41.96564444 52.3170608 40.97236487 54 40 C55.68477344 38.68962066 57.35648543 37.36176922 59 36 C55.58750255 43.55624434 48.81845403 47.18285651 41.3125 50.08203125 C31.76378372 52.72819673 21.67461854 51.85830738 13 47 C5.84101064 41.77947624 0.93178045 35.8635609 -3 28 C-3.26648583 24.79813244 -3.23162107 21.58671838 -3.25 18.375 C-3.270625 17.49714844 -3.29125 16.61929688 -3.3125 15.71484375 C-3.34781714 9.7727343 -2.40839124 5.4378939 0 0 Z " fill="#159bc1" transform="translate(69,80)"/>
<path d="M0 0 C1.875 0.0625 1.875 0.0625 4 1 C8 5.33333333 8 5.33333333 8 8 C7.01 8 6.02 8 5 8 C5 9.32 5 10.64 5 12 C5.99 11.67 6.98 11.34 8 11 C8.33 10.01 8.66 9.02 9 8 C15.56671779 9.73288386 21.08847838 12.18871351 26 17 C26.495 18.485 26.495 18.485 27 20 C25.9275 20.28875 24.855 20.5775 23.75 20.875 C20.18100741 21.7982687 20.18100741 21.7982687 17.875 23.1875 C15.2338383 24.3320034 13.76028347 23.740076 11 23 C5.15824109 20.11563154 0.53538907 16.6613721 -4 12 C-7.16645474 10.20679176 -7.16645474 10.20679176 -10 9 C-9.34 8.67 -8.68 8.34 -8 8 C-7.01 8.33 -6.02 8.66 -5 9 C-4.319375 7.329375 -4.319375 7.329375 -3.625 5.625 C-2 2 -2 2 0 0 Z " fill="#159bc1" transform="translate(69,138)"/>
<path d="M0 0 C0.33 0.66 0.66 1.32 1 2 C-0.3125 4.625 -0.3125 4.625 -2 7 C-2.66 7 -3.32 7 -4 7 C-4.66 8.65 -5.32 10.3 -6 12 C-4.02 12 -2.04 12 0 12 C0.33 12.66 0.66 13.32 1 14 C0.05125 14.391875 -0.8975 14.78375 -1.875 15.1875 C-5.34127338 17.19793856 -5.9802693 18.22699642 -7 22 C-4.14831646 23.27994848 -4.14831646 23.27994848 -1.875 22.3125 C-1.25625 21.879375 -0.6375 21.44625 0 21 C0.10957031 20.34902344 0.21914062 19.69804687 0.33203125 19.02734375 C1 17 1 17 3.06640625 15.953125 C3.89011719 15.72109375 4.71382812 15.4890625 5.5625 15.25 C6.38878906 15.00765625 7.21507812 14.7653125 8.06640625 14.515625 C9.02353516 14.26039063 9.02353516 14.26039063 10 14 C8.48728816 17.52429674 6.42985546 19.89956877 3.75 22.625 C3.00234375 23.40101563 2.2546875 24.17703125 1.484375 24.9765625 C-1.27120739 27.22088903 -3.61416914 28.01401629 -7 29 C-8.35113205 29.97581759 -9.68946944 30.97029741 -11 32 C-11.66 32 -12.32 32 -13 32 C-13.33 32.66 -13.66 33.32 -14 34 C-15.97485205 35.3703055 -17.97386717 36.70672372 -20 38 C-20.33 36.35 -20.66 34.7 -21 33 C-20.401875 32.938125 -19.80375 32.87625 -19.1875 32.8125 C-16.76917131 32.1357984 -16.76917131 32.1357984 -15.1875 29.625 C-13.63092075 26.97534708 -13.63092075 26.97534708 -15 24 C-20.82271337 23.40279863 -24.9209404 25.471757 -30 28 C-28.86949986 24.60849959 -28.24391826 24.1972218 -25.39453125 22.2578125 C-24.65783203 21.74863281 -23.92113281 21.23945313 -23.16210938 20.71484375 C-22.38673828 20.19019531 -21.61136719 19.66554687 -20.8125 19.125 C-10.76191579 12.46260743 -10.76191579 12.46260743 -2.625 3.6875 C-2.12226563 2.99011719 -1.61953125 2.29273437 -1.1015625 1.57421875 C-0.73804688 1.05472656 -0.37453125 0.53523438 0 0 Z " fill="#159bc1" transform="translate(143,121)"/>
<path d="M0 0 C10.76967281 -0.74991919 19.78052695 1.44265712 28.22265625 8.3828125 C35.48148527 14.98754924 39.3525275 21.75651519 40.3828125 31.69140625 C40.65787794 40.7777347 39.70447215 48.42388735 33.875 55.625 C32 57 32 57 30 57 C30 55.68 30 54.36 30 53 C30.99 52.505 30.99 52.505 32 52 C32.75407101 49.69342986 33.411438 47.354248 34 45 C34.226875 44.0925 34.45375 43.185 34.6875 42.25 C35.19222861 39.83713587 35.19222861 39.83713587 34 37 C34.99 36.34 35.98 35.68 37 35 C37.2502157 31.91634129 37.2502157 31.91634129 37 29 C36.01 28.67 35.02 28.34 34 28 C33.95875 26.906875 33.9175 25.81375 33.875 24.6875 C33.58625 23.470625 33.2975 22.25375 33 21 C30.08333333 19.33333333 30.08333333 19.33333333 27 18 C25.625 15.3125 25.625 15.3125 25 13 C25.66 13 26.32 13 27 13 C27 12.34 27 11.68 27 11 C25.02 11.33 23.04 11.66 21 12 C21 11.34 21 10.68 21 10 C20.01 9.67 19.02 9.34 18 9 C17.33333333 7.33333333 16.66666667 5.66666667 16 4 C12.68455701 2.89485234 9.79589889 2.67892369 6.3125 2.4375 C5.13300781 2.35371094 3.95351562 2.26992188 2.73828125 2.18359375 C1.83464844 2.12300781 0.93101563 2.06242187 0 2 C0 1.34 0 0.68 0 0 Z " fill="#159bc1" transform="translate(95,60)"/>
<path d="M0 0 C16.66571862 7.61741179 27.53635273 22.25327752 34 39 C37.32041801 48.9737368 37.33541826 58.62687971 37 69 C36.34 69 35.68 69 35 69 C34.34 64.38 33.68 59.76 33 55 C31.515 55.495 31.515 55.495 30 56 C30.01160156 55.21753906 30.02320313 54.43507812 30.03515625 53.62890625 C30.04417969 52.61699219 30.05320313 51.60507813 30.0625 50.5625 C30.07410156 49.55316406 30.08570313 48.54382813 30.09765625 47.50390625 C30.28612676 45.05978933 30.28612676 45.05978933 29 44 C28.92741054 41.81360547 28.91626217 39.62499611 28.9375 37.4375 C28.94652344 36.23996094 28.95554688 35.04242188 28.96484375 33.80859375 C28.97644531 32.88175781 28.98804688 31.95492187 29 31 C28.34 31 27.68 31 27 31 C26.34 28.69 25.68 26.38 25 24 C24.34 24 23.68 24 23 24 C22.484375 22.96875 21.96875 21.9375 21.4375 20.875 C19.34804592 17.15622433 16.75029952 14.83793975 13.390625 12.26171875 C12.93171875 11.84535156 12.4728125 11.42898437 12 11 C12 10.34 12 9.68 12 9 C10.9790625 8.6596875 10.9790625 8.6596875 9.9375 8.3125 C6.3011291 6.68773854 2.97170737 4.67196743 0 2 C0 1.34 0 0.68 0 0 Z " fill="#159bc1" transform="translate(131,33)"/>
<path d="M0 0 C0.66 0.33 1.32 0.66 2 1 C0.13816411 3.19039517 -1.48608135 4.25792072 -4.0625 5.625 C-16.76350259 12.69897612 -25.73691789 24.73223027 -31 38 C-31.30808594 38.69996094 -31.61617187 39.39992187 -31.93359375 40.12109375 C-34.12941318 45.34273135 -34.73673943 50.36781935 -35 56 C-35.05285156 57.01320312 -35.10570312 58.02640625 -35.16015625 59.0703125 C-35.51289361 71.79953039 -32.13227553 82.48202192 -27 94 C-26.68160156 94.9178125 -26.36320312 95.835625 -26.03515625 96.78125 C-25.69355469 97.5134375 -25.35195313 98.245625 -25 99 C-24.01 99.33 -23.02 99.66 -22 100 C-22.33 101.32 -22.66 102.64 -23 104 C-34.96369161 86.48543131 -39.52354747 68.95009081 -36.71142578 47.83300781 C-33.10433526 28.80500012 -20.40848834 13.91215471 -5 3 C-2.3359375 1.22265625 -2.3359375 1.22265625 0 0 Z " fill="#159bc1" transform="translate(69,32)"/>
<path d="M0 0 C0.66 0 1.32 0 2 0 C2.8353125 0.86625 2.8353125 0.86625 3.6875 1.75 C6.02839375 4.02762635 8.40566074 5.38189424 11.265625 6.921875 C13.88132372 8.54784988 15.83051804 10.83051804 18 13 C20.17346568 13.86119134 20.17346568 13.86119134 22 14 C22 14.66 22 15.32 22 16 C22.99 16.33 23.98 16.66 25 17 C25 17.66 25 18.32 25 19 C25.721875 19.2475 26.44375 19.495 27.1875 19.75 C30.26894735 21.11953215 32.4060245 22.85997022 35 25 C39.46332856 28.37765405 42.55380086 28.60513324 48 28 C50.22931824 26.18739868 50.22931824 26.18739868 52 24 C53.65204456 23.29788106 55.31923769 22.63028587 57 22 C58.33790641 21.00612666 59.67218122 20.0073108 61 19 C61.66 19 62.32 19 63 19 C63 18.34 63 17.68 63 17 C64.64453125 15.81640625 64.64453125 15.81640625 66.8125 14.5625 C69.61389908 12.93472895 71.75630618 11.32790753 74 9 C75.14321608 8.05424851 76.3105343 7.13688232 77.5 6.25 C78.38171875 5.57710937 78.38171875 5.57710937 79.28125 4.890625 C80.13203125 4.44976562 80.13203125 4.44976562 81 4 C81.99 4.33 82.98 4.66 84 5 C79.50406448 8.44171615 74.98126046 11.84333605 70.42626953 15.20654297 C68.79307841 16.41376998 67.16390502 17.62644927 65.53857422 18.84423828 C63.08499614 20.67174091 60.60876994 22.46382062 58.125 24.25 C57.36598389 24.82258545 56.60696777 25.3951709 55.82495117 25.98510742 C50.25382008 29.92139658 45.79229453 31.12483858 39 30 C36.1796875 28.890625 36.1796875 28.890625 33.875 27.25 C32.96492188 26.61449219 32.05484375 25.97898438 31.1171875 25.32421875 C30.08851562 24.55722656 29.05984375 23.79023438 28 23 C27.38286133 22.54447754 26.76572266 22.08895508 26.12988281 21.61962891 C22.70098648 19.08694045 19.29312537 16.52878454 15.90234375 13.9453125 C11.6612491 10.7216233 7.32005058 7.65547469 2.94140625 4.62109375 C1 3 1 3 0 0 Z " fill="#159bc1" transform="translate(56,144)"/>
<path d="M0 0 C0.99 0.33 1.98 0.66 3 1 C3.33 2.65 3.66 4.3 4 6 C4.33 5.34 4.66 4.68 5 4 C5.66 4.33 6.32 4.66 7 5 C7 4.34 7 3.68 7 3 C8.65 3.33 10.3 3.66 12 4 C11.52787836 8.09172092 11.05040767 11.41178658 9 15 C8.67 15.99 8.34 16.98 8 18 C4.64599451 17.40107045 2.50144503 16.32893158 0 14 C-0.3721042 12.67696283 -0.70630173 11.34262065 -1 10 C-2.47890069 8.26973898 -2.47890069 8.26973898 -4 7 C-2.68 4.69 -1.36 2.38 0 0 Z " fill="#159bc1" transform="translate(47,122)"/>
<path d="M0 0 C0.33 2.31 0.66 4.62 1 7 C0.01 7.495 0.01 7.495 -1 8 C-1.66 6.68 -2.32 5.36 -3 4 C-3.639375 4.495 -4.27875 4.99 -4.9375 5.5 C-7 7 -7 7 -8 7 C-8.99 9.97 -9.98 12.94 -11 16 C-12.32 16 -13.64 16 -15 16 C-15 18.31 -15 20.62 -15 23 C-16.3921875 23.680625 -16.3921875 23.680625 -17.8125 24.375 C-21.03921389 25.9421633 -21.03921389 25.9421633 -24 28 C-21.39260264 16.75559889 -13.39804971 8.55035924 -5 1 C-3 0 -3 0 0 0 Z " fill="#159bc1" transform="translate(63,40)"/>
<path d="M0 0 C1.61648437 0.12955078 1.61648437 0.12955078 3.265625 0.26171875 C14.17235057 1.94070976 23.33151512 9.33151512 31 17 C26.90349981 17 25.64892807 15.31886237 22.5 12.75 C10.86164236 3.59779973 -2.55710132 1.70252159 -17 3 C-22.77129063 4.22018269 -28.07160985 5.71440656 -33 9 C-35.1875 8.625 -35.1875 8.625 -37 8 C-34 6 -34 6 -31 6 C-31 5.34 -31 4.68 -31 4 C-20.52901667 0.91787087 -11.0186337 -0.90218071 0 0 Z " fill="#159bc1" transform="translate(108,42)"/>
<path d="M0 0 C0.99 0.33 1.98 0.66 3 1 C6.91771039 9.41582233 7.49118123 19.03527507 5.23828125 28.046875 C3.60209945 32.41864929 1.85867441 36.17030543 -2 39 C-2.66 39 -3.32 39 -4 39 C-4 37.68 -4 36.36 -4 35 C-3.01 34.505 -3.01 34.505 -2 34 C-1.24592899 31.69342986 -0.588562 29.354248 0 27 C0.226875 26.0925 0.45375 25.185 0.6875 24.25 C1.19222861 21.83713587 1.19222861 21.83713587 0 19 C0.99 18.34 1.98 17.68 3 17 C4.15991705 10.77966054 2.86889223 5.49871011 0 0 Z " fill="#159bc1" transform="translate(129,78)"/>
<path d="M0 0 C0.99 0.33 1.98 0.66 3 1 C3 5.66666667 3 10.33333333 3 15 C2.34 15 1.68 15 1 15 C1 18.3 1 21.6 1 25 C-0.32 25.33 -1.64 25.66 -3 26 C-3.08174796 23.16607074 -3.14084985 20.33455181 -3.1875 17.5 C-3.21263672 16.70851563 -3.23777344 15.91703125 -3.26367188 15.1015625 C-3.33403498 9.37869682 -2.29297398 5.24796143 0 0 Z " fill="#159bc1" transform="translate(69,80)"/>
<path d="M0 0 C0.66 0.33 1.32 0.66 2 1 C1.3709375 1.48726562 0.741875 1.97453125 0.09375 2.4765625 C-13.02242459 13.34086375 -18.05799058 26.54570572 -19.6875 43.3125 C-19.8011289 44.87434039 -19.90914512 46.43666947 -20 48 C-20.66 48 -21.32 48 -22 48 C-23.20938097 33.66659589 -19.29763107 20.18477401 -10 9 C-6.89059727 5.55839612 -3.86586926 2.57724617 0 0 Z " fill="#159bc1" transform="translate(69,52)"/>
<path d="M0 0 C16.57980375 7.57814263 27.6681563 22.25673545 34 39 C34.3897043 40.98978433 34.74110005 42.98900971 35 45 C32.3522659 43.67613295 32.0592562 42.36742791 30.875 39.6875 C30.52179688 38.90761719 30.16859375 38.12773438 29.8046875 37.32421875 C29 35 29 35 29 31 C28.34 31 27.68 31 27 31 C26.34 28.69 25.68 26.38 25 24 C24.34 24 23.68 24 23 24 C22.484375 22.96875 21.96875 21.9375 21.4375 20.875 C19.34804592 17.15622433 16.75029952 14.83793975 13.390625 12.26171875 C12.93171875 11.84535156 12.4728125 11.42898437 12 11 C12 10.34 12 9.68 12 9 C10.9790625 8.6596875 10.9790625 8.6596875 9.9375 8.3125 C6.3011291 6.68773854 2.97170737 4.67196743 0 2 C0 1.34 0 0.68 0 0 Z " fill="#159bc1" transform="translate(131,33)"/>
<path d="M0 0 C0.33 0.66 0.66 1.32 1 2 C-0.3125 4.625 -0.3125 4.625 -2 7 C-2.66 7 -3.32 7 -4 7 C-4.66 8.65 -5.32 10.3 -6 12 C-4.02 12 -2.04 12 0 12 C0.33 12.66 0.66 13.32 1 14 C-0.60875 14.2165625 -0.60875 14.2165625 -2.25 14.4375 C-12.51429207 15.97714381 -20.7944307 21.84582303 -29 28 C-29 27.01 -29 26.02 -29 25 C-27.53466797 23.63720703 -27.53466797 23.63720703 -25.4921875 22.2578125 C-24.75226563 21.74863281 -24.01234375 21.23945313 -23.25 20.71484375 C-22.46625 20.19019531 -21.6825 19.66554687 -20.875 19.125 C-10.7846344 12.47660141 -10.7846344 12.47660141 -2.625 3.6875 C-2.12226563 2.99011719 -1.61953125 2.29273437 -1.1015625 1.57421875 C-0.73804688 1.05472656 -0.37453125 0.53523438 0 0 Z " fill="#159bc1" transform="translate(143,121)"/>
<path d="M0 0 C0.33 0.66 0.66 1.32 1 2 C-0.23363281 2.38478516 -0.23363281 2.38478516 -1.4921875 2.77734375 C-11.27433066 6.13218961 -19.62130985 10.85365028 -24.5625 20.3125 C-26.13938216 24.35754555 -27.08731797 27.78942452 -27.31640625 32.109375 C-27.35830078 32.86347656 -27.40019531 33.61757812 -27.44335938 34.39453125 C-27.50233398 35.56048828 -27.50233398 35.56048828 -27.5625 36.75 C-27.60568359 37.54277344 -27.64886719 38.33554688 -27.69335938 39.15234375 C-27.79902991 41.10137815 -27.89997966 43.05066748 -28 45 C-28.33 45 -28.66 45 -29 45 C-31.34574619 35.91023351 -30.37271701 25.99944365 -25.74609375 17.76953125 C-19.26967205 8.64607071 -10.94073483 2.51341206 0 0 Z " fill="#159bc1" transform="translate(94,60)"/>
<path d="M0 0 C0 3 0 3 -1.328125 4.6484375 C-9.96512675 12.40769517 -18.93005875 15.86068951 -30.578125 15.43359375 C-35.68896919 14.78598678 -40.44054554 13.42580684 -45 11 C-45.33 10.34 -45.66 9.68 -46 9 C-43.1854239 9.51174111 -40.5900489 10.13938338 -37.875 11.0625 C-27.98678322 13.45481051 -18.66223558 11.44307095 -9 9 C-9 8.34 -9 7.68 -9 7 C-7.34151823 5.98648336 -5.67334039 4.98879205 -4 4 C-2.63015802 2.70420353 -1.2848951 1.38007251 0 0 Z " fill="#159bc1" transform="translate(127,116)"/>
<path d="M0 0 C0.33 0 0.66 0 1 0 C1.14695313 0.73863281 1.29390625 1.47726563 1.4453125 2.23828125 C4.4714493 15.92546321 11.12647034 25.41686827 21 35 C17.40226949 33.6637001 14.10960484 32.2691711 11 30 C10.28272222 28.35448038 9.61674772 26.68577711 9 25 C8.37609375 24.39414063 7.7521875 23.78828125 7.109375 23.1640625 C1.35872318 17.26431971 -0.74110621 9.02570741 -1 1 C-0.67 0.67 -0.34 0.34 0 0 Z " fill="#159bc1" transform="translate(49,101)"/>
<path d="M0 0 C0.99 0.33 1.98 0.66 3 1 C-5.64366302 7.61687307 -14.38317703 14.08507662 -23.3125 20.3125 C-24.13016846 20.89346436 -24.94783691 21.47442871 -25.7902832 22.07299805 C-26.94016724 22.86637573 -26.94016724 22.86637573 -28.11328125 23.67578125 C-28.79173096 24.14927002 -29.47018066 24.62275879 -30.16918945 25.1105957 C-32 26 -32 26 -35 25 C-34.195625 24.54625 -33.39125 24.0925 -32.5625 23.625 C-29.91143428 22.25274335 -29.91143428 22.25274335 -29 20 C-27.3364521 19.32558869 -25.66933058 18.6599679 -24 18 C-22.66209359 17.00612666 -21.32781878 16.0073108 -20 15 C-19.34 15 -18.68 15 -18 15 C-18 14.34 -18 13.68 -18 13 C-16.35546875 11.81640625 -16.35546875 11.81640625 -14.1875 10.5625 C-11.38610092 8.93472895 -9.24369382 7.32790753 -7 5 C-5.85678392 4.05424851 -4.6894657 3.13688232 -3.5 2.25 C-2.9121875 1.80140625 -2.324375 1.3528125 -1.71875 0.890625 C-1.1515625 0.59671875 -0.584375 0.3028125 0 0 Z " fill="#159bc1" transform="translate(137,148)"/>
<path d="M0 0 C1.32176485 0.90325616 2.63215066 1.82317903 3.9375 2.75 C4.66839844 3.26046875 5.39929688 3.7709375 6.15234375 4.296875 C8.25041888 6.23083009 8.5531035 7.2413796 9 10 C9.37125 10.825 9.7425 11.65 10.125 12.5 C11.07733681 15.22096232 10.98315966 16.34546892 10 19 C9.01 18.67 8.02 18.34 7 18 C6.95875 16.906875 6.9175 15.81375 6.875 14.6875 C6.58625 13.470625 6.2975 12.25375 6 11 C3.08333333 9.33333333 3.08333333 9.33333333 0 8 C-1.375 5.3125 -1.375 5.3125 -2 3 C-1.34 3 -0.68 3 0 3 C0 2.01 0 1.02 0 0 Z " fill="#159bc1" transform="translate(122,70)"/>
<path d="M0 0 C2.95026053 0.59714854 4.97654439 1.46423591 7.41796875 3.21484375 C8.33932617 3.87323242 8.33932617 3.87323242 9.27929688 4.54492188 C10.22385742 5.23424805 10.22385742 5.23424805 11.1875 5.9375 C11.82880859 6.39318359 12.47011719 6.84886719 13.13085938 7.31835938 C17.86714234 10.73428468 17.86714234 10.73428468 19 13 C17.5410574 12.52269162 16.08286504 12.04308958 14.625 11.5625 C13.81289062 11.29566406 13.00078125 11.02882812 12.1640625 10.75390625 C10 10 10 10 8 9 C7.67 10.32 7.34 11.64 7 13 C6.01 13 5.02 13 4 13 C4 11.68 4 10.36 4 9 C4.99 9 5.98 9 7 9 C6.21072301 7.87332216 5.41848345 6.74871933 4.625 5.625 C4.18414062 4.99851563 3.74328125 4.37203125 3.2890625 3.7265625 C1.97191134 1.87619491 1.97191134 1.87619491 0 0 Z " fill="#159bc1" transform="translate(70,137)"/>
<path d="M0 0 C2.22238793 6.66716379 -2.54028821 15.38366399 -5.4375 21.5 C-7.47854101 25.39192293 -9.67136673 28.14688577 -13 31 C-12.690625 30.278125 -12.38125 29.55625 -12.0625 28.8125 C-11.07439461 26.19692691 -10.4712246 23.74881018 -10 21 C-9.34 21 -8.68 21 -8 21 C-7.67 19.68 -7.34 18.36 -7 17 C-6.34 17 -5.68 17 -5 17 C-4.8659375 16.29359375 -4.731875 15.5871875 -4.59375 14.859375 C-3.99098183 11.95657039 -3.27346704 9.11182803 -2.5 6.25 C-2.11328125 4.80367188 -2.11328125 4.80367188 -1.71875 3.328125 C-1 1 -1 1 0 0 Z " fill="#159bc1" transform="translate(166,104)"/>
<path d="M0 0 C0.33 0.66 0.66 1.32 1 2 C-0.1796875 4.71484375 -0.1796875 4.71484375 -1.875 7.9375 C-4.18808586 12.3618696 -4.18808586 12.3618696 -6 17 C-6.66 17 -7.32 17 -8 17 C-8.07427838 13.65747276 -8.06546953 11.1964086 -7 8 C-6.96079185 6.00038436 -6.95556653 3.99950636 -7 2 C-6.67 2.66 -6.34 3.32 -6 4 C-5.34 4 -4.68 4 -4 4 C-4 3.01 -4 2.02 -4 1 C-2.68 0.67 -1.36 0.34 0 0 Z " fill="#159bc1" transform="translate(56,63)"/>
<path d="M0 0 C0 4.04802459 -1.44992842 4.91379846 -4.25 7.75 C-5.03890625 8.56984375 -5.8278125 9.3896875 -6.640625 10.234375 C-9 12 -9 12 -11.296875 11.765625 C-11.85890625 11.51296875 -12.4209375 11.2603125 -13 11 C-13 10.34 -13 9.68 -13 9 C-12.360625 8.7525 -11.72125 8.505 -11.0625 8.25 C-10.381875 7.8375 -9.70125 7.425 -9 7 C-8.814375 6.02546875 -8.814375 6.02546875 -8.625 5.03125 C-8 3 -8 3 -6.15234375 1.953125 C-5.42144531 1.72109375 -4.69054687 1.4890625 -3.9375 1.25 C-2.83728516 0.88648438 -2.83728516 0.88648438 -1.71484375 0.515625 C-1.14894531 0.34546875 -0.58304688 0.1753125 0 0 Z " fill="#159bc1" transform="translate(152,135)"/>
<path d="M0 0 C0 0.33 0 0.66 0 1 C-0.825 1.01417969 -1.65 1.02835938 -2.5 1.04296875 C-12.83065295 1.46956937 -24.22184973 3.14789982 -33 9 C-35.1875 8.625 -35.1875 8.625 -37 8 C-34 6 -34 6 -31 6 C-31 5.34 -31 4.68 -31 4 C-20.40389062 0.88104008 -11.06884521 -0.57252648 0 0 Z " fill="#159bc1" transform="translate(108,42)"/>
<path d="M0 0 C0.33 0 0.66 0 1 0 C1.3403125 1.85625 1.3403125 1.85625 1.6875 3.75 C3.02193294 9.81734976 5.5275072 15.325946 8 21 C8.3196875 21.92296875 8.639375 22.8459375 8.96875 23.796875 C9.3090625 24.52390625 9.649375 25.2509375 10 26 C10.99 26.33 11.98 26.66 13 27 C12.67 28.32 12.34 29.64 12 31 C-1.13219005 11.77477653 -1.13219005 11.77477653 0 0 Z " fill="#159bc1" transform="translate(34,105)"/>
<path d="M0 0 C2.875 -0.1875 2.875 -0.1875 6 0 C6.66 0.99 7.32 1.98 8 3 C7.34 3 6.68 3 6 3 C6.66 4.65 7.32 6.3 8 8 C7.01 8.33 6.02 8.66 5 9 C3.02 6.69 1.04 4.38 -1 2 C-0.67 1.34 -0.34 0.68 0 0 Z " fill="#159bc1" transform="translate(72,112)"/>
<path d="M0 0 C0.99 0 1.98 0 3 0 C3.33 2.31 3.66 4.62 4 7 C3.071875 7.45375 2.14375 7.9075 1.1875 8.375 C-2.03921389 9.9421633 -2.03921389 9.9421633 -5 12 C-4.54738642 10.56068883 -4.08767021 9.12361001 -3.625 7.6875 C-3.24214844 6.48673828 -3.24214844 6.48673828 -2.8515625 5.26171875 C-2 3 -2 3 0 0 Z " fill="#159bc1" transform="translate(44,56)"/>
<path d="M0 0 C0.66 0 1.32 0 2 0 C2 0.66 2 1.32 2 2 C0.24375025 3.48582889 -1.58306293 4.88869039 -3.4375 6.25 C-4.24815918 6.84735962 -4.24815918 6.84735962 -5.07519531 7.45678711 C-9.62048957 10.78262853 -14.26458424 13.95067924 -19 17 C-19 16.01 -19 15.02 -19 14 C-17.47119141 12.58959961 -17.47119141 12.58959961 -15.3515625 11.15234375 C-14.59359375 10.62962891 -13.835625 10.10691406 -13.0546875 9.56835938 C-12.25289063 9.03017578 -11.45109375 8.49199219 -10.625 7.9375 C-9.05362667 6.86483363 -7.48326732 5.79067994 -5.9140625 4.71484375 C-5.2123291 4.24167725 -4.5105957 3.76851074 -3.78759766 3.28100586 C-1.87600182 1.98459115 -1.87600182 1.98459115 0 0 Z " fill="#159bc1" transform="translate(133,132)"/>
<path d="M0 0 C-1.18729683 3.56189048 -2.64590252 4.47013419 -5.90234375 6.1953125 C-9.6314302 7.62583728 -13.10015586 7.85485714 -17 7 C-19.43635196 5.55716042 -20.99779921 4.05353927 -23 2 C-20 2 -20 2 -17.25 3.5625 C-13.2168445 5.3463957 -11.22415582 5.1520425 -7 4 C-1.54545455 0 -1.54545455 0 0 0 Z " fill="#159bc1" transform="translate(112,149)"/>
<path d="M0 0 C-0.99 1.65 -1.98 3.3 -3 5 C-3.66 4.67 -4.32 4.34 -5 4 C-4.67 3.34 -4.34 2.68 -4 2 C-4.99 2.66 -5.98 3.32 -7 4 C-9.55359605 5.27679803 -10.2909652 4.69660895 -13 4 C-14.66623639 3.96213099 -16.33397597 3.95372155 -18 4 C-18 3.34 -18 2.68 -18 2 C-11.93184478 0.77100654 -6.20104812 -0.27560214 0 0 Z " fill="#159bc1" transform="translate(98,27)"/>
<path d="M0 0 C0.99 0.33 1.98 0.66 3 1 C3.66 0.67 4.32 0.34 5 0 C7.125 0.9375 7.125 0.9375 9 2 C8.67 2.66 8.34 3.32 8 4 C7.34 4 6.68 4 6 4 C6.33 5.98 6.66 7.96 7 10 C6.01 10.495 6.01 10.495 5 11 C4.16151196 9.54462432 3.32936066 8.08559627 2.5 6.625 C1.80390625 5.40683594 1.80390625 5.40683594 1.09375 4.1640625 C0 2 0 2 0 0 Z " fill="#159bc1" transform="translate(143,64)"/>
<path d="M0 0 C2.81998949 0.51272536 5.4550872 1.14723409 8.1875 2.03125 C12.26687803 3.06781327 15.73789032 3.19932937 19.9375 3.125 C20.62134766 3.11597656 21.30519531 3.10695312 22.00976562 3.09765625 C23.67333287 3.07438958 25.33671631 3.03853167 27 3 C22.33283232 6.11144512 17.53076821 6.17714204 12 6 C8.12941655 5.07843251 4.51913078 3.86850659 1 2 C0.67 1.34 0.34 0.68 0 0 Z " fill="#159bc1" transform="translate(81,125)"/>
<path d="M0 0 C0.33 0 0.66 0 1 0 C1.11044961 6.73742646 0.70132913 13.29980211 0 20 C-0.66 20 -1.32 20 -2 20 C-2.0544452 17.79194476 -2.09299283 15.58349446 -2.125 13.375 C-2.14820313 12.14523438 -2.17140625 10.91546875 -2.1953125 9.6484375 C-2.0030428 6.05683959 -1.30258556 3.33338825 0 0 Z " fill="#159bc1" transform="translate(49,80)"/>
<path d="M0 0 C0.99 0.33 1.98 0.66 3 1 C2.01 2.485 2.01 2.485 1 4 C1 4.99 1 5.98 1 7 C-0.98 6.34 -2.96 5.68 -5 5 C-5.33 5.99 -5.66 6.98 -6 8 C-7.32 7.67 -8.64 7.34 -10 7 C-8.70982586 6.01886757 -7.41780894 5.04015801 -6.125 4.0625 C-5.04605469 3.24458984 -5.04605469 3.24458984 -3.9453125 2.41015625 C-2 1 -2 1 0 0 Z " fill="#159bc1" transform="translate(86,64)"/>
<path d="M0 0 C8.21237916 -0.57184845 14.46005743 0.73317769 22 4 C18.1626869 5.27910437 16.77830237 4.28371237 13 3 C10.71547193 2.72419137 8.42181617 2.5156214 6.125 2.375 C4.97257812 2.30023438 3.82015625 2.22546875 2.6328125 2.1484375 C1.32957031 2.07496094 1.32957031 2.07496094 0 2 C0 1.34 0 0.68 0 0 Z " fill="#159bc1" transform="translate(95,60)"/>
<path d="M0 0 C4 4.10810811 4 4.10810811 4 7 C0.32553433 6.29337199 -2.73912209 4.81159884 -6 3 C-6.33 2.34 -6.66 1.68 -7 1 C-4.37869511 -0.31065245 -2.90828303 -0.415469 0 0 Z " fill="#159bc1" transform="translate(86,121)"/>
<path d="M0 0 C11.70615034 0.59453303 11.70615034 0.59453303 16 4 C15.67 4.66 15.34 5.32 15 6 C14.33613281 5.79503906 13.67226562 5.59007812 12.98828125 5.37890625 C12.10527344 5.10949219 11.22226563 4.84007812 10.3125 4.5625 C9.44238281 4.29566406 8.57226562 4.02882813 7.67578125 3.75390625 C5.12974079 3.03655471 2.5996577 2.482459 0 2 C0 1.34 0 0.68 0 0 Z " fill="#159bc1" transform="translate(115,29)"/>
<path d="M0 0 C1.5625 1.25 1.5625 1.25 3 3 C2.6875 5.1875 2.6875 5.1875 2 7 C0.35 7 -1.3 7 -3 7 C-3 3.48283697 -2.17554415 2.62878252 0 0 Z " fill="#159bc1" transform="translate(155,57)"/>
<path d="M0 0 C0.33 0 0.66 0 1 0 C1.08131463 1.43655854 1.13933559 2.8744483 1.1875 4.3125 C1.22230469 5.11300781 1.25710937 5.91351563 1.29296875 6.73828125 C0.93801608 9.47851584 0.10633718 10.29171079 -2 12 C-2.66 10.35 -3.32 8.7 -4 7 C-3.01 6.34 -2.02 5.68 -1 5 C-0.27034634 2.43717258 -0.27034634 2.43717258 0 0 Z " fill="#159bc1" transform="translate(133,90)"/>
<path d="M0 0 C0.99 0.33 1.98 0.66 3 1 C3 3.66666667 3 6.33333333 3 9 C2.34 9 1.68 9 1 9 C1 8.01 1 7.02 1 6 C0.01 6 -0.98 6 -2 6 C-1.34 4.02 -0.68 2.04 0 0 Z " fill="#159bc1" transform="translate(69,80)"/>
<path d="M0 0 C5.32697239 1.45281065 8.36402802 5.08111378 12 9 C11.67 9.66 11.34 10.32 11 11 C10.0925 10.05125 9.185 9.1025 8.25 8.125 C5.95069664 5.80395382 3.94572629 4.41831266 1 3 C0.67 2.01 0.34 1.02 0 0 Z " fill="#159bc1" transform="translate(117,65)"/>
<path d="M0 0 C0.99 0 1.98 0 3 0 C3.33 1.65 3.66 3.3 4 5 C1.69 5.33 -0.62 5.66 -3 6 C-2.01 4.02 -1.02 2.04 0 0 Z " fill="#159bc1" transform="translate(139,128)"/>
<path d="M0 0 C0.99 0.66 1.98 1.32 3 2 C2.25 3.9375 2.25 3.9375 1 6 C-1.125 6.75 -1.125 6.75 -3 7 C-2.25 2.25 -2.25 2.25 0 0 Z " fill="#159bc1" transform="translate(67,48)"/>
<path d="M0 0 C5.53846154 -0.36923077 5.53846154 -0.36923077 7.875 1.5 C8.24625 1.995 8.6175 2.49 9 3 C6.1875 3.625 6.1875 3.625 3 4 C2.01 3.34 1.02 2.68 0 2 C0 1.34 0 0.68 0 0 Z " fill="#159bc1" transform="translate(105,27)"/>
<path d="M0 0 C0.99 0 1.98 0 3 0 C1.87548273 2.9719385 0.77706209 5.33440687 -1 8 C-1.66 8 -2.32 8 -3 8 C-3 6.68 -3 5.36 -3 4 C-2.34 3.67 -1.68 3.34 -1 3 C-0.67 2.01 -0.34 1.02 0 0 Z " fill="#159bc1" transform="translate(128,109)"/>
<path d="M0 0 C0.99 0.33 1.98 0.66 3 1 C3 2.32 3 3.64 3 5 C3.66 5.33 4.32 5.66 5 6 C4.34 6.66 3.68 7.32 3 8 C2.71125 7.360625 2.4225 6.72125 2.125 6.0625 C1.17176549 3.84793921 1.17176549 3.84793921 -1 3 C-1.33 2.34 -1.66 1.68 -2 1 C-1.34 0.67 -0.68 0.34 0 0 Z " fill="#159bc1" transform="translate(139,56)"/>
<path d="M0 0 C0.66 0 1.32 0 2 0 C2 1.32 2 2.64 2 4 C2.66 4.33 3.32 4.66 4 5 C2.5199159 4.88637738 1.04089926 4.75877092 -0.4375 4.625 C-1.26121094 4.55539063 -2.08492188 4.48578125 -2.93359375 4.4140625 C-3.61550781 4.27742188 -4.29742187 4.14078125 -5 4 C-5.33 3.34 -5.66 2.68 -6 2 C-4.7934375 1.7834375 -4.7934375 1.7834375 -3.5625 1.5625 C-1.07896294 1.25864751 -1.07896294 1.25864751 0 0 Z " fill="#159bc1" transform="translate(116,40)"/>
<path d="M0 0 C0.66 0 1.32 0 2 0 C2 0.99 2 1.98 2 3 C3.32 3.66 4.64 4.32 6 5 C4.02 5.66 2.04 6.32 0 7 C0 4.69 0 2.38 0 0 Z " fill="#159bc1" transform="translate(112,120)"/>
<path d="M0 0 C0.66 0 1.32 0 2 0 C2 2.31 2 4.62 2 7 C1.01 7.33 0.02 7.66 -1 8 C-1.125 2.25 -1.125 2.25 0 0 Z " fill="#159bc1" transform="translate(68,98)"/>
<path d="M0 0 C2.35953094 2.35953094 2.49141413 3.77895617 3 7 C0.11562221 5.70700306 -1.87219421 4.34058637 -4 2 C-2.68 2 -1.36 2 0 2 C0 1.34 0 0.68 0 0 Z " fill="#159bc1" transform="translate(132,48)"/>
<path d="M0 0 C0.66 0 1.32 0 2 0 C1 3 1 3 -1.3125 4.75 C-4 6 -4 6 -6.3125 5.6875 C-6.869375 5.460625 -7.42625 5.23375 -8 5 C-6.20963542 3.99088542 -4.41927083 2.98177083 -2.62890625 1.97265625 C-1.02121854 1.1027487 -1.02121854 1.1027487 0 0 Z " fill="#159bc1" transform="translate(110,149)"/>
<path d="M0 0 C0.66 0.33 1.32 0.66 2 1 C-0.54631035 3.97069541 -3.42230149 5.4775751 -7 7 C-7.66 6.67 -8.32 6.34 -9 6 C-6.03 4.02 -3.06 2.04 0 0 Z " fill="#159bc1" transform="translate(126,140)"/>
<path d="M0 0 C0.33 0.66 0.66 1.32 1 2 C-1.05233685 4.2477975 -2.00667261 5.0022242 -5 6 C-4.67 4.35 -4.34 2.7 -4 1 C-2.68 0.67 -1.36 0.34 0 0 Z " fill="#159bc1" transform="translate(56,63)"/>
<path d="M0 0 C0.598125 0.20625 1.19625 0.4125 1.8125 0.625 C0.52284824 2.00062854 -0.81439293 3.33266393 -2.1875 4.625 C-2.8475 4.625 -3.5075 4.625 -4.1875 4.625 C-4.5175 3.635 -4.8475 2.645 -5.1875 1.625 C-2.1875 -0.375 -2.1875 -0.375 0 0 Z " fill="#159bc1" transform="translate(61.1875,57.375)"/>
<path d="M0 0 C2.97 1.98 2.97 1.98 6 4 C2.86650268 5.04449911 2.01031744 4.93423645 -1 4 C-0.67 2.68 -0.34 1.36 0 0 Z " fill="#159bc1" transform="translate(125,73)"/>
</svg>
