<?xml version="1.0" encoding="UTF-8"?>
<svg version="1.1" xmlns="http://www.w3.org/2000/svg" width="48" height="48">
<path d="M0 0 C0.34615998 5.65394631 -0.56574762 9.03006806 -3 14 C-1.7625 13.2575 -1.7625 13.2575 -0.5 12.5 C3.76019308 10.67420296 6.40981259 10.8861937 11 11 C10.5424935 13.78416785 10.03721602 16.5435991 9.5 19.3125 C9.37625 20.09818359 9.2525 20.88386719 9.125 21.69335938 C8.64590026 24.03895187 8.16152117 25.90278574 7 28 C4.47345706 29.64167719 1.9074986 30.29954748 -1 31 C-2.31291016 31.53560547 -2.31291016 31.53560547 -3.65234375 32.08203125 C-6.35405346 32.9456547 -8.16699229 33.3579455 -11 33 C-14.60046413 30.095516 -17.1932561 26.64755727 -20 23 C-20.66 22.67 -21.32 22.34 -22 22 C-21.71301899 20.31169683 -21.42014974 18.62439428 -21.125 16.9375 C-20.96257813 15.99777344 -20.80015625 15.05804688 -20.6328125 14.08984375 C-20.42398437 13.07019531 -20.21515625 12.05054688 -20 11 C-19.70029297 9.15921875 -19.70029297 9.15921875 -19.39453125 7.28125 C-18 4 -18 4 -14.62890625 2.44140625 C-13.28056263 2.11722157 -11.92417814 1.82510021 -10.5625 1.5625 C-9.88123047 1.40330078 -9.19996094 1.24410156 -8.49804688 1.08007812 C-5.61208012 0.42713168 -2.96458158 0 0 0 Z " fill="#73001A" transform="translate(30,8)"/>
<path d="M0 0 C-0.4575065 2.78416785 -0.96278398 5.5435991 -1.5 8.3125 C-1.62375 9.09818359 -1.7475 9.88386719 -1.875 10.69335938 C-3.02980141 16.34707459 -3.02980141 16.34707459 -5.765625 18.18823242 C-9.39382084 19.60549642 -13.115925 20.38405664 -17 20.6875 C-18.1446875 20.78611328 -18.1446875 20.78611328 -19.3125 20.88671875 C-20.1478125 20.94279297 -20.1478125 20.94279297 -21 21 C-21.51468509 14.9524502 -20.52048518 10.04948947 -17 5 C-11.52447709 0.36355526 -6.94938762 -0.22724791 0 0 Z " fill="#ECA91B" transform="translate(41,19)"/>
<path d="M0 0 C0.66 0.33 1.32 0.66 2 1 C1.505 1.99 1.01 2.98 0.5 4 C-1.30103581 8.13477234 -1.23515871 11.53198453 -1 16 C-4.38818502 14.56394807 -6.3186598 12.79533421 -8.6875 10 C-9.28949219 9.29875 -9.89148438 8.5975 -10.51171875 7.875 C-12 6 -12 6 -13 4 C-12.39671875 3.87882812 -11.7934375 3.75765625 -11.171875 3.6328125 C-10.37265625 3.46523438 -9.5734375 3.29765625 -8.75 3.125 C-7.96109375 2.96257813 -7.1721875 2.80015625 -6.359375 2.6328125 C-3.96665457 2.08251721 -3.96665457 2.08251721 -1.828125 0.8671875 C-1.22484375 0.58101562 -0.6215625 0.29484375 0 0 Z " fill="#095F78" transform="translate(22,25)"/>
<path d="M0 0 C0.66 0 1.32 0 2 0 C2 4.62 2 9.24 2 14 C2.99 14.33 3.98 14.66 5 15 C0.545 15.495 0.545 15.495 -4 16 C-4.5326514 9.741346 -2.81849506 5.54891215 0 0 Z " fill="#D4991B" transform="translate(24,24)"/>
<path d="M0 0 C0.99 0 1.98 0 3 0 C3.33 3.3 3.66 6.6 4 10 C2.35 10 0.7 10 -1 10 C-1.125 3.375 -1.125 3.375 0 0 Z " fill="#C5901A" transform="translate(21,30)"/>
</svg>
