<?xml version="1.0" encoding="utf-8"?>
<!-- Generator: Adobe Illustrator 16.0.0, SVG Export Plug-In . SVG Version: 6.00 Build 0)  -->
<!DOCTYPE svg PUBLIC "-//W3C//DTD SVG 1.1//EN" "http://www.w3.org/Graphics/SVG/1.1/DTD/svg11.dtd">
<svg version="1.1" id="圖層_1" xmlns="http://www.w3.org/2000/svg" xmlns:xlink="http://www.w3.org/1999/xlink" x="0px" y="0px"
	 width="538.58px" height="425.2px" viewBox="0 0 538.58 425.2" enable-background="new 0 0 538.58 425.2" xml:space="preserve">
<g>
	<g>
		<polyline fill-rule="evenodd" clip-rule="evenodd" fill="#2E5A8A" points="127.995,42.205 163.995,109.705 360.495,117.205 
			433.245,52.705 290.745,11.455 127.995,42.205 		"/>
		<polyline fill-rule="evenodd" clip-rule="evenodd" fill="#2D5989" points="127.995,42.205 163.995,109.705 15.495,180.955 
			127.995,42.205 		"/>
		<polyline fill-rule="evenodd" clip-rule="evenodd" fill="#3A6B9B" points="15.495,180.955 94.995,332.455 247.995,263.455 
			163.995,109.705 15.495,180.955 		"/>
		<polyline fill-rule="evenodd" clip-rule="evenodd" fill="#3E6FA5" points="247.995,263.455 412.995,344.455 521.745,199.705 
			360.495,117.205 247.995,263.455 		"/>
		<polyline fill-rule="evenodd" clip-rule="evenodd" fill="#346193" points="360.495,117.205 433.245,52.705 521.745,199.705 
			360.495,117.205 		"/>
		<polyline fill-rule="evenodd" clip-rule="evenodd" fill="#5A8BC5" points="163.995,109.705 247.995,263.455 360.495,117.205 
			163.995,109.705 		"/>
		<polyline fill-rule="evenodd" clip-rule="evenodd" fill="#2A5178" points="94.995,332.455 260.745,412.705 412.995,344.455 
			247.995,263.455 94.995,332.455 		"/>
		<polyline fill-rule="evenodd" clip-rule="evenodd" fill="#1E3D5E" points="412.995,344.455 423.495,370.705 524.745,233.455 
			521.745,199.705 412.995,344.455 		"/>
		<polyline fill-rule="evenodd" clip-rule="evenodd" fill="#1E3D5E" points="412.995,344.455 423.495,370.705 260.745,412.705 
			412.995,344.455 		"/>
		<polyline fill-rule="evenodd" clip-rule="evenodd" fill="#1C395A" points="94.995,332.455 120.495,360.205 260.745,412.705 
			94.995,332.455 		"/>
	</g>
	<g>
		<line fill="none" stroke="#F7F8F8" stroke-miterlimit="10" x1="127.995" y1="42.205" x2="154.995" y2="81.955"/>
		<line fill="none" stroke="#F7F8F8" stroke-miterlimit="10" x1="154.995" y1="81.955" x2="48.495" y2="210.955"/>
		<line fill="none" stroke="#F7F8F8" stroke-miterlimit="10" x1="48.495" y1="210.955" x2="200.745" y2="287.455"/>
		<line fill="none" stroke="#F7F8F8" stroke-miterlimit="10" x1="200.745" y1="287.455" x2="297.495" y2="157.705"/>
		<line fill="none" stroke="#F7F8F8" stroke-miterlimit="10" x1="297.495" y1="157.705" x2="154.995" y2="81.955"/>
		<line fill="none" stroke="#F7F8F8" stroke-miterlimit="10" x1="154.995" y1="81.955" x2="290.745" y2="11.455"/>
		<line fill="none" stroke="#F7F8F8" stroke-miterlimit="10" x1="290.745" y1="11.455" x2="439.995" y2="92.455"/>
		<line fill="none" stroke="#F7F8F8" stroke-miterlimit="10" x1="439.995" y1="92.455" x2="297.495" y2="157.705"/>
		<line fill="none" stroke="#F7F8F8" stroke-miterlimit="10" x1="439.995" y1="92.455" x2="524.745" y2="233.455"/>
		<line fill="none" stroke="#F7F8F8" stroke-miterlimit="10" x1="439.995" y1="92.455" x2="433.245" y2="52.705"/>
		<line fill="none" stroke="#F7F8F8" stroke-miterlimit="10" x1="524.745" y1="233.455" x2="377.745" y2="293.455"/>
		<line fill="none" stroke="#F7F8F8" stroke-miterlimit="10" x1="377.745" y1="293.455" x2="423.495" y2="370.705"/>
		<line fill="none" stroke="#F7F8F8" stroke-miterlimit="10" x1="377.745" y1="293.455" x2="200.745" y2="287.455"/>
		<line fill="none" stroke="#F7F8F8" stroke-miterlimit="10" x1="200.745" y1="287.455" x2="120.495" y2="360.205"/>
		<line fill="none" stroke="#F7F8F8" stroke-miterlimit="10" x1="377.745" y1="293.455" x2="297.495" y2="157.705"/>
		<line fill="none" stroke="#F7F8F8" stroke-miterlimit="10" x1="48.495" y1="210.955" x2="120.495" y2="360.205"/>
		<line fill="none" stroke="#F7F8F8" stroke-miterlimit="10" x1="48.495" y1="210.955" x2="15.495" y2="180.955"/>
	</g>
	<g>
		
			<line fill="none" stroke="#000000" stroke-width="3" stroke-miterlimit="10" x1="127.995" y1="42.205" x2="163.995" y2="109.705"/>
		
			<line fill="none" stroke="#000000" stroke-width="3" stroke-miterlimit="10" x1="163.995" y1="109.705" x2="360.495" y2="117.205"/>
		
			<line fill="none" stroke="#000000" stroke-width="3" stroke-miterlimit="10" x1="360.495" y1="117.205" x2="433.245" y2="52.705"/>
		<line fill="none" stroke="#000000" stroke-width="3" stroke-miterlimit="10" x1="433.245" y1="52.705" x2="290.745" y2="11.455"/>
		<line fill="none" stroke="#000000" stroke-width="3" stroke-miterlimit="10" x1="290.745" y1="11.455" x2="127.995" y2="42.205"/>
		
			<line fill="none" stroke="#000000" stroke-width="3" stroke-miterlimit="10" x1="433.245" y1="52.705" x2="521.745" y2="199.705"/>
		
			<line fill="none" stroke="#000000" stroke-width="3" stroke-miterlimit="10" x1="521.745" y1="199.705" x2="360.495" y2="117.205"/>
		<line fill="none" stroke="#000000" stroke-width="3" stroke-miterlimit="10" x1="127.995" y1="42.205" x2="15.495" y2="180.955"/>
		
			<line fill="none" stroke="#000000" stroke-width="3" stroke-miterlimit="10" x1="15.495" y1="180.955" x2="163.995" y2="109.705"/>
		<line fill="none" stroke="#000000" stroke-width="3" stroke-miterlimit="10" x1="15.495" y1="180.955" x2="94.995" y2="332.455"/>
		
			<line fill="none" stroke="#000000" stroke-width="3" stroke-miterlimit="10" x1="94.995" y1="332.455" x2="247.995" y2="263.455"/>
		
			<line fill="none" stroke="#000000" stroke-width="3" stroke-miterlimit="10" x1="247.995" y1="263.455" x2="163.995" y2="109.705"/>
		
			<line fill="none" stroke="#000000" stroke-width="3" stroke-miterlimit="10" x1="247.995" y1="263.455" x2="360.495" y2="117.205"/>
		
			<line fill="none" stroke="#000000" stroke-width="3" stroke-miterlimit="10" x1="247.995" y1="263.455" x2="412.995" y2="344.455"/>
		
			<line fill="none" stroke="#000000" stroke-width="3" stroke-miterlimit="10" x1="412.995" y1="344.455" x2="521.745" y2="199.705"/>
		
			<line fill="none" stroke="#000000" stroke-width="3" stroke-miterlimit="10" x1="521.745" y1="199.705" x2="524.745" y2="233.455"/>
		
			<line fill="none" stroke="#000000" stroke-width="3" stroke-miterlimit="10" x1="524.745" y1="233.455" x2="423.495" y2="370.705"/>
		
			<line fill="none" stroke="#000000" stroke-width="3" stroke-miterlimit="10" x1="423.495" y1="370.705" x2="412.995" y2="344.455"/>
		
			<line fill="none" stroke="#000000" stroke-width="3" stroke-miterlimit="10" x1="423.495" y1="370.705" x2="260.745" y2="412.705"/>
		
			<line fill="none" stroke="#000000" stroke-width="3" stroke-miterlimit="10" x1="260.745" y1="412.705" x2="412.995" y2="344.455"/>
		
			<line fill="none" stroke="#000000" stroke-width="3" stroke-miterlimit="10" x1="260.745" y1="412.705" x2="94.995" y2="332.455"/>
		
			<line fill="none" stroke="#000000" stroke-width="3" stroke-miterlimit="10" x1="94.995" y1="332.455" x2="120.495" y2="360.205"/>
		
			<line fill="none" stroke="#000000" stroke-width="3" stroke-miterlimit="10" x1="120.495" y1="360.205" x2="260.745" y2="412.705"/>
	</g>
</g>
</svg>
