<?xml version="1.0" encoding="UTF-8"?>
<svg version="1.1" xmlns="http://www.w3.org/2000/svg" width="256" height="256">
<path d="M0 0 C22.03852652 18.81159856 36.46579334 41.06373377 44.3515625 68.91015625 C44.69316406 70.08835937 45.03476563 71.2665625 45.38671875 72.48046875 C52.92056498 104.36791093 46.53869956 140.38566089 29.7109375 168.21484375 C19.22380228 184.89578124 5.20171214 199.62660904 -11.6484375 209.91015625 C-12.7209375 210.59335938 -13.7934375 211.2765625 -14.8984375 211.98046875 C-42.75922794 228.94201478 -78.25061189 233.92648545 -110.03027344 226.74707031 C-117.81941729 224.77736357 -125.2980262 222.14033195 -132.6484375 218.91015625 C-133.30263672 218.62688477 -133.95683594 218.34361328 -134.63085938 218.05175781 C-164.72593234 204.76588414 -188.43262339 179.18859339 -200.51953125 148.71386719 C-202.47890077 143.51521742 -204.1350825 138.25415274 -205.6484375 132.91015625 C-205.99003906 131.73195312 -206.33164063 130.55375 -206.68359375 129.33984375 C-214.21743998 97.45240157 -207.83557456 61.43465161 -191.0078125 33.60546875 C-172.71931393 4.51560818 -145.47270495 -14.79440926 -112.6484375 -24.08984375 C-111.47023438 -24.43144531 -110.29203125 -24.77304687 -109.078125 -25.125 C-71.91216204 -33.90596927 -29.43835184 -24.14652242 0 0 Z " fill="#0052B4" transform="translate(208.6484375,27.08984375)"/>
<path d="M0 0 C0.66 0 1.32 0 2 0 C2.15855469 0.60473145 2.31710938 1.20946289 2.48046875 1.83251953 C5.24687951 13.22061211 5.24687951 13.22061211 11.78808594 22.48681641 C15.67995902 24.5436159 19.85505299 25.52742574 24.12451172 26.50488281 C35.22918867 29.43644814 43.76835048 39.31009161 49.3125 48.8125 C51.88679815 53.26316479 53.32145954 57.30965172 54.25 62.375 C55.18968953 65.74523263 56.10376726 67.45308306 59.1171875 69.29199219 C64.88338076 72.05459466 70.8939921 74.12614524 77 76 C77 76.66 77 77.32 77 78 C76.42032471 78.16902832 75.84064941 78.33805664 75.2434082 78.51220703 C63.58757809 81.69034455 63.58757809 81.69034455 54.8046875 89.2265625 C53.63790192 92.74557466 53.63790192 92.74557466 52.83984375 96.40234375 C50.10794009 108.10505663 41.31789221 117.7718762 31.4375 124.1875 C28.36520485 126.00010606 25.5361473 127.17483639 22.08984375 127.99609375 C14.2360411 129.88725159 14.2360411 129.88725159 8.50097656 135.22070312 C5.65620897 140.90172741 3.68775191 146.88532973 2 153 C1.34 153 0.68 153 0 153 C-0.17950195 152.41508789 -0.35900391 151.83017578 -0.54394531 151.22753906 C-3.6953558 139.81771656 -3.6953558 139.81771656 -10.81640625 130.9921875 C-13.86436686 130.10998769 -16.87835774 129.55786002 -20 129 C-35.32413363 122.54003098 -45.32442843 110.65597839 -51.95703125 95.73828125 C-53 93 -53 93 -53.47265625 89.4453125 C-55.24464784 85.44813455 -55.91844991 85.20355015 -59.7890625 83.56640625 C-61.72453234 82.8704325 -63.67057484 82.2033161 -65.625 81.5625 C-66.61757812 81.21251953 -67.61015625 80.86253906 -68.6328125 80.50195312 C-71.0810314 79.64272245 -73.53523224 78.81026939 -76 78 C-76 77.34 -76 76.68 -76 76 C-75.07719238 75.73074707 -75.07719238 75.73074707 -74.13574219 75.45605469 C-62.23334133 72.38215158 -62.23334133 72.38215158 -52.92578125 65.18359375 C-52.04647891 62.13189741 -51.52366196 59.13007038 -51 56 C-44.56058396 40.6750261 -32.64396645 30.67023091 -17.73828125 24.04296875 C-15 23 -15 23 -11.4453125 22.52734375 C-7.44813455 20.75535216 -7.20355015 20.08155009 -5.56640625 16.2109375 C-4.8704325 14.27546766 -4.2033161 12.32942516 -3.5625 10.375 C-3.21251953 9.38242187 -2.86253906 8.38984375 -2.50195312 7.3671875 C-1.64272245 4.9189686 -0.81026939 2.46476776 0 0 Z " fill="#ECEDEF" transform="translate(127,51)"/>
<path d="M0 0 C3.0737257 4.61058855 4.86896764 9.78350289 6.90551758 14.91455078 C7.68387257 16.86590594 8.47944135 18.80967405 9.27539062 20.75390625 C9.77191877 21.99956789 10.26739668 23.24564877 10.76171875 24.4921875 C11.21506592 25.61995605 11.66841309 26.74772461 12.13549805 27.90966797 C13 31 13 31 12 36 C8.7 39.3 5.4 42.6 2 46 C16.85 46.33 31.7 46.66 47 47 C42.38941145 50.0737257 37.21649711 51.86896764 32.08544922 53.90551758 C30.13409406 54.68387257 28.19032595 55.47944135 26.24609375 56.27539062 C25.00043211 56.77191877 23.75435123 57.26739668 22.5078125 57.76171875 C21.38004395 58.21506592 20.25227539 58.66841309 19.09033203 59.13549805 C16 60 16 60 11 59 C7.7 55.7 4.4 52.4 1 49 C0.67 63.52 0.34 78.04 0 93 C-3.66893758 89.33106242 -5.02025655 83.94122269 -6.90551758 79.16088867 C-7.68251357 77.20008361 -8.47846547 75.24769644 -9.27539062 73.29492188 C-9.77202263 72.04474263 -10.26750343 70.79410532 -10.76171875 69.54296875 C-11.21506592 68.40883545 -11.66841309 67.27470215 -12.13549805 66.10620117 C-13 63 -13 63 -12 58 C-8.7 54.7 -5.4 51.4 -2 48 C-16.85 47.67 -31.7 47.34 -47 47 C-42.38941145 43.9262743 -37.21649711 42.13103236 -32.08544922 40.09448242 C-30.13409406 39.31612743 -28.19032595 38.52055865 -26.24609375 37.72460938 C-25.00043211 37.22808123 -23.75435123 36.73260332 -22.5078125 36.23828125 C-21.38004395 35.78493408 -20.25227539 35.33158691 -19.09033203 34.86450195 C-16 34 -16 34 -11 35 C-7.7 38.3 -4.4 41.6 -1 45 C-0.67 30.15 -0.34 15.3 0 0 Z " fill="#0555B5" transform="translate(128,81)"/>
<path d="M0 0 C-2.48496028 9.69134507 -9.39253734 18.48951091 -17.8203125 23.765625 C-25.39865654 28 -25.39865654 28 -28 28 C-27.33968958 25.91480921 -26.66410154 23.83369635 -25.9296875 21.7734375 C-24.94277498 18.98594583 -24.94277498 18.98594583 -24.3203125 15.9765625 C-23.09506343 11.6719264 -22.00501335 8.24500829 -18.04199219 5.78417969 C-5.99801061 0 -5.99801061 0 0 0 Z " fill="#0857B6" transform="translate(170,142)"/>
<path d="M0 0 C3.01390845 0.96095632 6.00790388 1.97325715 9 3 C9.88558594 3.29003906 10.77117187 3.58007812 11.68359375 3.87890625 C15.62708508 5.27934374 18.40383468 6.37160953 21.3125 9.4375 C28 23.55555556 28 23.55555556 28 28 C17.67007362 26.02192899 10.17396447 18.1390412 4 10 C0 3.41971831 0 3.41971831 0 0 Z " fill="#0756B5" transform="translate(86,142)"/>
<path d="M0 0 C11.21198924 2.87486904 20.27272507 11.36903504 26.06640625 21.1328125 C27.19337121 23.38674241 27.76486869 25.49193264 28 28 C23.17165312 26.46052708 18.3748822 24.82973558 13.625 23.0625 C12.81289062 22.76472656 12.00078125 22.46695313 11.1640625 22.16015625 C6.18927958 19.49316974 4.75866064 14.39176965 2.8125 9.375 C2.53986328 8.694375 2.26722656 8.01375 1.98632812 7.3125 C0 2.27449483 0 2.27449483 0 0 Z " fill="#0757B5" transform="translate(142,86)"/>
<path d="M0 0 C-1.53947292 4.82834688 -3.17026442 9.6251178 -4.9375 14.375 C-5.23527344 15.18710938 -5.53304687 15.99921875 -5.83984375 16.8359375 C-8.50683026 21.81072042 -13.60823035 23.24133936 -18.625 25.1875 C-19.305625 25.46013672 -19.98625 25.73277344 -20.6875 26.01367188 C-25.72550517 28 -25.72550517 28 -28 28 C-26.02192899 17.67007362 -18.1390412 10.17396447 -10 4 C-3.41971831 0 -3.41971831 0 0 0 Z " fill="#0756B5" transform="translate(114,86)"/>
<path d="M0 0 C3.96 0 7.92 0 12 0 C12 7.26 12 14.52 12 22 C8.04 22 4.08 22 0 22 C0 14.74 0 7.48 0 0 Z " fill="#DEE4EB" transform="translate(122,217)"/>
<path d="M0 0 C7.26 0 14.52 0 22 0 C22 3.96 22 7.92 22 12 C14.74 12 7.48 12 0 12 C0 8.04 0 4.08 0 0 Z " fill="#DEE4EB" transform="translate(217,122)"/>
<path d="M0 0 C7.26 0 14.52 0 22 0 C22 3.96 22 7.92 22 12 C14.74 12 7.48 12 0 12 C0 8.04 0 4.08 0 0 Z " fill="#DEE4EB" transform="translate(17,122)"/>
<path d="M0 0 C3.96 0 7.92 0 12 0 C12 7.26 12 14.52 12 22 C8.04 22 4.08 22 0 22 C0 14.74 0 7.48 0 0 Z " fill="#DEE4EB" transform="translate(122,17)"/>
</svg>
