<?xml version="1.0" standalone="no"?>
<!DOCTYPE svg PUBLIC "-//W3C//DTD SVG 20010904//EN"
 "http://www.w3.org/TR/2001/REC-SVG-20010904/DTD/svg10.dtd">
<svg version="1.0" xmlns="http://www.w3.org/2000/svg"
 width="912.000000pt" height="875.000000pt" viewBox="0 0 912.000000 875.000000"
 preserveAspectRatio="xMidYMid meet">

<g transform="translate(0.000000,875.000000) scale(0.100000,-0.100000)"
fill="#000000" stroke="none">
<path d="M3967 7606 c-26 -46 -126 -239 -223 -428 -97 -188 -189 -365 -204
-393 -15 -27 -80 -153 -145 -280 -64 -126 -157 -304 -205 -395 -114 -214 -460
-880 -460 -885 0 -2 -61 -120 -136 -262 -75 -142 -188 -361 -252 -488 -63
-126 -156 -309 -207 -405 -51 -96 -152 -292 -225 -435 -73 -143 -136 -264
-140 -270 -4 -5 -60 -113 -125 -240 -65 -126 -144 -277 -175 -335 -31 -58
-117 -222 -190 -365 -73 -143 -136 -264 -140 -270 -4 -5 -63 -118 -130 -250
-68 -132 -172 -334 -232 -448 -60 -115 -107 -215 -104 -223 5 -12 447 -14
3336 -14 3006 0 3331 2 3337 16 3 8 -15 55 -42 107 -207 400 -356 687 -463
892 -69 132 -197 382 -285 555 -87 173 -201 394 -252 490 -51 96 -121 231
-155 300 -35 69 -105 205 -157 302 -51 98 -161 311 -244 475 -83 164 -213 417
-289 563 -75 146 -201 387 -278 535 -77 149 -206 401 -287 560 -81 160 -200
391 -265 515 -138 265 -442 852 -533 1029 -35 69 -68 126 -74 128 -6 2 -31
-34 -56 -81z m153 -168 c51 -101 164 -319 252 -485 87 -166 158 -303 158 -306
0 -2 63 -125 140 -272 77 -148 140 -272 140 -277 0 -4 -355 -8 -790 -8 -434 0
-790 3 -790 6 0 9 142 291 270 534 59 113 152 293 207 400 172 335 307 590
314 590 3 0 48 -82 99 -182z m710 -1384 c0 -4 -20 -43 -44 -88 -24 -45 -90
-171 -146 -281 -56 -110 -157 -306 -225 -435 -67 -129 -180 -346 -250 -483
-70 -136 -133 -255 -140 -264 -13 -18 -31 13 -205 352 -96 187 -325 630 -511
988 -60 115 -109 211 -109 213 0 2 367 4 815 4 448 0 815 -3 815 -6z m-1630
-74 c0 -4 36 -77 81 -161 45 -85 131 -251 191 -369 61 -118 132 -255 158 -305
63 -117 340 -657 340 -662 0 -1 -355 -3 -790 -3 -434 0 -790 4 -790 8 0 4 57
116 126 248 69 131 155 298 191 369 36 72 107 209 158 305 50 96 141 271 200
387 86 169 111 210 122 202 7 -7 13 -15 13 -19z m1783 -215 c44 -88 144 -281
222 -430 78 -148 176 -337 218 -420 42 -82 109 -213 150 -290 l73 -140 -789
-3 c-435 -1 -792 0 -795 3 -3 2 0 10 5 17 6 7 74 139 153 293 78 154 150 294
160 310 10 17 102 194 205 395 103 201 206 398 228 438 l40 73 24 -43 c14 -24
61 -115 106 -203z m-1013 -1329 c0 -3 -40 -82 -90 -176 -49 -94 -90 -173 -90
-176 0 -2 -76 -149 -169 -326 -92 -178 -226 -434 -296 -571 -70 -136 -133
-254 -139 -262 -9 -12 -25 13 -83 127 -40 79 -103 202 -141 273 -38 72 -113
216 -167 320 -53 105 -167 323 -251 486 -85 162 -154 298 -154 302 0 4 356 7
790 7 435 0 790 -2 790 -4z m1634 -83 c-26 -49 -64 -119 -84 -158 -21 -38 -86
-164 -145 -280 -59 -115 -156 -302 -215 -415 -59 -113 -141 -272 -183 -355
-41 -82 -86 -169 -100 -193 l-25 -44 -45 84 c-24 46 -88 169 -142 273 -54 105
-157 305 -230 445 -163 314 -369 712 -373 723 -2 4 354 7 792 7 l796 0 -46
-87z m-1486 -108 c49 -93 146 -282 217 -420 70 -137 136 -263 145 -280 23 -39
350 -675 350 -681 0 -2 -367 -4 -815 -4 -448 0 -815 2 -815 4 0 3 41 82 90
175 50 94 90 173 90 175 0 2 46 91 101 198 56 106 178 342 271 523 225 436
259 498 268 488 5 -4 48 -84 98 -178z m-1635 -80 c44 -88 144 -281 222 -430
78 -148 168 -322 200 -385 61 -122 156 -304 212 -407 l34 -63 -796 0 -797 0
87 168 c48 92 128 246 178 342 49 96 145 281 212 410 67 129 164 316 215 415
51 99 95 184 97 188 7 11 36 -40 136 -238z m3240 163 c25 -46 102 -195 172
-333 70 -137 131 -254 135 -260 4 -5 69 -131 145 -280 76 -148 174 -337 217
-419 43 -82 78 -150 78 -152 0 -2 -357 -4 -794 -4 l-794 0 75 143 c41 78 127
243 190 367 64 124 162 313 218 420 56 107 149 286 206 398 56 111 104 202
105 202 2 0 23 -37 47 -82z m-2563 -1498 c0 -5 -62 -128 -138 -272 -76 -145
-169 -324 -207 -398 -37 -74 -109 -214 -160 -310 -50 -96 -138 -266 -195 -377
-57 -112 -106 -203 -109 -203 -7 0 -31 45 -218 410 -80 157 -149 290 -153 295
-4 6 -92 174 -195 375 -103 201 -203 393 -222 428 l-35 62 816 0 c524 0 816
-3 816 -10z m3317 -17 c-6 -16 -47 -95 -89 -176 -43 -81 -128 -246 -189 -365
-62 -119 -160 -309 -219 -422 -59 -113 -149 -286 -200 -385 -50 -99 -95 -184
-100 -188 -8 -9 -47 59 -185 328 -174 338 -420 814 -526 1018 -60 115 -109
211 -109 213 0 2 367 4 815 4 l815 0 -13 -27z m-1674 10 c4 -3 -8 -34 -27 -67
-18 -34 -82 -155 -141 -271 -59 -115 -167 -325 -240 -465 -73 -140 -183 -352
-244 -471 -61 -119 -117 -224 -124 -233 -13 -17 -64 76 -348 629 -50 99 -133
259 -184 355 -110 209 -265 515 -265 524 0 8 1565 8 1573 -1z m-3134 -326 c83
-158 151 -289 151 -292 0 -2 67 -131 148 -287 82 -156 192 -367 244 -470 l96
-188 -794 0 c-437 0 -794 4 -794 8 0 4 4 12 9 17 5 6 75 141 156 300 81 160
156 304 165 320 10 17 98 185 195 375 196 381 266 513 270 508 2 -2 71 -133
154 -291z m1554 231 c19 -35 60 -115 92 -178 32 -63 140 -272 240 -465 358
-689 425 -817 425 -821 0 -2 -358 -4 -796 -4 l-795 0 107 208 c59 114 110 212
114 217 4 6 67 127 140 270 73 143 174 339 225 435 51 96 118 226 149 288 31
61 58 112 60 112 2 0 20 -28 39 -62z m3387 -120 c51 -101 139 -271 195 -378
56 -107 154 -296 218 -420 63 -124 151 -294 196 -379 45 -84 81 -157 81 -162
0 -5 -345 -9 -791 -9 -749 0 -791 1 -785 18 4 9 75 148 158 307 83 160 187
360 231 445 44 85 128 247 187 360 59 113 129 249 156 302 27 54 52 98 55 98
3 0 48 -82 99 -182z m-1653 -40 c61 -117 153 -294 203 -393 51 -99 109 -211
130 -250 47 -85 340 -657 340 -662 0 -1 -355 -3 -790 -3 -434 0 -790 2 -790 5
0 6 170 337 580 1125 70 135 144 278 165 318 21 39 41 72 45 72 4 0 57 -96
117 -212z"/>
</g>
</svg>
