<?xml version="1.0" encoding="UTF-8"?>
<svg version="1.1" xmlns="http://www.w3.org/2000/svg" width="256" height="256">
<path d="M0 0 C0.98097656 0.42925781 1.96195313 0.85851563 2.97265625 1.30078125 C29.30976925 13.61919378 48.58201651 36.14238528 59 63 C62.55800866 73.34762177 65.12170936 83.70466815 65.1328125 94.703125 C65.13410156 95.9303125 65.13539063 97.1575 65.13671875 98.421875 C65.13285156 99.68515625 65.12898437 100.9484375 65.125 102.25 C65.12886719 103.52875 65.13273438 104.8075 65.13671875 106.125 C65.13478516 107.95804688 65.13478516 107.95804688 65.1328125 109.828125 C65.13168457 110.9409082 65.13055664 112.05369141 65.12939453 113.20019531 C65 116 65 116 64 119 C65.134375 118.95359375 66.26875 118.9071875 67.4375 118.859375 C83.63439044 118.38336569 83.63439044 118.38336569 89 123 C94.27839169 128.0793859 98.62514575 132.63629759 99.27415466 140.19145203 C99.29011436 141.99486809 99.29011436 141.99486809 99.30639648 143.8347168 C99.31472 144.50213394 99.32304352 145.16955109 99.33161926 145.85719299 C99.35562993 148.05459509 99.36448195 150.25169953 99.37109375 152.44921875 C99.3800697 153.98753441 99.38919171 155.52584923 99.39845276 157.06416321 C99.41492305 160.28783279 99.42263878 163.51139879 99.42553711 166.73510742 C99.43090674 170.84287684 99.46853502 174.94965624 99.51428127 179.05714703 C99.54420117 182.23585962 99.55126394 185.41433862 99.55226326 188.5931797 C99.55643914 190.10610277 99.56876642 191.61902826 99.58978081 193.13181114 C99.71504356 202.93239943 99.14853197 211.33368872 92.27366638 218.89994812 C87.37535667 223.64812927 81.27202507 226.17600759 74.45849609 226.24194336 C72.81316213 226.20275286 71.16808224 226.15151569 69.5234375 226.08984375 C67.69924887 226.06824868 65.87502528 226.04945869 64.05078125 226.03320312 C61.21865177 225.99434993 58.39150005 225.938117 55.56103516 225.83227539 C45.08006919 225.47203229 37.05832192 225.44130236 28.9921875 232.76953125 C27.40990004 234.31046759 25.88586823 235.88082334 24.39204407 237.50747681 C19.64079283 242.60167808 14.9029893 247.40994749 7.6875 247.75 C3.40427049 247.37345235 0.91744395 246.28212445 -2 243 C-4.30878946 239.44801622 -4.20843311 236.42165545 -4.125 232.25 C-4.10695312 231.07953125 -4.08890625 229.9090625 -4.0703125 228.703125 C-4.04710937 227.81109375 -4.02390625 226.9190625 -4 226 C-5.299375 225.95875 -6.59875 225.9175 -7.9375 225.875 C-14.92230308 225.10380723 -19.87050877 221.28530766 -24.5625 216.25 C-26 214 -26 214 -26 212 C-26.86246338 212.16081055 -27.72492676 212.32162109 -28.61352539 212.48730469 C-43.50632599 214.74200019 -60.52461034 214.25139268 -75 210 C-76.79630859 209.50693359 -76.79630859 209.50693359 -78.62890625 209.00390625 C-106.47826422 200.61134686 -130.03405521 181.46344676 -144.22265625 156.1171875 C-153.30077971 139.15147997 -157.40186692 121.65711867 -157.375 102.4375 C-157.37445618 101.77836609 -157.37391235 101.11923218 -157.37335205 100.44012451 C-157.33178571 89.45231089 -156.37184491 79.45142733 -153 69 C-152.79101074 68.32372559 -152.58202148 67.64745117 -152.36669922 66.95068359 C-144.86139118 43.18668577 -128.27229217 21.13680739 -107 8 C-106.13632813 7.43023438 -105.27265625 6.86046875 -104.3828125 6.2734375 C-73.47036569 -13.16458307 -33.06233427 -14.66093106 0 0 Z M-41 1 C-41 17.17 -41 33.34 -41 50 C-32.421994 50.09121551 -32.421994 50.09121551 -24.11328125 49.34375 C-22.67758789 49.14072266 -22.67758789 49.14072266 -21.21289062 48.93359375 C-20.25576172 48.79050781 -19.29863281 48.64742187 -18.3125 48.5 C-17.31283203 48.35691406 -16.31316406 48.21382812 -15.28320312 48.06640625 C-12.85438983 47.71777276 -10.42681451 47.36223988 -8 47 C-8.54560192 41.72130138 -9.83661405 37.23707356 -12 32.375 C-12.30687744 31.68349854 -12.61375488 30.99199707 -12.92993164 30.27954102 C-18.4725286 18.2514844 -26.26757562 6.15360034 -39 1 C-39.66 1 -40.32 1 -41 1 Z M-64.3125 8.06640625 C-73.31763266 17.55619015 -84 33.50500492 -84 47 C-80.56429127 47.51283306 -77.12622082 48.00780398 -73.6875 48.5 C-72.73037109 48.64308594 -71.77324219 48.78617188 -70.78710938 48.93359375 C-69.82998047 49.06894531 -68.87285156 49.20429687 -67.88671875 49.34375 C-67.02264404 49.46943359 -66.15856934 49.59511719 -65.26831055 49.72460938 C-60.52811889 50.12402195 -55.75698931 50 -51 50 C-51 33.83 -51 17.66 -51 1 C-56.01463677 1 -60.73251051 4.86739537 -64.3125 8.06640625 Z M-18 4 C-16.5676204 7.11753207 -14.77628937 9.9176574 -12.87768555 12.77026367 C-6.3219603 22.64217732 -1.87598233 32.80512365 2 44 C11.7149264 41.90245907 20.77466062 38.61755059 30 35 C17.70118238 19.86299369 0.99225111 8.79008103 -18 4 Z M-75 4 C-93.02765046 10.04080272 -110.8302599 18.89568294 -122 35 C-112.75898497 38.94947945 -103.9047278 42.09588707 -94 44 C-93.47212891 42.49373047 -93.47212891 42.49373047 -92.93359375 40.95703125 C-88.33451855 28.10458302 -82.93149055 16.50603904 -74 6 C-74.495 5.01 -74.495 5.01 -75 4 Z M-129 42 C-140.23676822 59.37953485 -146.26020697 76.12248364 -148 97 C-132.82 97 -117.64 97 -102 97 C-101.09785379 87.95202473 -101.09785379 87.95202473 -100.20556641 78.90307617 C-99.53344634 72.28616997 -98.71107823 65.78164855 -97.38037109 59.26293945 C-96.88949212 56.72500355 -96.88949212 56.72500355 -97 53 C-97.79172607 52.73783691 -98.58345215 52.47567383 -99.39916992 52.20556641 C-102.35351686 51.22648565 -105.30740174 50.24602634 -108.26098633 49.26464844 C-110.16127053 48.63370881 -112.06207715 48.00434331 -113.96289062 47.375 C-115.16494141 46.97539063 -116.36699219 46.57578125 -117.60546875 46.1640625 C-119.26292114 45.61419678 -119.26292114 45.61419678 -120.95385742 45.05322266 C-123.67419648 44.11264859 -126.33894495 43.09560118 -129 42 Z M29.90234375 44.42578125 C29.10481689 44.72669678 28.30729004 45.0276123 27.4855957 45.33764648 C26.64472412 45.65934814 25.80385254 45.9810498 24.9375 46.3125 C18.34689256 48.79276921 11.78832937 51.1081705 5 53 C5.45542026 58.30924145 6.06578231 63.5547382 6.9375 68.8125 C8.31960336 78.16202272 9.10394731 87.59144675 10 97 C25.18 97 40.36 97 56 97 C53.74132513 78.93060105 50.16307328 57.14484946 37 43 C34.06793409 43 32.58739975 43.39854735 29.90234375 44.42578125 Z M-87 56 C-88.8963866 61.08726319 -89.81785392 66.09633435 -90.625 71.4375 C-90.7590625 72.23865234 -90.893125 73.03980469 -91.03125 73.86523438 C-92.2415887 81.7880127 -92 88.71079711 -92 97 C-78.47 97 -64.94 97 -51 97 C-51 84.79 -51 72.58 -51 60 C-53.7373315 59.08755617 -55.86932432 58.7460568 -58.71875 58.5 C-60.11867188 58.37625 -60.11867188 58.37625 -61.546875 58.25 C-62.52140625 58.1675 -63.4959375 58.085 -64.5 58 C-66.40625 57.83333333 -68.3125 57.66666667 -70.21875 57.5 C-71.16234375 57.41878906 -72.1059375 57.33757812 -73.078125 57.25390625 C-77.72007483 56.85052826 -82.36003498 56.42551874 -87 56 Z M-16.375 56.9375 C-22.92993012 57.92143243 -29.40409416 58.41784296 -36.015625 58.75390625 C-38.92502301 58.80743017 -38.92502301 58.80743017 -41 60 C-41 72.21 -41 84.42 -41 97 C-27.47 97 -13.94 97 0 97 C0 88.66393813 -0.11372481 81.22626755 -1.375 73.125 C-1.50132812 72.24070312 -1.62765625 71.35640625 -1.7578125 70.4453125 C-2.49589497 65.48539828 -3.50049879 60.78536473 -5 56 C-8.90158052 55.89121987 -12.52414766 56.32262031 -16.375 56.9375 Z M-148 107 C-146.68656224 120.50808704 -146.68656224 120.50808704 -143.3125 133.1875 C-143.05484863 133.92379639 -142.79719727 134.66009277 -142.53173828 135.41870117 C-139.23304965 144.54875359 -135.31161033 153.54458256 -129 161 C-124.55795745 160.29681952 -120.53956988 158.75853371 -116.375 157.125 C-110.00508271 154.67401757 -103.64251977 152.6043374 -97 151 C-97.86420528 143.00610117 -98.86850385 135.03316314 -99.89453125 127.05859375 C-100.02214844 126.05183594 -100.14976563 125.04507813 -100.28125 124.0078125 C-100.39533203 123.11723145 -100.50941406 122.22665039 -100.62695312 121.30908203 C-101.16373064 116.54764066 -101.5661887 111.77192433 -102 107 C-117.18 107 -132.36 107 -148 107 Z M-92 107 C-92.03839358 119.93977141 -92.03839358 119.93977141 -90.625 132.5625 C-90.49867187 133.39845703 -90.37234375 134.23441406 -90.2421875 135.09570312 C-89.53424841 139.57341786 -88.59036498 143.73367308 -87 148 C-85.90945312 147.87882812 -84.81890625 147.75765625 -83.6953125 147.6328125 C-78.796875 147.08854167 -73.8984375 146.54427083 -69 146 C-63.06 145.34 -57.12 144.68 -51 144 C-51 131.79 -51 119.58 -51 107 C-64.53 107 -78.06 107 -92 107 Z M-41 107 C-41 119.21 -41 131.42 -41 144 C-37.04 144.33 -33.08 144.66 -29 145 C-28.62875 142.463125 -28.62875 142.463125 -28.25 139.875 C-26.74618388 131.77513526 -22.70813312 126.63014594 -16 122 C-10.77173373 119.4897397 -5.72833839 119.41409675 0 119 C0 115.04 0 111.08 0 107 C-13.53 107 -27.06 107 -41 107 Z M10 107 C9.67 110.96 9.34 114.92 9 119 C15.39037797 119.024644 21.78072852 119.04283317 28.17114258 119.05493164 C30.34692873 119.05997308 32.52271147 119.06680607 34.69848633 119.07543945 C37.81853067 119.08751338 40.93853038 119.09323005 44.05859375 119.09765625 C45.03775253 119.10281754 46.01691132 119.10797882 47.02574158 119.11329651 C47.92659988 119.11337204 48.82745819 119.11344757 49.75561523 119.11352539 C50.55281479 119.115746 51.35001434 119.11796661 52.17137146 119.12025452 C54.01922281 119.20050456 54.01922281 119.20050456 55 118 C55.33 114.37 55.66 110.74 56 107 C40.82 107 25.64 107 10 107 Z M-14.86328125 132.71875 C-15.34152344 133.3065625 -15.81976563 133.894375 -16.3125 134.5 C-17.04919922 135.38171875 -17.04919922 135.38171875 -17.80078125 136.28125 C-20.21492564 139.7412615 -20.14017149 142.92935609 -20.17700195 147.01269531 C-20.18983719 148.25118225 -20.20267242 149.48966919 -20.21589661 150.76568604 C-20.22406547 152.11982827 -20.23150892 153.47397506 -20.23828125 154.828125 C-20.24235678 155.51168816 -20.2464323 156.19525131 -20.25063133 156.8995285 C-20.27147556 160.51911617 -20.28578317 164.13866613 -20.29516602 167.75830078 C-20.30621463 171.48512987 -20.34060035 175.21135928 -20.38033772 178.93797684 C-20.4065651 181.81373149 -20.41486331 184.68934471 -20.41844749 187.56520844 C-20.42329935 188.93826081 -20.43487334 190.31130746 -20.45348549 191.68424225 C-20.63187254 202.06099418 -20.63187254 202.06099418 -16 211 C-10.67119727 216.18857107 -5.02213041 217.17607166 2.14453125 217.65625 C3.06298828 217.82640625 3.06298828 217.82640625 4 218 C5.6498007 221.29960141 5.38258361 224.99127884 5.5625 228.625 C5.60568359 229.42679687 5.64886719 230.22859375 5.69335938 231.0546875 C5.79951457 233.0362511 5.90026855 235.01810271 6 237 C11.16663815 237 13.11516337 234.723737 16.75 231.4375 C17.33265625 230.92380859 17.9153125 230.41011719 18.515625 229.88085938 C19.1034375 229.36201172 19.69125 228.84316406 20.296875 228.30859375 C20.87012512 227.80567307 21.44337524 227.30275238 22.03399658 226.78459167 C23.31522283 225.62158978 24.561473 224.41847578 25.7633667 223.17366028 C30.1098056 218.8702295 33.12353699 217.2035085 39.25720215 217.13140869 C40.13138794 217.15507507 41.00557373 217.17874146 41.90625 217.203125 C42.83038696 217.19794861 43.75452393 217.19277222 44.70666504 217.18743896 C47.63888718 217.17561499 50.56806704 217.20991592 53.5 217.25 C56.43131196 217.2688307 59.36197056 217.2774503 62.29333496 217.26971436 C64.10987744 217.26706172 65.92654147 217.28045722 67.74279785 217.31280518 C74.15029516 217.33430269 79.95893331 216.53903101 85.05859375 212.28125 C85.51363281 211.6934375 85.96867187 211.105625 86.4375 210.5 C87.14712891 209.61828125 87.14712891 209.61828125 87.87109375 208.71875 C90.17897167 205.20502582 90.13566582 202.05342182 90.16113281 197.97143555 C90.17074036 196.72972092 90.1803479 195.48800629 90.19024658 194.20866394 C90.19509506 192.85135075 90.19937377 191.49403542 90.203125 190.13671875 C90.20887963 188.74290465 90.21463733 187.34909056 90.22039795 185.95527649 C90.23089962 183.03243644 90.23674752 180.10962383 90.24023438 177.18676758 C90.24571296 173.45098228 90.26973046 169.71556259 90.29820633 165.97989178 C90.31687986 163.09988871 90.32204083 160.21997281 90.32357025 157.33991432 C90.32658743 155.96326515 90.33458432 154.58661717 90.34775543 153.21002769 C90.36491028 151.27900851 90.36107729 149.34783788 90.35644531 147.41674805 C90.36009094 146.3199321 90.36373657 145.22311615 90.36749268 144.09306335 C89.74593286 138.86160156 87.56221158 134.99250109 83.5 131.6875 C82.61828125 130.95080078 82.61828125 130.95080078 81.71875 130.19921875 C77.79583316 127.46209268 73.61799771 127.84554921 69.04370117 127.83886719 C67.8285508 127.83141983 67.8285508 127.83141983 66.58885193 127.82382202 C63.90688224 127.80920854 61.22497172 127.80239954 58.54296875 127.796875 C56.67832945 127.79112261 54.81369017 127.78536489 52.9490509 127.77960205 C49.03756434 127.7690942 45.12609831 127.76325021 41.21459961 127.75976562 C36.2076378 127.75428322 31.20094824 127.73025969 26.19407177 127.70179367 C22.34128532 127.68314997 18.48856421 127.67796075 14.63573647 127.67642975 C12.79018987 127.6734063 10.94464434 127.66538815 9.09914207 127.65224457 C6.5140462 127.63514881 3.92961222 127.6370729 1.34448242 127.64355469 C0.58530518 127.6343399 -0.17387207 127.62512512 -0.95605469 127.6156311 C-6.58127169 127.65971107 -10.69568152 128.87442321 -14.86328125 132.71875 Z M-74.25 155.5 C-75.19746094 155.64308594 -76.14492187 155.78617188 -77.12109375 155.93359375 C-79.4153898 156.28121436 -81.70814355 156.63670404 -84 157 C-83.45439808 162.27869862 -82.16338595 166.76292644 -80 171.625 C-79.69312256 172.31650146 -79.38624512 173.00800293 -79.07006836 173.72045898 C-73.5274714 185.7485156 -65.73242438 197.84639966 -53 203 C-52.34 203 -51.68 203 -51 203 C-51 186.83 -51 170.66 -51 154 C-59.11644118 154 -66.35223372 154.24584827 -74.25 155.5 Z M-41 154 C-41 170.5 -41 187 -41 204 C-34.41446025 204.25015173 -34.41446025 204.25015173 -29 202 C-28.90688111 200.49581261 -28.88253972 198.98728644 -28.88647461 197.48022461 C-28.88655014 196.51930405 -28.88662567 195.55838348 -28.88670349 194.56834412 C-28.89186478 193.523564 -28.89702606 192.47878387 -28.90234375 191.40234375 C-28.90446617 189.80635094 -28.90446617 189.80635094 -28.90663147 188.17811584 C-28.91224936 184.76454917 -28.92480489 181.351047 -28.9375 177.9375 C-28.94251269 175.62955824 -28.947076 173.32161545 -28.95117188 171.01367188 C-28.96222461 165.34242289 -28.97950123 159.6712224 -29 154 C-32.96 154 -36.92 154 -41 154 Z M-107.4375 163.3125 C-108.39205078 163.62123047 -109.34660156 163.92996094 -110.33007812 164.24804688 C-111.25111328 164.55419922 -112.17214844 164.86035156 -113.12109375 165.17578125 C-113.9608374 165.45333252 -114.80058105 165.73088379 -115.66577148 166.0168457 C-118.11487335 167.04838353 -119.94937341 168.32328861 -122 170 C-108.94371486 184.27776711 -92.85123935 194.99865079 -74 200 C-75.3968763 196.95495749 -77.14357816 194.25133979 -79.02124023 191.48242188 C-85.61656041 181.68539613 -90.40426564 171.2562119 -94 160 C-98.74861853 160 -102.96332402 161.81709619 -107.4375 163.3125 Z " fill="#66295B" transform="translate(157,9)"/>
<path d="M0 0 C0.69773026 -0.0049649 1.39546051 -0.00992981 2.11433411 -0.01504517 C4.42657449 -0.02967177 6.73874631 -0.03646906 9.05102539 -0.04199219 C10.65523786 -0.04774258 12.2594503 -0.05350033 13.86366272 -0.05926514 C17.2287732 -0.06977609 20.59385978 -0.07561835 23.95898438 -0.07910156 C28.27463044 -0.08459104 32.58996176 -0.10862811 36.905509 -0.13707352 C40.21945627 -0.15567925 43.53332736 -0.16090435 46.84732246 -0.16243744 C48.43857103 -0.16546844 50.02981811 -0.17351201 51.62101555 -0.18662262 C53.84524517 -0.20364298 56.06870076 -0.20181335 58.29296875 -0.1953125 C59.55934677 -0.19895813 60.82572479 -0.20260376 62.13047791 -0.20635986 C65.21118164 0.16113281 65.21118164 0.16113281 67.1552887 1.48809814 C68.21118164 3.16113281 68.21118164 3.16113281 68.02368164 6.28613281 C67.75555664 7.23488281 67.48743164 8.18363281 67.21118164 9.16113281 C64.28465256 10.62439735 61.69033325 10.30463445 58.42236328 10.32226562 C57.72463303 10.32723053 57.02690277 10.33219543 56.30802917 10.33731079 C53.99578879 10.35193739 51.68361697 10.35873468 49.37133789 10.36425781 C47.76712542 10.37000821 46.16291298 10.37576595 44.55870056 10.38153076 C41.19359008 10.39204172 37.8285035 10.39788397 34.46337891 10.40136719 C30.14773284 10.40685667 25.83240153 10.43089374 21.51685429 10.45933914 C18.20290701 10.47794488 14.88903592 10.48316998 11.57504082 10.48470306 C9.98379225 10.48773406 8.39254517 10.49577764 6.80134773 10.50888824 C4.57711811 10.52590861 2.35366252 10.52407898 0.12939453 10.51757812 C-1.13698349 10.52122375 -2.40336151 10.52486938 -3.70811462 10.52862549 C-6.78881836 10.16113281 -6.78881836 10.16113281 -8.73292542 8.83416748 C-9.78881836 7.16113281 -9.78881836 7.16113281 -9.60131836 4.03613281 C-9.33319336 3.08738281 -9.06506836 2.13863281 -8.78881836 1.16113281 C-5.86228928 -0.30213173 -3.26796997 0.01763118 0 0 Z " fill="#662A5B" transform="translate(162.788818359375,152.8388671875)"/>
<path d="M0 0 C1.01514427 -0.0076664 1.01514427 -0.0076664 2.05079651 -0.01548767 C4.28794193 -0.0293877 6.52477942 -0.02842663 8.76196289 -0.02612305 C10.31751114 -0.03000981 11.87305832 -0.03434444 13.42860413 -0.03910828 C16.68941691 -0.04657139 19.95012142 -0.04627862 23.2109375 -0.04101562 C27.38860728 -0.03522135 31.56583367 -0.05215018 35.74343014 -0.0753603 C38.95620818 -0.09009602 42.16887941 -0.09096957 45.38168526 -0.08785057 C46.92185914 -0.08836388 48.46203898 -0.09360356 50.0021801 -0.10366249 C52.1566939 -0.11600666 54.31034366 -0.10924827 56.46484375 -0.09765625 C58.30326088 -0.09860039 58.30326088 -0.09860039 60.17881775 -0.0995636 C63.51178892 0.30042034 64.88219123 1.00750223 67.29711914 3.2746582 C66.42211914 9.1496582 66.42211914 9.1496582 65.29711914 10.2746582 C63.0075582 10.38492459 60.71454662 10.42381027 58.42236328 10.43579102 C57.70366562 10.44075592 56.98496796 10.44572083 56.24449158 10.45083618 C53.8570766 10.46549148 51.46972804 10.47226501 49.08227539 10.4777832 C47.42939755 10.48353146 45.77651974 10.48928923 44.12364197 10.49505615 C40.65420215 10.50557544 37.18478557 10.51141216 33.71533203 10.51489258 C29.26167958 10.52038225 24.8083321 10.54441627 20.35477543 10.57286453 C16.93964225 10.59145345 13.52458312 10.59669448 10.10940361 10.59822845 C8.46708952 10.60126353 6.82477699 10.60932065 5.18251228 10.62241364 C2.88852603 10.63939818 0.59529249 10.63761311 -1.69873047 10.63110352 C-3.00587509 10.63474915 -4.31301971 10.63839478 -5.65977478 10.64215088 C-6.66399979 10.5208783 -7.66822479 10.39960571 -8.70288086 10.2746582 C-10.70288086 7.2746582 -10.70288086 7.2746582 -10.51538086 4.7121582 C-8.77653682 -0.50437393 -4.75612513 0.01789112 0 0 Z " fill="#672A5B" transform="translate(163.702880859375,173.725341796875)"/>
<path d="M0 0 C1.13457642 -0.00630432 2.26915283 -0.01260864 3.43811035 -0.019104 C5.28342346 -0.01303131 5.28342346 -0.01303131 7.16601562 -0.00683594 C9.0524176 -0.00970612 9.0524176 -0.00970612 10.97692871 -0.01263428 C13.64019438 -0.01399743 16.30309492 -0.011291 18.96630859 -0.00195312 C22.38297957 0.00944154 25.79933635 0.00288159 29.21599579 -0.00909805 C32.47018042 -0.01805547 35.7243269 -0.01178722 38.97851562 -0.00683594 C40.20872437 -0.0108844 41.43893311 -0.01493286 42.7064209 -0.019104 C44.40828552 -0.00964752 44.40828552 -0.00964752 46.14453125 0 C47.14665649 0.00159119 48.14878174 0.00318237 49.18127441 0.00482178 C51.57226562 0.25878906 51.57226562 0.25878906 53.57226562 2.25878906 C53.82226562 4.75878906 53.82226562 4.75878906 53.57226562 7.25878906 C50.94811807 9.88293662 49.802455 9.51177003 46.14453125 9.51757812 C45.00995483 9.52388245 43.87537842 9.53018677 42.7064209 9.53668213 C40.86110779 9.53060944 40.86110779 9.53060944 38.97851562 9.52441406 C37.72091431 9.52632751 36.46331299 9.52824097 35.16760254 9.5302124 C32.50433687 9.53157555 29.84143633 9.52886912 27.17822266 9.51953125 C23.76155168 9.50813658 20.3451949 9.51469654 16.92853546 9.52667618 C13.67435083 9.5356336 10.42020435 9.52936534 7.16601562 9.52441406 C5.93580688 9.52846252 4.70559814 9.53251099 3.43811035 9.53668213 C1.73624573 9.52722565 1.73624573 9.52722565 0 9.51757812 C-1.00212524 9.51598694 -2.00425049 9.51439575 -3.03674316 9.51275635 C-5.42773438 9.25878906 -5.42773438 9.25878906 -7.42773438 7.25878906 C-7.67773438 4.75878906 -7.67773438 4.75878906 -7.42773438 2.25878906 C-4.80358682 -0.36535849 -3.65792375 0.0058081 0 0 Z " fill="#67295C" transform="translate(160.427734375,195.7412109375)"/>
</svg>
