<?xml version="1.0" encoding="UTF-8"?>
<svg version="1.1" xmlns="http://www.w3.org/2000/svg" width="512" height="512">
<path d="M0 0 C3.60287466 0.79087493 5.20096261 2.91937007 7.5625 5.5625 C8.84922147 6.83834011 10.14131043 8.10878013 11.4375 9.375 C14.61387454 12.55137454 17.59462575 15.83470778 20.5234375 19.23828125 C23.1100345 22.18660542 25.77089896 25.06161509 28.4375 27.9375 C33.53044975 33.43400027 38.56432103 38.97952496 43.5625 44.5625 C47.92055185 49.42310197 52.28727682 54.27455786 56.70629883 59.07983398 C57.6472045 60.1046132 58.58587217 61.13145205 59.5222168 62.16040039 C61.65801904 64.50610762 63.81327716 66.81723264 66.0390625 69.078125 C69.25587456 72.41997216 71.30680896 74.69014232 72.625 79.1875 C70.08776679 87.24694666 59.16381438 91.75952321 52.1875 95.75 C45.15017677 99.84175464 38.17495247 103.99583874 31.3125 108.375 C23.52181347 113.34090937 15.68003197 118.21965886 7.8125 123.0625 C6.70487305 123.74546143 5.59724609 124.42842285 4.45605469 125.13208008 C1.49703917 126.95146251 -1.46769887 128.7607884 -4.4375 130.5625 C-5.1706543 131.01052979 -5.90380859 131.45855957 -6.65917969 131.92016602 C-11.10822726 134.56998347 -11.10822726 134.56998347 -14.1875 134.5 C-16.79460144 133.41370774 -17.82767924 132.89767604 -19.4375 130.5625 C-19.5206275 127.75397815 -19.44230062 125.216269 -19.1875 122.4375 C-19.13464844 121.715625 -19.08179688 120.99375 -19.02734375 120.25 C-18.62618037 115.00688798 -18.03743309 109.78605535 -17.4375 104.5625 C-59.81730139 98.84426843 -99.25384992 103.06635013 -134.6875 129 C-140.18935906 133.26138686 -145.38160409 137.78341643 -150.4375 142.5625 C-151.24832031 143.30886719 -152.05914062 144.05523437 -152.89453125 144.82421875 C-180.04855106 170.69537148 -194.56114873 208.67477 -195.72094727 245.72705078 C-196.06013001 270.07410133 -190.10357038 298.06339443 -176.4375 318.5625 C-175.61703362 323.64939156 -175.61703362 323.64939156 -176.4375 326.5625 C-179.07157538 328.43349172 -181.62576147 329.99359266 -184.4375 331.5625 C-185.39849609 332.11921387 -186.35949219 332.67592773 -187.34960938 333.24951172 C-190.72408262 335.2031269 -194.11066051 337.13486192 -197.5 339.0625 C-198.73507405 339.76635456 -199.97009946 340.4702945 -201.20507812 341.17431641 C-204.94752916 343.30668767 -208.69222106 345.4351005 -212.4375 347.5625 C-213.01989441 347.89342651 -213.60228882 348.22435303 -214.20233154 348.56530762 C-217.94580569 350.69216979 -221.69104524 352.81589307 -225.4375 354.9375 C-226.86848022 355.74864258 -226.86848022 355.74864258 -228.32836914 356.57617188 C-229.65082642 357.32350586 -229.65082642 357.32350586 -231 358.0859375 C-232.14662109 358.7344165 -232.14662109 358.7344165 -233.31640625 359.39599609 C-239.04369721 362.54574243 -239.04369721 362.54574243 -242.375 362.6875 C-250.44299835 359.72374551 -254.52614836 345.56288603 -257.94140625 338.2109375 C-282.0105383 284.80726509 -283.10301544 222.28517889 -262.5625 167.625 C-259.06495587 158.64405336 -254.99938932 150.04601347 -250.4375 141.5625 C-250.09638184 140.91506836 -249.75526367 140.26763672 -249.40380859 139.60058594 C-240.9414701 123.59033025 -230.52538124 109.03058872 -218.4375 95.5625 C-217.63795898 94.67038818 -217.63795898 94.67038818 -216.82226562 93.76025391 C-210.69577322 86.96312049 -204.57322372 80.31791102 -197.4375 74.5625 C-196.33967952 73.65254185 -195.24204106 72.74236407 -194.14453125 71.83203125 C-165.29796203 48.1111079 -132.24648976 32.242415 -95.75 24.3125 C-95.06349365 24.16135742 -94.3769873 24.01021484 -93.66967773 23.85449219 C-79.64504444 20.99106896 -65.58607051 20.19038629 -51.3125 20.25 C-50.5159903 20.25016113 -49.71948059 20.25032227 -48.89883423 20.25048828 C-35.56270628 20.26916516 -22.59018588 21.24872908 -9.4375 23.5625 C-7.55613782 19.79977565 -7.76332454 15.04011625 -7.45117188 10.859375 C-7.08711022 7.13499203 -6.84023545 5.08720208 -4.515625 2.05859375 C-2.4375 0.5625 -2.4375 0.5625 0 0 Z " fill="#D8749C" transform="translate(305.4375,8.4375)"/>
<path d="M0 0 C4.45984068 4.89611174 6.9888086 10.63742083 9.8125 16.5625 C10.60926147 18.2333667 10.60926147 18.2333667 11.42211914 19.93798828 C36.89309048 74.29728952 38.98493403 136.19920303 18.75 192.5625 C4.0499113 231.76960123 -21.5331052 268.48205727 -55 294 C-55.55768066 294.42877441 -56.11536133 294.85754883 -56.68994141 295.29931641 C-65.74686958 302.23156743 -75.07834363 308.38283153 -85 314 C-85.63566895 314.36834961 -86.27133789 314.73669922 -86.92626953 315.11621094 C-129.52358103 339.67970189 -187.12710338 350.02836726 -235.27880859 338.45214844 C-236.86278352 338.0027545 -238.43385556 337.50805814 -240 337 C-240.07347656 338.35931641 -240.07347656 338.35931641 -240.1484375 339.74609375 C-240.57386123 346.67756665 -240.99897702 353.32992339 -243 360 C-246 362 -246 362 -249.328125 361.98828125 C-253.81582446 360.78042171 -255.87685126 358.63459054 -258.75 355.1875 C-259.79538747 353.99462912 -260.84096451 352.80192435 -261.88671875 351.609375 C-262.40669434 351.00416016 -262.92666992 350.39894531 -263.46240234 349.77539062 C-265.77150666 347.10917809 -268.16721428 344.5260789 -270.5625 341.9375 C-271.47064913 340.94716175 -272.37820161 339.95627604 -273.28515625 338.96484375 C-276.02222788 335.97545295 -278.76098946 332.98761423 -281.5 330 C-282.41667404 329.00000675 -283.3333407 328.00000676 -284.25 327 C-284.930625 326.2575 -284.930625 326.2575 -285.625 325.5 C-287 324 -288.375 322.5 -289.75 321 C-290.4311084 320.25713745 -290.4311084 320.25713745 -291.12597656 319.49926758 C-292.03983063 318.50211444 -292.95324437 317.50455757 -293.86621094 316.5065918 C-296.19741017 313.95949456 -298.5365371 311.42050242 -300.890625 308.89453125 C-303.62420881 305.95616031 -306.32138086 302.9886445 -309 300 C-310.12921875 298.74123047 -310.12921875 298.74123047 -311.28125 297.45703125 C-311.9309375 296.68746094 -312.580625 295.91789062 -313.25 295.125 C-314.09304688 294.13886719 -314.09304688 294.13886719 -314.953125 293.1328125 C-316 291 -316 291 -316.06640625 288.0546875 C-314.63772456 283.96227327 -312.15809981 282.31595198 -308.6875 280 C-308.02451904 279.53634033 -307.36153809 279.07268066 -306.6784668 278.5949707 C-305.22933336 277.583959 -303.77471714 276.58077205 -302.31542969 275.58447266 C-299.9487972 273.96496139 -297.60154184 272.32042692 -295.2578125 270.66796875 C-291.04587899 267.70071829 -286.82181575 264.75133358 -282.59375 261.80712891 C-278.3290808 258.83582982 -274.07073139 255.85551459 -269.8125 252.875 C-268.98814453 252.29838623 -268.16378906 251.72177246 -267.31445312 251.12768555 C-262.53720572 247.78408442 -257.76955127 244.4274235 -253.01196289 241.0559082 C-250.89595466 239.55903614 -248.77461882 238.06999862 -246.65234375 236.58203125 C-244.46849515 235.04892823 -242.32446169 233.49170205 -240.19140625 231.88671875 C-236.44516643 229.13863389 -234.82442746 228.01308615 -230.0625 227.9375 C-227 229 -227 229 -225 232 C-224.98828125 234.71484375 -224.98828125 234.71484375 -225.3125 237.9375 C-225.42078125 239.08476562 -225.5290625 240.23203125 -225.640625 241.4140625 C-225.81851563 243.18910156 -225.81851563 243.18910156 -226 245 C-226.19130731 247.27051575 -226.37908037 249.54133345 -226.5625 251.8125 C-226.70790515 253.54170273 -226.85357033 255.27088373 -227 257 C-189.46040753 265.54559829 -150.88645354 258.96701277 -118.23242188 238.91455078 C-85.34751849 218.09951199 -61.48446274 184.83578546 -52.7890625 146.85546875 C-50.86431202 137.96684686 -49.31975721 129.10612927 -49 120 C-48.96003906 119.24847656 -48.92007812 118.49695313 -48.87890625 117.72265625 C-48.1342533 92.09783416 -55.37386371 66.13295931 -67.8125 43.8828125 C-69 41 -69 41 -69 38.3671875 C-66.96513192 33.55027322 -61.87217111 31.22806912 -57.44921875 28.8203125 C-56.36922607 28.22766602 -55.2892334 27.63501953 -54.17651367 27.02441406 C-53.02513916 26.39760742 -51.87376465 25.77080078 -50.6875 25.125 C-48.25830055 23.79288912 -45.83174407 22.45603187 -43.40625 21.1171875 C-42.79134201 20.77792236 -42.17643402 20.43865723 -41.54289246 20.08911133 C-34.18423732 16.01526554 -26.93425786 11.75811048 -19.69213867 7.48095703 C-5.40029124 -0.93918109 -5.40029124 -0.93918109 0 0 Z " fill="#61B9A6" transform="translate(451,141)"/>
<path d="M0 0 C1.23169922 1.09054688 1.23169922 1.09054688 2.48828125 2.203125 C19.15557365 17.85949298 29.32663564 39.74668437 30.23828125 62.64453125 C30.82635488 89.89370062 22.60202346 113.36480848 3.68359375 133.40625 C-16.12405138 152.55075709 -40.00021789 159.49794244 -66.98828125 159.21484375 C-90.76059508 158.62099697 -111.61696514 146.99430418 -128.3125 130.75 C-146.86554155 111.03739335 -152.8140257 86.04421522 -152.13183594 59.80517578 C-151.12670682 38.41826177 -140.65742197 19.11462596 -126 4 C-125.47277344 3.39929688 -124.94554687 2.79859375 -124.40234375 2.1796875 C-92.64097684 -32.74969299 -33.54249359 -29.98578546 0 0 Z " fill="#F7E077" transform="translate(317,182)"/>
<path d="M0 0 C3.60287466 0.79087493 5.20096261 2.91937007 7.5625 5.5625 C8.84922147 6.83834011 10.14131043 8.10878013 11.4375 9.375 C14.61387454 12.55137454 17.59462575 15.83470778 20.5234375 19.23828125 C23.1100345 22.18660542 25.77089896 25.06161509 28.4375 27.9375 C33.53044975 33.43400027 38.56432103 38.97952496 43.5625 44.5625 C47.92055185 49.42310197 52.28727682 54.27455786 56.70629883 59.07983398 C57.6472045 60.1046132 58.58587217 61.13145205 59.5222168 62.16040039 C61.65801904 64.50610762 63.81327716 66.81723264 66.0390625 69.078125 C69.25587456 72.41997216 71.30680896 74.69014232 72.625 79.1875 C70.08776679 87.24694666 59.16381438 91.75952321 52.1875 95.75 C45.15017677 99.84175464 38.17495247 103.99583874 31.3125 108.375 C23.52181347 113.34090937 15.68003197 118.21965886 7.8125 123.0625 C6.70487305 123.74546143 5.59724609 124.42842285 4.45605469 125.13208008 C1.49703917 126.95146251 -1.46769887 128.7607884 -4.4375 130.5625 C-5.1706543 131.01052979 -5.90380859 131.45855957 -6.65917969 131.92016602 C-11.10822726 134.56998347 -11.10822726 134.56998347 -14.1875 134.5 C-16.79460144 133.41370774 -17.82767924 132.89767604 -19.4375 130.5625 C-19.5206275 127.75397815 -19.44230062 125.216269 -19.1875 122.4375 C-19.13464844 121.715625 -19.08179688 120.99375 -19.02734375 120.25 C-18.62618037 115.00688798 -18.03743309 109.78605535 -17.4375 104.5625 C-59.81730139 98.84426843 -99.25384992 103.06635013 -134.6875 129 C-140.18935906 133.26138686 -145.38160409 137.78341643 -150.4375 142.5625 C-151.24832031 143.30886719 -152.05914062 144.05523437 -152.89453125 144.82421875 C-180.04855106 170.69537148 -194.56114873 208.67477 -195.72094727 245.72705078 C-196.06013001 270.07410133 -190.10357038 298.06339443 -176.4375 318.5625 C-175.61703362 323.64939156 -175.61703362 323.64939156 -176.4375 326.5625 C-179.07157538 328.43349172 -181.62576147 329.99359266 -184.4375 331.5625 C-185.39849609 332.11921387 -186.35949219 332.67592773 -187.34960938 333.24951172 C-190.72408262 335.2031269 -194.11066051 337.13486192 -197.5 339.0625 C-198.73507405 339.76635456 -199.97009946 340.4702945 -201.20507812 341.17431641 C-204.94752916 343.30668767 -208.69222106 345.4351005 -212.4375 347.5625 C-213.01989441 347.89342651 -213.60228882 348.22435303 -214.20233154 348.56530762 C-217.94580569 350.69216979 -221.69104524 352.81589307 -225.4375 354.9375 C-226.86848022 355.74864258 -226.86848022 355.74864258 -228.32836914 356.57617188 C-229.65082642 357.32350586 -229.65082642 357.32350586 -231 358.0859375 C-232.14662109 358.7344165 -232.14662109 358.7344165 -233.31640625 359.39599609 C-239.04369721 362.54574243 -239.04369721 362.54574243 -242.375 362.6875 C-250.44299835 359.72374551 -254.52614836 345.56288603 -257.94140625 338.2109375 C-282.0105383 284.80726509 -283.10301544 222.28517889 -262.5625 167.625 C-259.06495587 158.64405336 -254.99938932 150.04601347 -250.4375 141.5625 C-250.09638184 140.91506836 -249.75526367 140.26763672 -249.40380859 139.60058594 C-240.9414701 123.59033025 -230.52538124 109.03058872 -218.4375 95.5625 C-217.63795898 94.67038818 -217.63795898 94.67038818 -216.82226562 93.76025391 C-210.69577322 86.96312049 -204.57322372 80.31791102 -197.4375 74.5625 C-196.33967952 73.65254185 -195.24204106 72.74236407 -194.14453125 71.83203125 C-165.29796203 48.1111079 -132.24648976 32.242415 -95.75 24.3125 C-95.06349365 24.16135742 -94.3769873 24.01021484 -93.66967773 23.85449219 C-79.64504444 20.99106896 -65.58607051 20.19038629 -51.3125 20.25 C-50.5159903 20.25016113 -49.71948059 20.25032227 -48.89883423 20.25048828 C-35.56270628 20.26916516 -22.59018588 21.24872908 -9.4375 23.5625 C-7.55613782 19.79977565 -7.76332454 15.04011625 -7.45117188 10.859375 C-7.08711022 7.13499203 -6.84023545 5.08720208 -4.515625 2.05859375 C-2.4375 0.5625 -2.4375 0.5625 0 0 Z M4.5625 21.5625 C2.18813121 23.93686879 2.57647613 29.43764252 2.16015625 32.65625 C1.96292969 33.6153125 1.76570313 34.574375 1.5625 35.5625 C-3.32487858 38.00618929 -10.53590351 35.73830718 -15.74609375 34.82421875 C-38.31291404 30.97919478 -61.78840897 31.42163992 -84.4375 34.5625 C-85.1166748 34.65370117 -85.79584961 34.74490234 -86.49560547 34.83886719 C-105.60929389 37.54028112 -124.1805045 44.05137102 -141.4375 52.5625 C-142.21577148 52.94277344 -142.99404297 53.32304688 -143.79589844 53.71484375 C-159.67669016 61.54928204 -174.03505917 70.96383055 -187.4375 82.5625 C-188.62666016 83.58537109 -188.62666016 83.58537109 -189.83984375 84.62890625 C-192.41652981 86.89655702 -194.93427349 89.21392686 -197.4375 91.5625 C-197.96214844 92.05314941 -198.48679687 92.54379883 -199.02734375 93.04931641 C-208.62765065 102.10364742 -216.74884405 111.85110681 -224.4375 122.5625 C-224.87513672 123.16078613 -225.31277344 123.75907227 -225.76367188 124.37548828 C-241.88764926 146.55539009 -252.86036309 172.05293196 -259.4375 198.5625 C-259.88416016 200.34914062 -259.88416016 200.34914062 -260.33984375 202.171875 C-268.05485595 235.48844511 -267.08550771 274.04583691 -256.4375 306.5625 C-256.16421875 307.41231445 -255.8909375 308.26212891 -255.609375 309.13769531 C-252.26373495 319.44042374 -248.67184708 329.5973403 -244.125 339.4375 C-243.79983398 340.15083496 -243.47466797 340.86416992 -243.13964844 341.59912109 C-242.32324988 343.29677231 -241.38955475 344.93704067 -240.4375 346.5625 C-237.49147018 347.91371831 -237.49147018 347.91371831 -234.93579102 346.48950195 C-233.94764404 345.93222412 -232.95949707 345.37494629 -231.94140625 344.80078125 C-230.83385986 344.18146729 -229.72631348 343.56215332 -228.58520508 342.92407227 C-227.38990583 342.24145232 -226.19484204 341.55841992 -225 340.875 C-223.78507393 340.18944726 -222.56982102 339.50447341 -221.35424805 338.82006836 C-210.93246665 332.93055667 -200.6408369 326.82255249 -190.4375 320.5625 C-191.70362644 316.5520601 -193.18903603 312.71296546 -194.84863281 308.85595703 C-207.28285588 279.80460054 -212.55087385 246.57069805 -204.4375 215.5625 C-204.10242693 214.08401942 -203.77056861 212.60480773 -203.44140625 211.125 C-195.51665581 176.93820154 -175.32270391 144.94375272 -147.4375 123.5625 C-146.51453125 122.82386719 -145.5915625 122.08523437 -144.640625 121.32421875 C-126.34855773 107.01191206 -105.05536822 97.49001531 -82.4375 92.5625 C-81.72190918 92.39878906 -81.00631836 92.23507813 -80.26904297 92.06640625 C-57.87730756 87.06636014 -27.98729815 86.45627999 -6.4375 95.5625 C-5.2892315 97.859037 -5.32188825 99.14563167 -5.33984375 101.6953125 C-5.34306641 102.50097656 -5.34628906 103.30664062 -5.34960938 104.13671875 C-5.35798828 104.97847656 -5.36636719 105.82023437 -5.375 106.6875 C-5.37951172 107.53699219 -5.38402344 108.38648437 -5.38867188 109.26171875 C-5.40047126 111.36200909 -5.41840694 113.4622633 -5.4375 115.5625 C-0.44296715 113.83092849 3.88051297 111.10504369 8.375 108.375 C9.23939697 107.85325195 10.10379395 107.33150391 10.99438477 106.79394531 C20.0733585 101.29251476 29.06699155 95.65437409 38.05859375 90.01171875 C44.2027954 86.15622433 50.37367577 82.34590231 56.5625 78.5625 C52.94946902 73.416668 49.05723362 68.93048594 44.5546875 64.546875 C42.07798416 62.07988422 39.81459703 59.46840999 37.53515625 56.8203125 C35.13048524 54.06803558 32.66260011 51.37621977 30.1875 48.6875 C26.77232305 44.97532587 23.37082023 41.25264766 20 37.5 C19.28714844 36.70722656 18.57429688 35.91445313 17.83984375 35.09765625 C16.63212007 33.75320914 15.42465855 32.40852444 14.21923828 31.06201172 C12.83620745 29.51819693 11.4496337 27.97762821 10.0625 26.4375 C8.80953125 25.04144531 8.80953125 25.04144531 7.53125 23.6171875 C6.8815625 22.93914063 6.231875 22.26109375 5.5625 21.5625 C5.2325 21.5625 4.9025 21.5625 4.5625 21.5625 Z " fill="#020101" transform="translate(305.4375,8.4375)"/>
<path d="M0 0 C4.45984068 4.89611174 6.9888086 10.63742083 9.8125 16.5625 C10.60926147 18.2333667 10.60926147 18.2333667 11.42211914 19.93798828 C36.89309048 74.29728952 38.98493403 136.19920303 18.75 192.5625 C4.0499113 231.76960123 -21.5331052 268.48205727 -55 294 C-55.55768066 294.42877441 -56.11536133 294.85754883 -56.68994141 295.29931641 C-65.74686958 302.23156743 -75.07834363 308.38283153 -85 314 C-85.63566895 314.36834961 -86.27133789 314.73669922 -86.92626953 315.11621094 C-129.52358103 339.67970189 -187.12710338 350.02836726 -235.27880859 338.45214844 C-236.86278352 338.0027545 -238.43385556 337.50805814 -240 337 C-240.07347656 338.35931641 -240.07347656 338.35931641 -240.1484375 339.74609375 C-240.57386123 346.67756665 -240.99897702 353.32992339 -243 360 C-246 362 -246 362 -249.328125 361.98828125 C-253.81582446 360.78042171 -255.87685126 358.63459054 -258.75 355.1875 C-259.79538747 353.99462912 -260.84096451 352.80192435 -261.88671875 351.609375 C-262.40669434 351.00416016 -262.92666992 350.39894531 -263.46240234 349.77539062 C-265.77150666 347.10917809 -268.16721428 344.5260789 -270.5625 341.9375 C-271.47064913 340.94716175 -272.37820161 339.95627604 -273.28515625 338.96484375 C-276.02222788 335.97545295 -278.76098946 332.98761423 -281.5 330 C-282.41667404 329.00000675 -283.3333407 328.00000676 -284.25 327 C-284.930625 326.2575 -284.930625 326.2575 -285.625 325.5 C-287 324 -288.375 322.5 -289.75 321 C-290.4311084 320.25713745 -290.4311084 320.25713745 -291.12597656 319.49926758 C-292.03983063 318.50211444 -292.95324437 317.50455757 -293.86621094 316.5065918 C-296.19741017 313.95949456 -298.5365371 311.42050242 -300.890625 308.89453125 C-303.62420881 305.95616031 -306.32138086 302.9886445 -309 300 C-310.12921875 298.74123047 -310.12921875 298.74123047 -311.28125 297.45703125 C-311.9309375 296.68746094 -312.580625 295.91789062 -313.25 295.125 C-314.09304688 294.13886719 -314.09304688 294.13886719 -314.953125 293.1328125 C-316 291 -316 291 -316.06640625 288.0546875 C-314.63772456 283.96227327 -312.15809981 282.31595198 -308.6875 280 C-308.02451904 279.53634033 -307.36153809 279.07268066 -306.6784668 278.5949707 C-305.22933336 277.583959 -303.77471714 276.58077205 -302.31542969 275.58447266 C-299.9487972 273.96496139 -297.60154184 272.32042692 -295.2578125 270.66796875 C-291.04587899 267.70071829 -286.82181575 264.75133358 -282.59375 261.80712891 C-278.3290808 258.83582982 -274.07073139 255.85551459 -269.8125 252.875 C-268.98814453 252.29838623 -268.16378906 251.72177246 -267.31445312 251.12768555 C-262.53720572 247.78408442 -257.76955127 244.4274235 -253.01196289 241.0559082 C-250.89595466 239.55903614 -248.77461882 238.06999862 -246.65234375 236.58203125 C-244.46849515 235.04892823 -242.32446169 233.49170205 -240.19140625 231.88671875 C-236.44516643 229.13863389 -234.82442746 228.01308615 -230.0625 227.9375 C-227 229 -227 229 -225 232 C-224.98828125 234.71484375 -224.98828125 234.71484375 -225.3125 237.9375 C-225.42078125 239.08476562 -225.5290625 240.23203125 -225.640625 241.4140625 C-225.81851563 243.18910156 -225.81851563 243.18910156 -226 245 C-226.19130731 247.27051575 -226.37908037 249.54133345 -226.5625 251.8125 C-226.70790515 253.54170273 -226.85357033 255.27088373 -227 257 C-189.46040753 265.54559829 -150.88645354 258.96701277 -118.23242188 238.91455078 C-85.34751849 218.09951199 -61.48446274 184.83578546 -52.7890625 146.85546875 C-50.86431202 137.96684686 -49.31975721 129.10612927 -49 120 C-48.96003906 119.24847656 -48.92007812 118.49695313 -48.87890625 117.72265625 C-48.1342533 92.09783416 -55.37386371 66.13295931 -67.8125 43.8828125 C-69 41 -69 41 -69 38.3671875 C-66.96513192 33.55027322 -61.87217111 31.22806912 -57.44921875 28.8203125 C-56.36922607 28.22766602 -55.2892334 27.63501953 -54.17651367 27.02441406 C-53.02513916 26.39760742 -51.87376465 25.77080078 -50.6875 25.125 C-48.25830055 23.79288912 -45.83174407 22.45603187 -43.40625 21.1171875 C-42.79134201 20.77792236 -42.17643402 20.43865723 -41.54289246 20.08911133 C-34.18423732 16.01526554 -26.93425786 11.75811048 -19.69213867 7.48095703 C-5.40029124 -0.93918109 -5.40029124 -0.93918109 0 0 Z M-13.12109375 17.54296875 C-14.12986572 18.11708496 -15.1386377 18.69120117 -16.17797852 19.28271484 C-17.25362061 19.91129395 -18.3292627 20.53987305 -19.4375 21.1875 C-20.53956787 21.81865723 -21.64163574 22.44981445 -22.77709961 23.10009766 C-25.05976976 24.40873901 -27.3394481 25.72261188 -29.61621094 27.04150391 C-33.81931573 29.47421002 -38.0393806 31.87644073 -42.26000977 34.27856445 C-46.17821052 36.5105633 -50.08980063 38.75402039 -54 41 C-53.21507461 45.37834645 -51.68989323 49.05726087 -49.8125 53.0625 C-36.14673013 83.46706778 -32.67378103 117.63293266 -41 150 C-41.21430664 150.84111328 -41.42861328 151.68222656 -41.64941406 152.54882812 C-49.07734996 180.89824288 -62.951553 204.73983367 -83 226 C-83.93199219 227.01126953 -83.93199219 227.01126953 -84.8828125 228.04296875 C-108.57187211 252.87187851 -146.68320564 271.24874104 -180.98344421 272.26069641 C-184.65605449 272.32943895 -188.32690189 272.32958578 -192 272.3125 C-192.7694696 272.31134186 -193.53893921 272.31018372 -194.33172607 272.30899048 C-232.80545219 272.19454781 -232.80545219 272.19454781 -240 265 C-240.45790557 258.96642069 -239.7591914 252.97863225 -239 247 C-244.39961783 249.94717361 -249.304879 253.28694202 -254.25 256.9375 C-260.61655193 261.58817808 -267.04099096 266.13170806 -273.5625 270.5625 C-282.45114239 276.60239556 -291.2402004 282.77504638 -300 289 C-298.60571103 293.336932 -296.59877071 295.6973368 -293.3125 298.8125 C-290.34405587 301.69227084 -287.43560254 304.5417047 -284.75 307.6875 C-281.32207434 311.69216196 -277.73020898 315.53074275 -274.125 319.375 C-259.69722672 334.77669562 -259.69722672 334.77669562 -255.8828125 339.7734375 C-255.26148438 340.50820313 -254.64015625 341.24296875 -254 342 C-253.34 342 -252.68 342 -252 342 C-251.81824219 340.53626953 -251.81824219 340.53626953 -251.6328125 339.04296875 C-251.46523437 337.77066406 -251.29765625 336.49835938 -251.125 335.1875 C-250.96257812 333.92292969 -250.80015625 332.65835937 -250.6328125 331.35546875 C-250 328 -250 328 -248 325 C-242.7921227 324.38730855 -238.23675158 325.30114865 -233.125 326.375 C-188.97127206 335.60369528 -142.32292257 328.989296 -102 309 C-101.23139648 308.62649414 -100.46279297 308.25298828 -99.67089844 307.86816406 C-60.00908423 288.46537837 -28.94846901 256.93325042 -7 219 C-6.63422852 218.37834961 -6.26845703 217.75669922 -5.89160156 217.11621094 C12.58186677 185.49449002 20.22230657 149.70040075 20.25 113.4375 C20.25067474 112.63875458 20.25134949 111.84000916 20.25204468 111.01705933 C20.23603539 99.0679979 19.66836365 87.68352787 17 76 C16.64405983 74.3021821 16.28861496 72.6042603 15.93359375 70.90625 C12.42804839 54.73560427 7.20424478 39.35084482 0.3125 24.3125 C-0.05584961 23.49185059 -0.42419922 22.67120117 -0.80371094 21.82568359 C-1.16110352 21.07496582 -1.51849609 20.32424805 -1.88671875 19.55078125 C-2.19826904 18.88731689 -2.50981934 18.22385254 -2.83081055 17.5402832 C-3.91316614 15.87344128 -3.91316614 15.87344128 -5.81201172 15.11914062 C-8.88462345 14.95183037 -10.46621007 16.01031909 -13.12109375 17.54296875 Z " fill="#000101" transform="translate(451,141)"/>
<path d="M0 0 C1.23169922 1.09054688 1.23169922 1.09054688 2.48828125 2.203125 C19.15557365 17.85949298 29.32663564 39.74668437 30.23828125 62.64453125 C30.82635488 89.89370062 22.60202346 113.36480848 3.68359375 133.40625 C-16.12405138 152.55075709 -40.00021789 159.49794244 -66.98828125 159.21484375 C-90.76059508 158.62099697 -111.61696514 146.99430418 -128.3125 130.75 C-146.86554155 111.03739335 -152.8140257 86.04421522 -152.13183594 59.80517578 C-151.12670682 38.41826177 -140.65742197 19.11462596 -126 4 C-125.47277344 3.39929688 -124.94554687 2.79859375 -124.40234375 2.1796875 C-92.64097684 -32.74969299 -33.54249359 -29.98578546 0 0 Z M-115 10 C-115.598125 10.5053125 -116.19625 11.010625 -116.8125 11.53125 C-130.11384431 23.60098836 -138.96633967 42.5182862 -140.15234375 60.28173828 C-141.08666398 83.33608984 -135.49965638 104.01753741 -119.98828125 121.484375 C-104.64263463 137.93216922 -84.76604962 146.60792902 -62.32226562 147.45556641 C-42.00129009 147.79032542 -23.13223066 140.69106583 -8 127 C-6.86304688 126.00226563 -6.86304688 126.00226563 -5.703125 124.984375 C8.17393078 112.06435755 17.39170281 93.18704655 18.28515625 74.22265625 C18.90758291 50.96168296 11.92871881 29.83784493 -4.171875 12.66235352 C-19.29979775 -2.74805051 -40.22807643 -11.04790356 -61.75 -11.375 C-81.82296924 -11.44600763 -100.18304903 -3.2916766 -115 10 Z " fill="#020100" transform="translate(317,182)"/>
<path d="M0 0 C9.1799811 7.89675793 15.23519813 18.12604587 16.55078125 30.3125 C16.78094577 42.66014945 14.50373241 54.28918568 6.1171875 63.88671875 C5.4778125 64.54285156 4.8384375 65.19898438 4.1796875 65.875 C3.4990625 66.58269531 2.8184375 67.29039062 2.1171875 68.01953125 C-7.97771063 77.7358707 -18.88663068 80.18262302 -32.61328125 80.26220703 C-42.83058966 80.05325932 -51.24617152 75.51264199 -58.8203125 68.875 C-59.72716797 68.12476563 -59.72716797 68.12476563 -60.65234375 67.359375 C-69.10783276 59.76969859 -73.14186499 48.98456788 -74.0703125 37.88671875 C-74.55389398 25.26826441 -71.116003 14.44947283 -62.8203125 4.875 C-45.54818195 -13.36026051 -20.12034826 -15.30465835 0 0 Z " fill="#87D5EB" transform="translate(284.8203125,215.125)"/>
<path d="M0 0 C9.1799811 7.89675793 15.23519813 18.12604587 16.55078125 30.3125 C16.78094577 42.66014945 14.50373241 54.28918568 6.1171875 63.88671875 C5.4778125 64.54285156 4.8384375 65.19898438 4.1796875 65.875 C3.4990625 66.58269531 2.8184375 67.29039062 2.1171875 68.01953125 C-7.97771063 77.7358707 -18.88663068 80.18262302 -32.61328125 80.26220703 C-42.83058966 80.05325932 -51.24617152 75.51264199 -58.8203125 68.875 C-59.72716797 68.12476563 -59.72716797 68.12476563 -60.65234375 67.359375 C-69.10783276 59.76969859 -73.14186499 48.98456788 -74.0703125 37.88671875 C-74.55389398 25.26826441 -71.116003 14.44947283 -62.8203125 4.875 C-45.54818195 -13.36026051 -20.12034826 -15.30465835 0 0 Z M-55.55078125 14.0234375 C-56.03160156 14.75820312 -56.51242188 15.49296875 -57.0078125 16.25 C-57.49636719 16.97960937 -57.98492187 17.70921875 -58.48828125 18.4609375 C-62.79429926 26.26480593 -62.96246755 35.19099575 -61.8203125 43.875 C-59.26201711 52.58098621 -54.18048434 58.72040154 -46.8203125 63.875 C-46.17835938 64.32875 -45.53640625 64.7825 -44.875 65.25 C-37.56417881 69.37846373 -27.9325405 68.95522336 -19.8203125 67.875 C-15.98916348 66.75519898 -13.0395672 65.21235159 -9.8203125 62.875 C-9.16804688 62.41738281 -8.51578125 61.95976562 -7.84375 61.48828125 C-1.63235625 56.66453929 2.09128656 50.40783483 4.1796875 42.875 C5.51332731 30.84659478 3.79825109 22.35393242 -3.578125 12.53515625 C-9.48318166 5.90123276 -16.76974806 2.57661606 -25.50390625 1.36328125 C-37.08006813 0.83009058 -48.09378187 4.76531186 -55.55078125 14.0234375 Z " fill="#040503" transform="translate(284.8203125,215.125)"/>
</svg>
