<?xml version="1.0" standalone="no"?> 
<!DOCTYPE svg PUBLIC "-//W3C//DTD SVG 20010904//EN"
 "http://www.w3.org/TR/2001/REC-SVG-20010904/DTD/svg10.dtd">
<svg version="1.0" xmlns="http://www.w3.org/2000/svg"
 width="256.000000pt" height="256.000000pt" viewBox="0 0 256.000000 256.000000"
 preserveAspectRatio="xMidYMid meet">

<g transform="translate(0.000000,256.000000) scale(0.100000,-0.100000)"
 stroke="#672a5c" stroke-width="12" fill="#672a5c" >
<path d="M985 2233 c-396 -129 -722 -237 -724 -239 -2 -2 -260 -1294 -261
-1311 0 -1 196 -135 436 -297 l436 -296 819 97 c451 54 819 101 819 106 0 4
-115 201 -255 437 -140 236 -255 431 -255 434 0 3 126 168 280 368 154 199
276 365 272 369 -21 18 -823 560 -834 563 -7 2 -337 -102 -733 -231z m1038
-153 c174 -118 316 -217 317 -220 0 -3 -117 -156 -260 -340 -142 -184 -259
-339 -259 -345 0 -5 100 -179 223 -385 223 -374 223 -375 197 -382 -42 -12
-1304 -160 -1327 -155 -15 2 -698 456 -743 494 -4 3 203 1072 215 1115 4 13
102 49 377 139 205 66 494 161 642 209 149 49 277 88 286 87 9 -1 159 -99 332
-217z"/>
</g>
</svg>
