<?xml version="1.0" encoding="UTF-8"?>
<svg version="1.1" xmlns="http://www.w3.org/2000/svg" width="512" height="511">
<path d="M0 0 C1.09892578 0.64775391 2.19785156 1.29550781 3.33007812 1.96289062 C4.42384766 2.60806641 5.51761719 3.25324219 6.64453125 3.91796875 C7.72847168 4.55629639 8.81241211 5.19462402 9.92919922 5.85229492 C12.13094847 7.17687493 14.30965814 8.54040669 16.46533203 9.9387207 C17.5067334 10.59831787 18.54813477 11.25791504 19.62109375 11.9375 C20.5433374 12.54207031 21.46558105 13.14664063 22.41577148 13.76953125 C25.22978361 15.1245006 25.22978361 15.1245006 28.44189453 14.02905273 C30.73446111 12.95451725 32.83320902 11.93046372 34.93359375 10.53515625 C39.31478436 7.71287705 43.79003565 5.07230578 48.29003906 2.4440918 C50.39302048 1.21138129 52.48783408 -0.03539544 54.57324219 -1.29760742 C69.12918357 -10.00181212 69.12918357 -10.00181212 76.51953125 -8.7890625 C82.4804567 -7.09627856 87.62321461 -3.76497097 92.875 -0.5625 C93.93428711 0.06108398 94.99357422 0.68466797 96.08496094 1.32714844 C100.62703259 4.00737365 105.11443972 6.70933997 109.44140625 9.7265625 C110.34983276 10.33056885 110.34983276 10.33056885 111.27661133 10.94677734 C112.80806317 11.9755492 114.30447201 13.05598239 115.796875 14.140625 C121.70602398 15.31156236 126.17431985 11.73287998 131.1875 8.8125 C132.22213379 8.22839355 133.25676758 7.64428711 134.32275391 7.04248047 C137.44114175 5.26522945 140.53526495 3.45154999 143.625 1.625 C144.67365234 1.00947266 145.72230469 0.39394531 146.80273438 -0.24023438 C152.33959194 -3.48528691 152.33959194 -3.48528691 157.81665039 -6.8293457 C161.45674027 -8.9145913 164.86334619 -9.65668242 169.0390625 -8.8137207 C176.55666552 -6.44360768 183.17069503 -2.45364904 189.9375 1.5 C191.13500997 2.19015928 192.332925 2.87961621 193.53125 3.56835938 C196.50455773 5.28156013 199.46041755 7.0226917 202.41235352 8.7723999 C204.20874437 9.82494757 206.01968949 10.84831251 207.83398438 11.86962891 C208.99907271 12.5439492 210.1638006 13.21889275 211.328125 13.89453125 C212.35969727 14.48081299 213.39126953 15.06709473 214.45410156 15.67114258 C218.65004072 18.9582614 220.83388988 22.11668235 221.52215576 27.36381531 C221.64999911 30.39620787 221.63736244 33.39911965 221.578125 36.43359375 C221.57246521 37.53349136 221.56680542 38.63338898 221.56097412 39.76661682 C221.53867743 43.26153039 221.48849149 46.75539903 221.4375 50.25 C221.41742642 52.62693826 221.39917716 55.00389268 221.3828125 57.38085938 C221.33883462 63.19175962 221.27198909 69.00205513 221.1875 74.8125 C221.91026123 75.08707031 222.63302246 75.36164063 223.37768555 75.64453125 C226.09533565 76.77418961 228.58154279 78.05675898 231.14453125 79.5 C232.08522461 80.02916016 233.02591797 80.55832031 233.99511719 81.10351562 C250.66672303 90.58525441 250.66672303 90.58525441 258.4375 95.3125 C259.08565674 95.69664062 259.73381348 96.08078125 260.40161133 96.4765625 C264.73730136 99.16528965 267.25319288 101.74802319 268.75169373 106.6630249 C269.23660845 109.05471171 269.30744752 111.23244104 269.30102539 113.67285156 C269.30094986 114.63354553 269.30087433 115.5942395 269.30079651 116.58404541 C269.29563522 117.61334167 269.29047394 118.64263794 269.28515625 119.703125 C269.28303383 121.29275055 269.28303383 121.29275055 269.28086853 122.91448975 C269.27527382 126.29718862 269.26272225 129.67982115 269.25 133.0625 C269.24498432 135.35676988 269.24042153 137.65104079 269.23632812 139.9453125 C269.22530611 145.56773094 269.20857321 151.19011073 269.1875 156.8125 C270.10104248 157.10060547 271.01458496 157.38871094 271.95581055 157.68554688 C274.524664 158.58135616 276.58833622 159.45490594 278.89453125 160.84375 C279.55549805 161.23723633 280.21646484 161.63072266 280.89746094 162.03613281 C281.93821777 162.66793457 281.93821777 162.66793457 283 163.3125 C284.50094984 164.21412831 286.00226311 165.11515184 287.50390625 166.015625 C288.27234863 166.47775391 289.04079102 166.93988281 289.83251953 167.41601562 C292.17251976 168.80361684 294.53189865 170.14955168 296.90234375 171.484375 C297.66248779 171.91685547 298.42263184 172.34933594 299.20581055 172.79492188 C300.65412147 173.61754854 302.10718886 174.43187754 303.56567383 175.23632812 C308.97084145 178.33661109 313.1469445 181.69083349 315.1875 187.8125 C315.16563571 189.34265806 315.07732894 190.87233604 314.94848633 192.3972168 C311.72222337 217.59946621 311.72222337 217.59946621 318.76904297 240.56152344 C324.80472849 246.27354184 332.76581256 248.92575994 340.52148438 251.46142578 C349.02342035 254.59473117 358.00157223 259.44064446 362.1875 267.8125 C362.29348025 269.57290754 362.33628647 271.33727852 362.34863281 273.10083008 C362.35824036 274.20570267 362.3678479 275.31057526 362.37774658 276.44892883 C362.38199646 277.64785263 362.38624634 278.84677643 362.390625 280.08203125 C362.39632507 281.3103215 362.40202515 282.53861176 362.40789795 283.80412292 C362.4173587 286.40757381 362.42388618 289.01103672 362.42773438 291.61450195 C362.43428795 295.59798148 362.46844669 299.58109436 362.5 303.56445312 C362.50653039 306.09114276 362.51178072 308.6178361 362.515625 311.14453125 C362.5279718 312.33738235 362.5403186 313.53023346 362.55303955 314.75923157 C362.55003845 315.87356064 362.54703735 316.98788971 362.54394531 318.13598633 C362.54759094 319.11368484 362.55123657 320.09138336 362.55499268 321.09870911 C361.87643419 326.10960037 359.11018993 329.33389252 355.21289062 332.41064453 C350.48926404 335.68005917 345.4353589 338.42744793 340.4375 341.25 C338.17141098 342.53954952 335.90577943 343.82990329 333.640625 345.12109375 C332.55330078 345.73839355 331.46597656 346.35569336 330.34570312 346.99169922 C326.55342886 349.17806142 322.82105028 351.45350509 319.10449219 353.76586914 C317.1875 354.8125 317.1875 354.8125 315.1875 354.8125 C315.19638245 355.42335953 315.20526489 356.03421906 315.2144165 356.66358948 C315.30312152 363.03905858 315.3633303 369.41435147 315.40722656 375.7902832 C315.42730363 378.16763432 315.45457113 380.5449363 315.48925781 382.92211914 C315.53794614 386.34533845 315.56050853 389.76790306 315.578125 393.19140625 C315.59877014 394.24896622 315.61941528 395.30652618 315.64068604 396.39613342 C315.64261099 402.7707762 315.03123908 406.65257148 311.1875 411.8125 C308.79318426 413.56872181 306.65285773 414.93410485 304.0625 416.3125 C302.55302141 417.15559861 301.04393416 417.99939811 299.53515625 418.84375 C298.69742676 419.30523437 297.85969727 419.76671875 296.99658203 420.2421875 C293.80468334 422.02649937 290.65006979 423.86825068 287.49609375 425.71875 C285.74461808 426.74393543 283.99284951 427.76861885 282.24102783 428.79321289 C280.52604102 429.79725425 278.8125687 430.80388103 277.09912109 431.81054688 C276.03129395 432.42994141 274.9634668 433.04933594 273.86328125 433.6875 C272.91364502 434.24179687 271.96400879 434.79609375 270.9855957 435.3671875 C265.27968938 438.31448402 260.45573895 439.69046597 254.1875 437.8125 C250.01663101 435.89697878 246.08567621 433.62636086 242.125 431.3125 C241.01680908 430.68698242 239.90861816 430.06146484 238.7668457 429.41699219 C233.93006702 426.66764306 229.18161979 423.89033121 224.640625 420.671875 C223.989729 420.22521484 223.33883301 419.77855469 222.66821289 419.31835938 C221.00419427 418.15297996 219.3808187 416.9301468 217.76171875 415.703125 C211.68893133 414.18990584 207.3495433 417.74895409 202.1875 420.8125 C201.18001709 421.39193359 200.17253418 421.97136719 199.13452148 422.56835938 C195.06811671 424.92943395 191.03825888 427.34904618 187.01171875 429.77734375 C169.65170584 440.08555323 169.65170584 440.08555323 162.47460938 438.64941406 C156.78017717 436.56567008 151.6279801 433.28060804 146.4375 430.1875 C145.22729231 429.47922027 144.01635833 428.77218002 142.8046875 428.06640625 C141.60406205 427.36476232 140.40354062 426.66294037 139.203125 425.9609375 C138.61429031 425.61709518 138.02545563 425.27325287 137.41877747 424.91899109 C134.51595385 423.21491409 131.65941037 421.47455483 128.82299805 419.65942383 C127.77668213 419.00224365 126.73036621 418.34506348 125.65234375 417.66796875 C124.73316162 417.07137451 123.81397949 416.47478027 122.86694336 415.86010742 C120.17812108 414.52064248 120.17812108 414.52064248 117.18847656 415.48754883 C114.61530577 416.69585487 112.2810992 418.08090963 109.92431641 419.66796875 C108.01289411 420.92756219 106.0577348 422.07618635 104.07421875 423.21875 C98.57115412 426.38927546 93.09898325 429.60734637 87.71484375 432.9765625 C80.89072329 437.16938493 76.06089027 439.91425928 67.921875 438.07421875 C63.79100256 436.67853695 60.4427859 434.83800814 56.75 432.5625 C55.26900302 431.66668813 53.78717984 430.77224125 52.3046875 429.87890625 C51.49870117 429.39180176 50.69271484 428.90469727 49.86230469 428.40283203 C46.88987156 426.63554202 43.88994734 424.92239228 40.8828125 423.21484375 C39.80572021 422.59963867 38.72862793 421.98443359 37.61889648 421.35058594 C35.48707343 420.13441835 33.35126273 418.92520932 31.21118164 417.72363281 C29.73572876 416.87623535 29.73572876 416.87623535 28.23046875 416.01171875 C26.91598755 415.26668091 26.91598755 415.26668091 25.57495117 414.5065918 C22.28579968 412.1726699 19.99064134 409.41878269 18.1875 405.8125 C18.21017301 404.25902627 18.30145578 402.70631267 18.42651367 401.15771484 C21.74518267 374.93364624 21.74518267 374.93364624 14.60595703 350.96435547 C8.6019717 345.18791312 0.64941577 342.60411354 -7.14648438 340.12744141 C-15.60369225 337.09397566 -23.2204321 332.74827462 -27.8125 324.8125 C-28.80538827 321.8338352 -28.85351787 320.35009307 -28.63696289 317.2878418 C-25.73005195 292.8783482 -25.73005195 292.8783482 -31.93701172 270.33935547 C-37.34553847 265.3657148 -43.7488174 263.01628356 -50.68554688 260.86474609 C-55.37562172 259.28649636 -59.37568744 256.84518601 -63.5625 254.25 C-64.58730469 253.67403076 -64.58730469 253.67403076 -65.6328125 253.08642578 C-70.65094955 250.22787986 -73.96499844 247.35500469 -75.8125 241.8125 C-75.92019732 240.05007165 -75.97125039 238.28393205 -75.98950195 236.51831055 C-76.00233719 235.43676193 -76.01517242 234.35521332 -76.02839661 233.2408905 C-76.03578354 232.07213882 -76.04317047 230.90338715 -76.05078125 229.69921875 C-76.058853 228.49691116 -76.06692474 227.29460358 -76.07524109 226.05586243 C-76.08907972 223.50966839 -76.09980286 220.96345583 -76.10766602 218.41723633 C-76.12488563 214.52584677 -76.16877647 210.63530518 -76.21289062 206.74414062 C-76.22301697 204.27083958 -76.23153325 201.79753132 -76.23828125 199.32421875 C-76.25578934 198.16153976 -76.27329742 196.99886078 -76.29133606 195.8009491 C-76.27440784 189.48806486 -76.10003123 185.58842744 -71.8125 180.8125 C-67.23247548 176.41429119 -61.39015973 173.62289403 -55.875 170.5625 C-52.91537047 168.90829629 -49.96198536 167.25391184 -47.03808594 165.53710938 C-44.62445002 164.24662163 -42.5299829 163.3150943 -39.98535156 162.41601562 C-35.99075617 160.86116575 -32.43420601 159.32317123 -29.8125 155.8125 C-27.37371165 148.49980139 -28.17802045 140.40169256 -28.4375 132.8125 C-28.45952384 130.6810461 -28.47521409 128.54951675 -28.484375 126.41796875 C-28.52049742 121.21303314 -28.63566652 116.01445547 -28.8125 110.8125 C-29.55854492 110.52439453 -30.30458984 110.23628906 -31.07324219 109.93945312 C-33.36891215 108.99499568 -35.47614404 107.98561538 -37.640625 106.78125 C-38.35001221 106.38768311 -39.05939941 105.99411621 -39.7902832 105.58862305 C-40.54011475 105.16750244 -41.28994629 104.74638184 -42.0625 104.3125 C-42.84520264 103.87397705 -43.62790527 103.4354541 -44.43432617 102.98364258 C-46.89687988 101.59877994 -49.35517645 100.20661929 -51.8125 98.8125 C-52.61059082 98.36181152 -53.40868164 97.91112305 -54.23095703 97.44677734 C-56.53480957 96.14108662 -58.8310204 94.8229456 -61.125 93.5 C-61.82334961 93.10425781 -62.52169922 92.70851563 -63.24121094 92.30078125 C-68.61696991 89.16733152 -73.40246508 85.7642988 -75.8125 79.8125 C-76.07992554 77.29057312 -76.07992554 77.29057312 -76.10302734 74.4206543 C-76.11578705 73.34240891 -76.12854675 72.26416351 -76.14169312 71.15324402 C-76.14391876 69.99279068 -76.14614441 68.83233734 -76.1484375 67.63671875 C-76.1550943 66.43819778 -76.1617511 65.23967682 -76.16860962 64.00483704 C-76.17873518 61.46881647 -76.18342667 58.93276927 -76.18310547 56.39672852 C-76.18747169 52.52510391 -76.22377571 48.65462552 -76.26171875 44.78320312 C-76.26758832 42.31771223 -76.27155677 39.85221592 -76.2734375 37.38671875 C-76.28780853 36.2323381 -76.30217957 35.07795746 -76.31698608 33.88859558 C-76.27976946 27.30987183 -75.83527711 23.11331865 -71.8125 17.8125 C-69.41815115 16.0562539 -67.27796144 14.69078604 -64.6875 13.3125 C-63.17666666 12.46949633 -61.66628116 11.62568974 -60.15625 10.78125 C-59.31835938 10.31976563 -58.48046875 9.85828125 -57.6171875 9.3828125 C-54.43621734 7.60182363 -51.29612446 5.75870441 -48.15625 3.90625 C-46.41151889 2.88080485 -44.66631692 1.85616581 -42.92095947 0.83178711 C-41.21604618 -0.17071463 -39.51400206 -1.17809071 -37.81201172 -2.18554688 C-22.34151167 -11.18639479 -15.18365636 -9.12076862 0 0 Z " fill="#212020" transform="translate(112.8125,53.1875)"/>
<path d="M0 0 C2.71543604 0.9682427 5.08747457 2.26600605 7.59838867 3.68457031 C8.65928711 4.28140625 9.72018555 4.87824219 10.81323242 5.49316406 C11.91795898 6.1209375 13.02268555 6.74871094 14.16088867 7.39550781 C15.23467773 8.00007813 16.3084668 8.60464844 17.41479492 9.22753906 C19.59053881 10.45548597 21.75244133 11.70826588 23.90014648 12.98461914 C27.10774671 14.85047587 27.10774671 14.85047587 30.57006836 15.99975586 C34.34041246 17.52690885 36.46540036 18.69676373 39.16088867 21.77050781 C41.74438326 28.95249141 41.48265429 36.80196682 41.41088867 44.33300781 C41.41493713 45.38474182 41.4189856 46.43647583 41.42315674 47.52008057 C41.31195114 65.52880585 41.31195114 65.52880585 36.97827148 71.16357422 C31.50932719 76.13793401 25.13796777 78.57056941 18.1574707 80.75439453 C14.01472932 82.15915986 10.60494201 84.31589944 6.97338867 86.70800781 C1.86588884 89.836753 1.86588884 89.836753 -1.11254883 89.55688477 C-4.46846479 88.58899389 -7.14602952 87.09658464 -10.17114258 85.34863281 C-10.76658371 85.00676941 -11.36202484 84.66490601 -11.97550964 84.31268311 C-13.8713906 83.22180839 -15.76140396 82.12117766 -17.65161133 81.02050781 C-18.90972344 80.29593893 -20.16818407 79.57197484 -21.42700195 78.84863281 C-24.90885745 76.84093407 -28.38407778 74.82422164 -31.83911133 72.77050781 C-32.55573944 72.44444046 -33.27236755 72.11837311 -34.01071167 71.78242493 C-36.31779111 70.6294612 -38.02798731 69.61278563 -39.83911133 67.77050781 C-40.93565415 64.24090358 -40.7747858 60.88634724 -40.62036133 57.21972656 C-40.60904175 56.20578323 -40.59772217 55.1918399 -40.58605957 54.14717102 C-40.54135117 50.91550997 -40.44099731 47.68832223 -40.33911133 44.45800781 C-40.29897725 42.26471262 -40.26247635 40.07134772 -40.22973633 37.87792969 C-40.14163621 32.50726845 -40.00785925 27.13920761 -39.83911133 21.77050781 C-39.22092529 21.42383057 -38.60273926 21.07715332 -37.96582031 20.7199707 C-35.06814433 19.09323826 -32.17227374 17.46332175 -29.27661133 15.83300781 C-27.70979614 14.95298096 -27.70979614 14.95298096 -26.11132812 14.05517578 C-21.39891942 11.39689395 -16.7068439 8.72676947 -12.11254883 5.86816406 C-11.43264893 5.44591553 -10.75274902 5.02366699 -10.05224609 4.58862305 C-8.81401783 3.81133062 -7.5823004 3.02353733 -6.35839844 2.22387695 C-2.34806543 -0.29300166 -2.34806543 -0.29300166 0 0 Z " fill="#E86946" transform="translate(420.839111328125,304.2294921875)"/>
<path d="M0 0 C0.84618896 0.52682373 1.69237793 1.05364746 2.56420898 1.59643555 C3.52472168 2.17216309 4.48523438 2.74789062 5.47485352 3.34106445 C6.49305176 3.9654541 7.51125 4.58984375 8.56030273 5.2331543 C10.68922706 6.42347471 12.82346518 7.60433604 14.96264648 8.77612305 C17.14139536 9.99031483 19.31977825 11.20516356 21.49780273 12.4206543 C22.60704102 13.03618164 23.7162793 13.65170898 24.85913086 14.28588867 C25.92454102 14.88079102 26.98995117 15.47569336 28.08764648 16.08862305 C29.04405029 16.62124756 30.0004541 17.15387207 30.98583984 17.70263672 C31.8354126 18.20770752 32.68498535 18.71277832 33.56030273 19.2331543 C34.31424316 19.59046631 35.06818359 19.94777832 35.8449707 20.31591797 C38.81397695 23.63439307 38.35751771 27.75288268 38.47827148 32.0534668 C38.5081868 33.02669891 38.53810211 33.99993103 38.56892395 35.00265503 C38.61987505 37.06523084 38.65858598 39.12813968 38.68603516 41.19116211 C38.74728028 44.33136677 38.90970128 47.45626734 39.07397461 50.5925293 C39.48373794 64.72288078 39.48373794 64.72288078 36.22506714 68.97576904 C32.74672392 71.95357817 28.76200747 73.67782602 24.5451355 75.37237549 C21.52595975 76.68172636 18.91082195 78.50250881 16.19702148 80.3503418 C14.21419369 81.60333395 12.23112465 82.85594443 10.24780273 84.1081543 C9.25458008 84.77717773 8.26135742 85.44620117 7.23803711 86.13549805 C0.1162993 90.53463051 0.1162993 90.53463051 -3.96362305 89.74414062 C-6.63904911 88.44335586 -8.986172 86.9147501 -11.43969727 85.2331543 C-13.43844693 84.08511695 -15.4439907 82.94884675 -17.45532227 81.82299805 C-19.53533758 80.60878256 -21.61344527 79.39129372 -23.68969727 78.1706543 C-24.73899414 77.55899414 -25.78829102 76.94733398 -26.86938477 76.31713867 C-32.6157668 72.95295932 -32.6157668 72.95295932 -35.43969727 71.2331543 C-37.06645386 70.45186157 -37.06645386 70.45186157 -38.72607422 69.65478516 C-41.72517101 66.9783982 -41.88004293 66.52778491 -42.26367188 62.7434082 C-42.32350033 60.89962986 -42.34737934 59.05445785 -42.34204102 57.2097168 C-42.35489639 56.23078461 -42.36775177 55.25185242 -42.3809967 54.24325562 C-42.39821284 52.17387851 -42.39973693 50.10431988 -42.38671875 48.03491211 C-42.37724436 44.87386787 -42.44754005 41.72127847 -42.52368164 38.5612793 C-42.53050231 36.54826907 -42.5326103 34.53523624 -42.52954102 32.5222168 C-42.55717026 31.58141266 -42.5847995 30.64060852 -42.61326599 29.67129517 C-42.53043272 25.73685968 -42.4521057 23.23824522 -39.57980347 20.38670349 C-37.26446505 18.81636658 -34.93197862 17.50090921 -32.43969727 16.2331543 C-31.37138672 15.59998291 -30.30307617 14.96681152 -29.20239258 14.31445312 C-27.74978027 13.51044067 -27.74978027 13.51044067 -26.26782227 12.69018555 C-25.19145508 12.09141602 -24.11508789 11.49264648 -23.00610352 10.87573242 C-21.91168945 10.27180664 -20.81727539 9.66788086 -19.68969727 9.0456543 C-17.48622004 7.82363295 -15.28308225 6.6009993 -13.08032227 5.37768555 C-12.11642578 4.84506104 -11.1525293 4.31243652 -10.15942383 3.76367188 C-7.40467991 2.28221558 -7.40467991 2.28221558 -4.89990234 0.38891602 C-2.43969727 -0.7668457 -2.43969727 -0.7668457 0 0 Z " fill="#E86946" transform="translate(281.439697265625,60.766845703125)"/>
<path d="M0 0 C2.00390283 1.13901863 4.00916276 2.27565229 6.015625 3.41015625 C8.09564031 4.62437174 10.173748 5.84186058 12.25 7.0625 C13.29929688 7.67416016 14.34859375 8.28582031 15.4296875 8.91601562 C21.17606953 12.28019498 21.17606953 12.28019498 24 14 C25.08450439 14.52086182 26.16900879 15.04172363 27.28637695 15.57836914 C30.28547374 18.2547561 30.44034566 18.70536939 30.82397461 22.48974609 C30.88380306 24.33352444 30.90768208 26.17869645 30.90234375 28.0234375 C30.91519913 29.00236969 30.9280545 29.98130188 30.94129944 30.98989868 C30.95851557 33.05927578 30.96003966 35.12883442 30.94702148 37.19824219 C30.9375471 40.35928642 31.00784279 43.51187583 31.08398438 46.671875 C31.09080505 48.68488523 31.09291304 50.69791806 31.08984375 52.7109375 C31.13128761 54.12214371 31.13128761 54.12214371 31.17356873 55.56185913 C31.09071852 59.49709865 31.01279356 61.99519446 28.13887024 64.84645081 C25.82382984 66.41593597 23.49114603 67.73162004 21 69 C19.93692627 69.63317139 18.87385254 70.26634277 17.77856445 70.91870117 C16.816521 71.45470947 15.85447754 71.99071777 14.86328125 72.54296875 C13.25549805 73.44112305 13.25549805 73.44112305 11.61523438 74.35742188 C9.98038086 75.26331055 9.98038086 75.26331055 8.3125 76.1875 C6.66024414 77.11079102 6.66024414 77.11079102 4.97460938 78.05273438 C1.9898266 79.71535025 -0.99395092 81.37613773 -4 83 C-4.97791504 83.62092529 -5.95583008 84.24185059 -6.96337891 84.8815918 C-10 86 -10 86 -13.0769043 84.98291016 C-14.14851807 84.34144043 -15.22013184 83.6999707 -16.32421875 83.0390625 C-16.91112991 82.69628265 -17.49804108 82.35350281 -18.10273743 82.00033569 C-19.97849313 80.89730855 -21.83222455 79.76206537 -23.6875 78.625 C-24.91473277 77.89757094 -26.14324036 77.17228808 -27.37304688 76.44921875 C-29.80082881 75.02022442 -32.19104864 73.5449788 -34.57202148 72.03955078 C-37.88956885 69.94841734 -37.88956885 69.94841734 -41.27368164 68.67529297 C-44.75424832 67.12629169 -46.61947358 66.00004696 -49 63 C-51.34847804 55.9030157 -51.13117053 48.26591154 -51.0625 40.875 C-51.06482635 39.84466644 -51.06715271 38.81433289 -51.06954956 37.7527771 C-50.94775538 21.23888111 -50.94775538 21.23888111 -47.06640625 14.78466797 C-42.14146491 10.10816877 -36.32108304 8.02781418 -29.92041016 6.04638672 C-24.66534096 4.16348866 -20.27870976 0.7358327 -15.80883789 -2.5534668 C-9.57472145 -6.53236399 -5.79916553 -3.60393064 0 0 Z " fill="#ECECEC" transform="translate(195,390)"/>
<path d="M0 0 C1.97742346 0.98689853 3.91691161 2.05156753 5.82421875 3.16796875 C6.93603516 3.81443359 8.04785156 4.46089844 9.19335938 5.12695312 C10.3581425 5.81368407 11.52285572 6.50053361 12.6875 7.1875 C13.82123047 7.84814453 14.95496094 8.50878906 16.12304688 9.18945312 C22.19985459 12.73746824 22.19985459 12.73746824 24.13500977 13.92987061 C26.08823734 15.0868778 26.08823734 15.0868778 28.59643555 16.20050049 C35.49027425 19.6460418 35.49027425 19.6460418 36.86851501 23.30699158 C37.15942917 26.13916508 37.12702689 28.80540912 36.9765625 31.6484375 C36.96241302 32.66096588 36.94826355 33.67349426 36.9336853 34.71670532 C36.8778619 37.93919306 36.752468 41.15462919 36.625 44.375 C36.5748227 46.56370137 36.52919822 48.75251218 36.48828125 50.94140625 C36.37824636 56.29666176 36.21111502 61.64782738 36 67 C35.20416504 67.4532666 34.40833008 67.9065332 33.58837891 68.37353516 C30.58721093 70.08356885 27.58663258 71.79462857 24.58642578 73.50634766 C23.29694081 74.24177461 22.00723366 74.97681216 20.71728516 75.71142578 C19.46426765 76.42507134 18.21164036 77.13940246 16.95941162 77.85443115 C15.72268265 78.55980425 14.48460429 79.26281681 13.24517822 79.96343994 C8.77679303 82.50336889 4.4804257 85.24612711 0.25927734 88.17724609 C-3.07599014 89.39183994 -4.80146626 88.39921652 -8 87 C-10.01307241 85.95070218 -11.99824433 84.84666821 -13.95703125 83.69921875 C-15.62668945 82.72758789 -15.62668945 82.72758789 -17.33007812 81.73632812 C-18.49101534 81.0536063 -19.65182195 80.37066234 -20.8125 79.6875 C-23.08947306 78.35743812 -25.36681002 77.02799899 -27.64453125 75.69921875 C-29.15043823 74.81496216 -29.15043823 74.81496216 -30.68676758 73.9128418 C-34.76318226 71.55938892 -38.88533723 69.28592376 -43 67 C-43 51.82 -43 36.64 -43 21 C-30.75 13.9375 -30.75 13.9375 -26.96777344 11.75756836 C-25.94200195 11.16596924 -24.91623047 10.57437012 -23.859375 9.96484375 C-22.72048828 9.31241699 -21.58160156 8.65999023 -20.40820312 7.98779297 C-18.13218706 6.66033431 -15.87527435 5.2995789 -13.63867188 3.90673828 C-12.58744141 3.25817871 -11.53621094 2.60961914 -10.453125 1.94140625 C-9.52145508 1.35174072 -8.58978516 0.7620752 -7.62988281 0.15454102 C-4.43683335 -1.24723497 -3.26281313 -1.14032714 0 0 Z " fill="#ECECEC" transform="translate(330,143)"/>
<path d="M0 0 C2.65686912 1.24342747 5.19934257 2.58395948 7.74926758 4.03393555 C8.71670898 4.58243164 9.68415039 5.13092773 10.6809082 5.69604492 C11.68186523 6.26774414 12.68282227 6.83944336 13.71411133 7.4284668 C14.68799805 7.98083008 15.66188477 8.53319336 16.6652832 9.10229492 C18.65416906 10.23261223 20.62868721 11.38855613 22.58862305 12.56835938 C25.62628113 14.33914569 25.62628113 14.33914569 29.04663086 15.40380859 C32.9184557 16.92490307 34.9846603 18.01582328 37.65161133 21.2409668 C39.68051615 28.78979367 38.76962965 36.96107626 38.40161133 44.6784668 C38.34138711 46.86256594 38.28663965 49.04682343 38.23754883 51.23120117 C38.10561071 56.57125405 37.90516445 61.90537934 37.65161133 67.2409668 C36.56444824 67.86757202 36.56444824 67.86757202 35.45532227 68.50683594 C32.70420365 70.09268995 29.95324751 71.67882536 27.20239258 73.26513672 C25.45121118 74.27486753 23.69985134 75.28428887 21.94848633 76.29370117 C20.81411133 76.94790039 19.67973633 77.60209961 18.51098633 78.27612305 C17.37209961 78.9285498 16.23321289 79.58097656 15.05981445 80.25317383 C12.78379838 81.58063248 10.52688568 82.9413879 8.2902832 84.33422852 C7.23905273 84.98278809 6.18782227 85.63134766 5.10473633 86.29956055 C4.17306641 86.88922607 3.24139648 87.4788916 2.28149414 88.08642578 C-0.89757498 89.48206428 -2.10043727 89.36987259 -5.34838867 88.2409668 C-7.92871094 86.95336914 -7.92871094 86.95336914 -10.66479492 85.3269043 C-12.18363281 84.43165039 -12.18363281 84.43165039 -13.7331543 83.51831055 C-14.78180664 82.89053711 -15.83045898 82.26276367 -16.91088867 81.6159668 C-17.9324707 81.01139648 -18.95405273 80.40682617 -20.0065918 79.78393555 C-22.08306324 78.55508367 -24.14485527 77.30110738 -26.19165039 76.0234375 C-29.30486309 74.14300369 -29.30486309 74.14300369 -32.7746582 73.04248047 C-36.63115821 71.52797644 -38.69318502 70.45362435 -41.34838867 67.2409668 C-43.37281898 59.68952531 -42.46648669 51.52252858 -42.09838867 43.8034668 C-42.03816446 41.61936765 -41.98341699 39.43511016 -41.93432617 37.25073242 C-41.80238806 31.91067954 -41.60194179 26.57655425 -41.34838867 21.2409668 C-40.66437988 20.85875977 -39.98037109 20.47655273 -39.27563477 20.08276367 C-37.2393698 18.94461927 -35.20342734 17.80589776 -33.16772461 16.66674805 C-30.86753166 15.38067476 -28.56609297 14.09682705 -26.26342773 12.81518555 C-18.9480131 8.73572198 -18.9480131 8.73572198 -11.74682617 4.4597168 C-11.11341309 4.0762207 -10.48 3.69272461 -9.82739258 3.29760742 C-8.21659679 2.31320694 -6.61789918 1.30908509 -5.02026367 0.3034668 C-2.34838867 -0.7590332 -2.34838867 -0.7590332 0 0 Z " fill="#1C4D7F" transform="translate(328.348388671875,304.759033203125)"/>
<path d="M0 0 C4.46397344 1.62625581 8.35954386 4.13927075 12.37249756 6.65657043 C16.37619262 9.13412984 20.30536522 11.31510376 24.65869141 13.1184082 C37.14980047 18.59898014 37.14980047 18.59898014 39.70709229 24.3425293 C41.05911515 30.10015052 40.92519457 35.81829227 40.57617188 41.69116211 C40.39748133 44.79394663 40.37111818 47.87106407 40.3671875 50.97851562 C40.31871704 52.95987086 40.26172204 54.94103989 40.1953125 56.921875 C40.18216003 57.84071976 40.16900757 58.75956451 40.15545654 59.70625305 C39.88519779 63.56085107 39.62200178 66.01819301 36.78388977 68.77784729 C34.46944147 70.34699727 32.12841437 71.67567812 29.6484375 72.96484375 C28.46880208 73.67045675 27.29221897 74.38121794 26.11987305 75.09887695 C19.7502995 78.76001773 19.7502995 78.76001773 17.22631836 80.19848633 C15.31864365 81.28721351 13.4160998 82.38455785 11.51367188 83.48242188 C10.29196567 84.18151237 9.06997085 84.88009879 7.84765625 85.578125 C6.75283936 86.20501221 5.65802246 86.83189941 4.5300293 87.4777832 C-0.00593995 89.8185939 -0.00593995 89.8185939 -2.3515625 89.96484375 C-4.78662109 88.92016602 -4.78662109 88.92016602 -7.5 87.28125 C-9.01013672 86.3830957 -9.01013672 86.3830957 -10.55078125 85.46679688 C-11.59878906 84.82677734 -12.64679688 84.18675781 -13.7265625 83.52734375 C-15.77558415 82.29871583 -17.82506802 81.07085846 -19.875 79.84375 C-22.01226562 78.56371094 -24.14953125 77.28367187 -26.3515625 75.96484375 C-33.2815625 72.00484375 -33.2815625 72.00484375 -40.3515625 67.96484375 C-40.3515625 52.78484375 -40.3515625 37.60484375 -40.3515625 21.96484375 C-28.6640625 15.46484375 -28.6640625 15.46484375 -24.88305664 13.36303711 C-18.01427061 9.52113731 -11.31174414 5.55088908 -4.8046875 1.125 C-2.3515625 -0.03515625 -2.3515625 -0.03515625 0 0 Z " fill="#ECECEC" transform="translate(280.3515625,223.03515625)"/>
<path d="M0 0 C2.94975083 1.38143478 5.75004574 2.90935499 8.57226562 4.53613281 C9.68859375 5.179375 10.80492187 5.82261719 11.95507812 6.48535156 C12.82084473 6.98784424 12.82084473 6.98784424 13.70410156 7.50048828 C15.44128144 8.50797545 17.1825341 9.5084294 18.92382812 10.50878906 C22.20407315 12.40529854 25.47619712 14.30038783 28.71289062 16.27050781 C29.49151459 16.67092285 30.27013855 17.07133789 31.07235718 17.48388672 C37.2068638 20.93095379 37.2068638 20.93095379 38.55419922 24.49761963 C38.9050842 27.20021576 38.96132073 29.76449181 38.90820312 32.48925781 C38.92111893 33.95341125 38.92111893 33.95341125 38.93429565 35.44714355 C38.94040242 37.50469199 38.92391543 39.56241655 38.88623047 41.61962891 C38.8379945 44.7637371 38.88577072 47.89628909 38.94335938 51.04003906 C38.93741174 53.04397075 38.92587989 55.04789526 38.90820312 57.05175781 C38.9264212 57.98628784 38.94463928 58.92081787 38.96340942 59.88366699 C38.83797341 63.77953064 38.71776106 66.27619919 35.87062073 69.09341431 C33.54993917 70.66545965 31.20323473 71.98677214 28.71289062 73.27050781 C27.53240101 73.98003392 26.35571059 74.69595065 25.18432617 75.42041016 C22.22330109 77.13949127 19.26128175 78.85644888 16.29077148 80.55908203 C14.38157147 81.65632342 12.47995753 82.76602586 10.578125 83.87597656 C9.3565642 84.57857271 8.13457438 85.28042359 6.91210938 85.98144531 C5.26988403 86.92963135 5.26988403 86.92963135 3.59448242 87.89697266 C0.71289062 89.27050781 0.71289062 89.27050781 -3.28710938 89.27050781 C-5.09204102 88.52709961 -5.09204102 88.52709961 -6.94726562 87.46972656 C-7.66076172 87.06818359 -8.37425781 86.66664063 -9.109375 86.25292969 C-10.21829102 85.61194336 -10.21829102 85.61194336 -11.34960938 84.95800781 C-12.03087891 84.57322266 -12.71214844 84.1884375 -13.4140625 83.79199219 C-14.9925981 82.89651684 -16.5533616 81.96939214 -18.10083008 81.02124023 C-20.76090384 79.55963661 -23.29905361 78.43831655 -26.10424805 77.31079102 C-38.91455779 71.73303026 -38.91455779 71.73303026 -41.27902222 65.76821899 C-42.66618573 58.56444187 -42.01959925 51.34755514 -41.47460938 44.08300781 C-41.37918708 41.86917821 -41.29251477 39.65495314 -41.21484375 37.44042969 C-41.00652682 32.04175771 -40.68985404 26.65798079 -40.28710938 21.27050781 C-39.59786377 20.88830078 -38.90861816 20.50609375 -38.19848633 20.11230469 C-34.99715049 18.33476517 -31.79826687 16.55286231 -28.59960938 14.77050781 C-27.45524414 14.135 -26.31087891 13.49949219 -25.13183594 12.84472656 C-18.13454544 8.93722627 -11.32777486 4.89644368 -4.74023438 0.33300781 C-2.28710938 -0.72949219 -2.28710938 -0.72949219 0 0 Z " fill="#EDEDED" transform="translate(93.287109375,60.7294921875)"/>
<path d="M0 0 C1.83025359 1.25177279 3.64245888 2.53026679 5.4375 3.83203125 C7.4004745 4.96400123 9.37743087 6.07204824 11.3671875 7.15625 C13.34944359 8.27648552 15.33121329 9.39758215 17.3125 10.51953125 C18.31796875 11.08736328 19.3234375 11.65519531 20.359375 12.24023438 C25.89954728 15.37403209 25.89954728 15.37403209 28.4375 16.83203125 C29.35829346 17.16928223 30.27908691 17.5065332 31.2277832 17.85400391 C33.4375 19.83203125 33.4375 19.83203125 33.86437988 21.91322327 C34.01993829 24.75791505 33.99836672 27.55816626 33.92578125 30.40625 C33.91870651 31.44521927 33.91163177 32.48418854 33.90434265 33.55464172 C33.87632688 36.87700034 33.81357264 40.19768103 33.75 43.51953125 C33.72492653 45.77015798 33.70211171 48.02081108 33.68164062 50.27148438 C33.62647694 55.79224033 33.54277911 61.31201594 33.4375 66.83203125 C32.35033691 67.45863647 32.35033691 67.45863647 31.24121094 68.09790039 C28.49009232 69.6837544 25.73913618 71.26988981 22.98828125 72.85620117 C21.23709985 73.86593199 19.48574002 74.87535332 17.734375 75.88476562 C16.6 76.53896484 15.465625 77.19316406 14.296875 77.8671875 C13.14896484 78.51316895 12.00105469 79.15915039 10.81835938 79.82470703 C7.41488055 81.77414383 7.41488055 81.77414383 4.32226562 84.10107422 C1.35297257 86.18568064 -1.09387838 87.75810816 -4.5625 88.83203125 C-9.19847794 87.82024086 -12.65522776 85.44882249 -16.5625 82.83203125 C-18.6500126 81.64005113 -20.74382991 80.45904586 -22.84375 79.2890625 C-24.91893754 78.07810193 -26.99185648 76.86324543 -29.0625 75.64453125 C-30.64804688 74.72124023 -30.64804688 74.72124023 -32.265625 73.77929688 C-38.02944118 70.40366088 -38.02944118 70.40366088 -40.5625 68.83203125 C-41.31265381 68.47544434 -42.06280762 68.11885742 -42.83569336 67.75146484 C-45.8255896 64.42804278 -45.31811346 60.29032899 -45.41015625 55.9765625 C-45.43532822 55.00095871 -45.46050018 54.02535492 -45.48643494 53.02018738 C-45.52861469 50.95335873 -45.5589448 48.88625955 -45.57836914 46.8190918 C-45.62463557 43.66934087 -45.76140366 40.53159848 -45.90039062 37.38476562 C-46.25243834 22.79638714 -46.25243834 22.79638714 -42.0546875 17.91699219 C-38.6512401 15.82832649 -35.25371852 14.34678562 -31.5625 12.83203125 C-29.34505454 11.45049849 -27.15408334 10.02553053 -24.9921875 8.55859375 C-22.80846286 7.18953635 -20.62356668 5.82234584 -18.4375 4.45703125 C-17.34824219 3.72742188 -16.25898438 2.9978125 -15.13671875 2.24609375 C-6.08595205 -3.29033701 -6.08595205 -3.29033701 0 0 Z " fill="#1C4D7F" transform="translate(284.5625,387.16796875)"/>
<path d="M0 0 C3.48038377 0.90177824 6.04930824 2.20053829 9.1418457 4.02832031 C10.81150391 5.00478516 10.81150391 5.00478516 12.51489258 6.00097656 C13.67589237 6.69205952 14.83669866 7.38346765 15.99731445 8.07519531 C18.27432237 9.41430819 20.55165997 10.75286066 22.8293457 12.09082031 C23.83328369 12.68668945 24.83722168 13.28255859 25.87158203 13.89648438 C29.94177376 16.26583922 34.06788604 18.53801286 38.18481445 20.82519531 C38.18481445 36.33519531 38.18481445 51.84519531 38.18481445 67.82519531 C24.80981445 75.45019531 24.80981445 75.45019531 20.65600586 77.81591797 C18.98803955 78.76797119 18.98803955 78.76797119 17.28637695 79.73925781 C16.68193756 80.08131256 16.07749817 80.42336731 15.45474243 80.77578735 C10.95777709 83.33440685 6.61737587 86.08335951 2.34643555 89.00244141 C0.18481445 89.82519531 0.18481445 89.82519531 -2.19213867 89.19433594 C-5.2268005 87.6103464 -8.2150536 85.97820211 -11.18237305 84.27050781 C-11.78018585 83.92768768 -12.37799866 83.58486755 -12.993927 83.23165894 C-14.89444756 82.14088041 -16.79235064 81.04563856 -18.69018555 79.95019531 C-19.95693996 79.22203026 -21.22386556 78.49416292 -22.4909668 77.76660156 C-24.83823191 76.41834508 -27.18427355 75.06804481 -29.52954102 73.71630859 C-32.95397827 71.7453106 -36.38372573 69.78393491 -39.81518555 67.82519531 C-40.04382665 61.38464805 -40.20116377 54.94514957 -40.30957031 48.50146484 C-40.35476703 46.31096293 -40.41613993 44.12073159 -40.49414062 41.93115234 C-40.60363615 38.77796763 -40.65441474 35.62837475 -40.6940918 32.47363281 C-40.74054337 31.49840668 -40.78699493 30.52318054 -40.83485413 29.5184021 C-40.83976918 22.86283507 -40.83976918 22.86283507 -37.97113037 19.9576416 C-35.65176209 18.38423115 -33.31887007 17.08131631 -30.81518555 15.82519531 C-29.73640137 15.18678711 -28.65761719 14.54837891 -27.54614258 13.890625 C-26.56500488 13.34825195 -25.58386719 12.80587891 -24.57299805 12.24707031 C-23.48760742 11.64378906 -22.4022168 11.04050781 -21.28393555 10.41894531 C-20.18049805 9.81050781 -19.07706055 9.20207031 -17.94018555 8.57519531 C-15.71304698 7.34186 -13.48645809 6.10753139 -11.26049805 4.87207031 C-9.79894287 4.06527832 -9.79894287 4.06527832 -8.30786133 3.2421875 C-2.34795785 -0.14579289 -2.34795785 -0.14579289 0 0 Z " fill="#EDEDED" transform="translate(373.815185546875,386.1748046875)"/>
<path d="M0 0 C1.84841919 0.92447253 3.67035907 1.90261411 5.47265625 2.9140625 C6.53806641 3.51089844 7.60347656 4.10773438 8.70117188 4.72265625 C9.81041016 5.35042969 10.91964844 5.97820312 12.0625 6.625 C13.68575195 7.53185547 13.68575195 7.53185547 15.34179688 8.45703125 C17.51770528 9.68138763 19.67789416 10.93409665 21.8215332 12.21411133 C24.9290991 14.05984084 24.9290991 14.05984084 28.18432617 15.22924805 C31.71842419 16.79254564 33.58320263 17.9555879 36 21 C38.41738891 28.2305746 38.22857049 36.02396067 38.1875 43.5625 C38.19404602 44.61423401 38.20059204 45.66596802 38.20733643 46.74957275 C38.13066064 64.78503575 38.13066064 64.78503575 33.82177734 70.39306641 C28.35101812 75.36818251 21.97872835 77.79619775 14.99658203 79.97949219 C10.84226384 81.39427547 7.44195064 83.58070636 3.8125 86 C-1.2632048 89.16672903 -1.2632048 89.16672903 -4.34765625 88.46875 C-5.22292969 87.9840625 -6.09820312 87.499375 -7 87 C-7.59514404 86.68546875 -8.19028809 86.3709375 -8.8034668 86.046875 C-10.96935122 84.89354742 -13.10994095 83.70052093 -15.25 82.5 C-16.29027344 81.92378906 -16.29027344 81.92378906 -17.3515625 81.3359375 C-18.91534983 80.46350878 -20.46327906 79.56233614 -21.99853516 78.640625 C-24.43843897 77.30695381 -26.75867165 76.26989206 -29.32568359 75.234375 C-40.58038305 70.29956633 -40.58038305 70.29956633 -43.00512695 64.66381836 C-44.40987362 58.85699079 -44.42212104 53.08501795 -44.21630859 47.14160156 C-44.12483598 43.99435657 -44.21527781 40.88816528 -44.32421875 37.7421875 C-44.40766746 23.80861547 -44.40766746 23.80861547 -40.40383911 19.13803101 C-36.38382019 15.89214056 -31.88580577 13.84595304 -27.12744141 11.90423584 C-24.20424493 10.6617767 -21.57602132 9.04526178 -18.88671875 7.36328125 C-17.15406052 6.34564778 -15.42100403 5.32869202 -13.6875 4.3125 C-12.79611328 3.77689453 -11.90472656 3.24128906 -10.98632812 2.68945312 C-10.12845703 2.18994141 -9.27058594 1.69042969 -8.38671875 1.17578125 C-7.63608154 0.73145752 -6.88544434 0.28713379 -6.11206055 -0.1706543 C-3.49208022 -1.19944556 -2.59783362 -1.02778518 0 0 Z " fill="#E96946" transform="translate(142,143)"/>
<path d="M0 0 C2.14660716 1.07147601 4.25471214 2.22157152 6.33203125 3.421875 C6.92747238 3.7637384 7.52291351 4.10560181 8.13639832 4.45782471 C10.03227927 5.54869942 11.92229263 6.64933015 13.8125 7.75 C15.07061211 8.47456888 16.32907274 9.19853297 17.58789062 9.921875 C21.06974612 11.92957374 24.54496645 13.94628617 28 16 C28.71662811 16.32606735 29.43325623 16.6521347 30.17160034 16.98808289 C32.47867979 18.14104661 34.18887599 19.15772218 36 21 C37.09654282 24.52960423 36.93567447 27.88416057 36.78125 31.55078125 C36.76993042 32.56472458 36.75861084 33.57866791 36.74694824 34.62333679 C36.70223984 37.85499784 36.60188599 41.08218558 36.5 44.3125 C36.45986592 46.5057952 36.42336503 48.6991601 36.390625 50.89257812 C36.30252488 56.26323936 36.16874792 61.6313002 36 67 C35.20416504 67.4532666 34.40833008 67.9065332 33.58837891 68.37353516 C30.58721093 70.08356885 27.58663258 71.79462857 24.58642578 73.50634766 C23.29694081 74.24177461 22.00723366 74.97681216 20.71728516 75.71142578 C19.46426765 76.42507134 18.21164036 77.13940246 16.95941162 77.85443115 C15.72268265 78.55980425 14.48460429 79.26281681 13.24517822 79.96343994 C8.77679303 82.50336889 4.4804257 85.24612711 0.25927734 88.17724609 C-3.06734699 89.38869239 -4.81267123 88.39124996 -8 87 C-9.85552346 86.03534055 -11.68383065 85.01688023 -13.484375 83.953125 C-14.50273438 83.355 -15.52109375 82.756875 -16.5703125 82.140625 C-17.61960937 81.51671875 -18.66890625 80.8928125 -19.75 80.25 C-20.78382812 79.6415625 -21.81765625 79.033125 -22.8828125 78.40625 C-24.94526926 77.19059539 -26.9934074 75.95030421 -29.02612305 74.68554688 C-31.91058423 72.92416761 -31.91058423 72.92416761 -34.95239258 72.01757812 C-38.32075205 70.74697493 -39.82865513 69.90979393 -42 67 C-43.6699256 60.56947448 -43.39253509 53.81521412 -43.2487793 47.22363281 C-43.1876314 44.00691218 -43.22785179 40.80260941 -43.27929688 37.5859375 C-43.26909374 35.5364191 -43.25301427 33.48691979 -43.23046875 31.4375 C-43.24554977 30.48109619 -43.2606308 29.52469238 -43.27616882 28.53930664 C-43.13531427 24.52220204 -43.02255614 22.00192009 -40.07118225 19.11010742 C-37.7718113 17.55492895 -35.47503781 16.25328735 -33 15 C-31.50946153 14.14977836 -30.02083875 13.2961788 -28.53515625 12.4375 C-27.04644404 11.62102493 -25.55552284 10.80856563 -24.0625 10 C-18.23809553 6.82670377 -12.54438029 3.58099287 -7.04296875 -0.13671875 C-4.2491242 -1.31729168 -2.91920973 -0.80974728 0 0 Z " fill="#1C4D7F" transform="translate(95,224)"/>
<path d="M0 0 C2.56848944 1.20860478 4.8996751 2.59255705 7.25292969 4.17749023 C9.89690781 5.91770856 12.64868433 7.4612964 15.39233398 9.0378418 C18.29781954 10.71583203 21.17604786 12.43754299 24.05419922 14.16186523 C25.7906417 15.20189922 27.53104438 16.23531468 29.27197266 17.26782227 C35.85233374 21.1802146 35.85233374 21.1802146 36.99853516 22.32641602 C37.13793674 23.70508002 37.21057403 25.09060075 37.25488281 26.47558594 C37.28385651 27.35707809 37.3128302 28.23857025 37.34268188 29.14677429 C37.43999117 33.1970874 37.51425737 37.24721877 37.56835938 41.29833984 C37.60499625 43.43349153 37.65954361 45.56841467 37.73242188 47.70263672 C37.83595904 50.77988527 37.88030451 53.85316185 37.91259766 56.93188477 C37.95591217 57.88210007 37.99922668 58.83231537 38.04385376 59.81132507 C38.03597393 62.58622327 37.91704799 64.70442898 36.99853516 67.32641602 C34.30800833 69.98711095 31.35739338 71.63142313 27.99853516 73.32641602 C26.5078501 74.17638063 25.01920172 75.02993937 23.53369141 75.88891602 C22.04501706 76.70546012 20.55409468 77.51791813 19.06103516 78.32641602 C13.25608824 81.48618402 7.59341964 84.71585649 2.13916016 88.46313477 C-0.92249447 89.69785315 -2.80135103 89.07991799 -6.00146484 88.32641602 C-9.1418457 86.80761719 -9.1418457 86.80761719 -12.46630859 84.86938477 C-13.36090538 84.35303215 -13.36090538 84.35303215 -14.27357483 83.82624817 C-16.16716543 82.73070027 -18.05307292 81.62265335 -19.93896484 80.51391602 C-21.20084098 79.78064396 -22.463207 79.04821425 -23.72607422 78.31665039 C-26.06440947 76.96073959 -28.39905874 75.59916219 -30.73168945 74.23339844 C-34.14304109 72.24384661 -37.57265885 70.28573373 -41.00146484 68.32641602 C-41.00146484 52.81641602 -41.00146484 37.30641602 -41.00146484 21.32641602 C-28.75146484 14.26391602 -28.75146484 14.26391602 -24.96923828 12.08398438 C-23.9434668 11.49238525 -22.91769531 10.90078613 -21.86083984 10.29125977 C-20.72106689 9.6400415 -19.58129395 8.98882324 -18.40698242 8.31787109 C-16.13362779 6.98847445 -13.88533106 5.61528798 -11.66430664 4.20019531 C-10.61927979 3.54317627 -9.57425293 2.88615723 -8.49755859 2.20922852 C-7.57386475 1.60868652 -6.6501709 1.00814453 -5.69848633 0.3894043 C-3.00146484 -0.67358398 -3.00146484 -0.67358398 0 0 Z " fill="#ECECEC" transform="translate(188.00146484375,60.673583984375)"/>
<path d="M0 0 C1.85552346 0.96465945 3.68383065 1.98311977 5.484375 3.046875 C6.50273437 3.645 7.52109375 4.243125 8.5703125 4.859375 C9.61960938 5.48328125 10.66890625 6.1071875 11.75 6.75 C12.78382813 7.3584375 13.81765625 7.966875 14.8828125 8.59375 C16.94552014 9.80955249 18.99413244 11.04960147 21.02758789 12.3137207 C23.90972483 14.07338937 23.90972483 14.07338937 26.93920898 14.98901367 C30.28818937 16.2633461 31.81271197 17.12452603 34 20 C35.79812662 26.36397054 35.64652899 33.0515655 35.57836914 39.61157227 C35.56256242 42.79990995 35.67961714 45.96493755 35.80664062 49.15039062 C36.03225078 63.37140677 36.03225078 63.37140677 32.63427734 67.76647949 C29.15234332 70.75443759 25.18712356 72.50134571 20.95199585 74.17868042 C18.06438881 75.39366671 15.52257209 77.05785955 12.8984375 78.7578125 C11.0574325 79.88043932 9.21628989 81.0028405 7.375 82.125 C5.96541016 83.00671875 5.96541016 83.00671875 4.52734375 83.90625 C3.61855469 84.45539063 2.70976562 85.00453125 1.7734375 85.5703125 C0.97341309 86.06289551 0.17338867 86.55547852 -0.65087891 87.06298828 C-3.6368658 88.25403148 -4.96259618 87.9934672 -8 87 C-9.88986559 86.09471834 -11.74532164 85.1157604 -13.5703125 84.0859375 C-15.16359375 83.19068359 -15.16359375 83.19068359 -16.7890625 82.27734375 C-18.44035156 81.33568359 -18.44035156 81.33568359 -20.125 80.375 C-21.74148437 79.46814453 -21.74148437 79.46814453 -23.390625 78.54296875 C-25.55514848 77.31988259 -27.70257502 76.06604288 -29.83178711 74.7824707 C-32.93271134 72.92885998 -32.93271134 72.92885998 -36.23266602 71.80151367 C-39.8555767 70.24950511 -41.64173411 69.19165498 -44 66 C-45.84532824 58.40129674 -45.02571568 50.29969127 -44.6875 42.5625 C-44.63229388 40.37837761 -44.58210885 38.19412214 -44.53710938 36.00976562 C-44.41617862 30.67026525 -44.23243066 25.33574746 -44 20 C-43.20416504 19.5467334 -42.40833008 19.0934668 -41.58837891 18.62646484 C-38.58721093 16.91643115 -35.58663258 15.20537143 -32.58642578 13.49365234 C-31.29694081 12.75822539 -30.00723366 12.02318784 -28.71728516 11.28857422 C-27.46426765 10.57492866 -26.21164036 9.86059754 -24.95941162 9.14556885 C-23.72268265 8.44019575 -22.48460429 7.73718319 -21.24517822 7.03656006 C-16.77679303 4.49663111 -12.4804257 1.75387289 -8.25927734 -1.17724609 C-4.93265301 -2.38869239 -3.18732877 -1.39124996 0 0 Z " fill="#E96946" transform="translate(144,306)"/>
<path d="M0 0 C1.97742346 0.98689853 3.91691161 2.05156753 5.82421875 3.16796875 C6.93603516 3.81443359 8.04785156 4.46089844 9.19335938 5.12695312 C10.3581425 5.81368407 11.52285572 6.50053361 12.6875 7.1875 C13.82123047 7.84814453 14.95496094 8.50878906 16.12304688 9.18945312 C22.19985459 12.73746824 22.19985459 12.73746824 24.13500977 13.92987061 C26.08823734 15.0868778 26.08823734 15.0868778 28.59643555 16.20050049 C35.49027425 19.6460418 35.49027425 19.6460418 36.86851501 23.30699158 C37.15942917 26.13916508 37.12702689 28.80540912 36.9765625 31.6484375 C36.96241302 32.66096588 36.94826355 33.67349426 36.9336853 34.71670532 C36.8778619 37.93919306 36.752468 41.15462919 36.625 44.375 C36.5748227 46.56370137 36.52919822 48.75251218 36.48828125 50.94140625 C36.37824636 56.29666176 36.21111502 61.64782738 36 67 C34.91283691 67.62660522 34.91283691 67.62660522 33.80371094 68.26586914 C31.05259232 69.85172315 28.30163618 71.43785856 25.55078125 73.02416992 C23.79959985 74.03390074 22.04824002 75.04332207 20.296875 76.05273438 C19.1625 76.70693359 18.028125 77.36113281 16.859375 78.03515625 C15.14911133 79.01186279 15.14911133 79.01186279 13.40429688 80.00830078 C11.133851 81.33663537 8.88950217 82.71060776 6.67382812 84.12841797 C5.63162109 84.78600098 4.58941406 85.44358398 3.515625 86.12109375 C2.59555664 86.72236084 1.67548828 87.32362793 0.72753906 87.94311523 C-2 89 -2 89 -5.00195312 88.37036133 C-7.93831264 87.02819635 -10.70482629 85.59527254 -13.484375 83.953125 C-14.50273437 83.355 -15.52109375 82.756875 -16.5703125 82.140625 C-17.61960938 81.51671875 -18.66890625 80.8928125 -19.75 80.25 C-20.78382813 79.6415625 -21.81765625 79.033125 -22.8828125 78.40625 C-24.94543651 77.19049681 -26.99389072 75.95036709 -29.02709961 74.68603516 C-31.91000959 72.92579546 -31.91000959 72.92579546 -34.94360352 72.01318359 C-38.29905617 70.7400845 -39.81796213 69.88691754 -42 67 C-43.75540166 60.6138528 -43.56187646 53.90375842 -43.46850586 47.33349609 C-43.43760514 44.13588004 -43.52906451 40.9575353 -43.63085938 37.76171875 C-43.79402482 23.07863563 -43.79402482 23.07863563 -39.44384766 18.03833008 C-36.05117867 15.94064096 -32.70218269 14.47439768 -29 13 C-26.86208394 11.74598813 -24.74634317 10.45328796 -22.65625 9.12109375 C-20.60508621 7.89169368 -18.55300722 6.6638192 -16.5 5.4375 C-15.45585937 4.79748047 -14.41171875 4.15746094 -13.3359375 3.49804688 C-12.32789063 2.89927734 -11.31984375 2.30050781 -10.28125 1.68359375 C-9.38470703 1.14275146 -8.48816406 0.60190918 -7.56445312 0.04467773 C-4.4264111 -1.23366212 -3.18372457 -1.08772399 0 0 Z " fill="#1C4D7F" transform="translate(236,143)"/>
<path d="M0 0 C3.12585561 1.47609071 6.09947177 3.1187881 9.09594727 4.84326172 C9.69376007 5.18608185 10.29157288 5.52890198 10.90750122 5.8821106 C12.80802178 6.97288913 14.70592485 8.06813097 16.60375977 9.16357422 C17.87051418 9.89173927 19.13743977 10.61960661 20.40454102 11.34716797 C22.75180613 12.69542445 25.09784776 14.04572472 27.44311523 15.39746094 C30.86755249 17.36845893 34.29729995 19.32983462 37.72875977 21.28857422 C41.7630486 62.55922705 41.7630486 62.55922705 35.59887695 70.71240234 C30.12983207 75.66927617 23.69904701 78.09180855 16.72973633 80.27246094 C12.57109966 81.68055122 9.13286514 83.83790996 5.47875977 86.22607422 C0.29651383 89.36507145 0.29651383 89.36507145 -2.09228516 89.04321289 C-4.83386639 88.0937196 -7.21290005 86.79490581 -9.74389648 85.37451172 C-11.34201172 84.47925781 -11.34201172 84.47925781 -12.97241211 83.56591797 C-14.08165039 82.93814453 -15.19088867 82.31037109 -16.33374023 81.66357422 C-17.95699219 80.75671875 -17.95699219 80.75671875 -19.61303711 79.83154297 C-21.78894552 78.60718659 -23.94913439 77.35447757 -26.09277344 76.07446289 C-29.20033933 74.22873338 -29.20033933 74.22873338 -32.45556641 73.05932617 C-35.98966443 71.49602858 -37.85444287 70.33298632 -40.27124023 67.28857422 C-42.68862915 60.05799961 -42.49981072 52.26461355 -42.45874023 44.72607422 C-42.46855927 43.14847321 -42.46855927 43.14847321 -42.47857666 41.53900146 C-42.40190088 23.50353847 -42.40190088 23.50353847 -38.09301758 17.89550781 C-32.62225836 12.9203917 -26.24996859 10.49237647 -19.26782227 8.30908203 C-15.11350407 6.89429875 -11.71319087 4.70786786 -8.08374023 2.28857422 C-2.93967896 -0.92080237 -2.93967896 -0.92080237 0 0 Z " fill="#E96946" transform="translate(234.271240234375,304.71142578125)"/>
<path d="M0 0 C2.59619141 1.28759766 2.59619141 1.28759766 5.3515625 2.9140625 C6.36863281 3.51089844 7.38570313 4.10773438 8.43359375 4.72265625 C9.48675781 5.35042969 10.53992188 5.97820312 11.625 6.625 C12.65496094 7.22957031 13.68492187 7.83414063 14.74609375 8.45703125 C16.8238086 9.68275234 18.88579817 10.93551103 20.93139648 12.21411133 C23.9356738 14.06817019 23.9356738 14.06817019 27.14868164 15.22924805 C30.68488637 16.79322192 32.56808454 17.96448751 35 21 C37.42419588 28.22592084 37.22855433 36.02692664 37.1875 43.5625 C37.19404602 44.61423401 37.20059204 45.66596802 37.20733643 46.74957275 C37.13066064 64.78503575 37.13066064 64.78503575 32.82177734 70.39306641 C27.35101812 75.36818251 20.97872835 77.79619775 13.99658203 79.97949219 C9.84226384 81.39427547 6.44195064 83.58070636 2.8125 86 C-0.29296875 87.9375 -0.29296875 87.9375 -3 89 C-7.08465758 87.72055335 -10.67010516 85.57298582 -14.3671875 83.4453125 C-14.96500031 83.10249237 -15.56281311 82.75967224 -16.17874146 82.40646362 C-18.07926201 81.31568509 -19.97716509 80.22044325 -21.875 79.125 C-23.14175442 78.39683495 -24.40868001 77.66896761 -25.67578125 76.94140625 C-28.02304636 75.59314977 -30.369088 74.2428495 -32.71435547 72.89111328 C-36.13873504 70.92014849 -39.569497 68.96028743 -43 67 C-43 51.82 -43 36.64 -43 21 C-32.4375 15.0625 -32.4375 15.0625 -28.98852539 13.12670898 C-24.37835108 10.52630748 -19.79240012 7.91154931 -15.30859375 5.09765625 C-14.63320557 4.67540771 -13.95781738 4.25315918 -13.26196289 3.81811523 C-12.03552642 3.04264686 -10.81669029 2.25497814 -9.60717773 1.45336914 C-5.891493 -0.89242204 -4.17214563 -1.2133516 0 0 Z " fill="#E96946" transform="translate(377,224)"/>
<path d="M0 0 C3.79022467 1.78363514 7.35466762 3.79643291 10.93359375 5.96875 C12.27322756 6.77118392 13.61308477 7.57324498 14.953125 8.375 C16.07787231 9.09550537 16.07787231 9.09550537 17.2253418 9.83056641 C19.6371334 11.19496415 21.88648878 12.19653793 24.44848633 13.21240234 C29.25155191 15.28649053 33.73995144 17.36209942 37.12109375 21.46875 C39.86934887 28.93510017 38.71528861 37.31719637 38.18359375 45.09375 C38.09822758 47.26402685 38.02067678 49.43462604 37.95117188 51.60546875 C37.76469011 56.90031185 37.48121536 62.18302753 37.12109375 67.46875 C36.43184814 67.85095703 35.74260254 68.23316406 35.0324707 68.62695312 C31.83113511 70.40449251 28.63230452 72.18649172 25.43359375 73.96875 C24.28850342 74.60425781 23.14341309 75.23976563 21.96362305 75.89453125 C14.76865983 79.90234573 14.76865983 79.90234573 7.77734375 84.25 C6.90082153 84.82524414 6.90082153 84.82524414 6.0065918 85.41210938 C4.54885727 86.39132325 3.10946785 87.3976983 1.671875 88.40625 C-0.87890625 89.46875 -0.87890625 89.46875 -3.72265625 88.9375 C-7.53297611 87.16438086 -11.10104521 85.14800778 -14.69140625 82.96875 C-16.03104006 82.16631608 -17.37089727 81.36425502 -18.7109375 80.5625 C-19.46270264 80.08329102 -20.21446777 79.60408203 -20.98901367 79.11035156 C-23.37587725 77.75449529 -25.62521259 76.72835729 -28.15356445 75.69433594 C-39.38385503 70.73089955 -39.38385503 70.73089955 -41.93649292 65.16113281 C-43.75062563 58.42922031 -43.65111054 51.63818247 -43.44140625 44.71875 C-43.43296692 43.67450867 -43.42452759 42.63026733 -43.41583252 41.55438232 C-43.13454213 23.84679234 -43.13454213 23.84679234 -38.67431641 18.08886719 C-33.20334266 13.1052305 -26.85891722 10.67399998 -19.87109375 8.48925781 C-15.73245978 7.0777459 -12.36080108 4.89208456 -8.75390625 2.46875 C-3.74624403 -0.69130148 -3.74624403 -0.69130148 0 0 Z " fill="#1C4D7F" transform="translate(187.87890625,223.53125)"/>
</svg>
